<?xml version="1.0" encoding="UTF-8"?> <svg xmlns="http://www.w3.org/2000/svg" width="1920" height="1356" viewBox="0 0 1920 1356" fill="none"><g clip-path="url(#clip0_71_2)"><path d="M1145.92 1292C1248.71 1292 1332.04 1264.09 1332.04 1229.67C1332.04 1195.25 1248.71 1167.34 1145.92 1167.34C1043.12 1167.34 959.795 1195.25 959.795 1229.67C959.795 1264.09 1043.12 1292 1145.92 1292Z" fill="#E6EBF0"></path><g opacity="0.3"><path d="M948.702 65H332.747V461.225H948.702V65Z" fill="#E6EBF0"></path><path d="M1586.25 65H970.299V461.225H1586.25V65Z" fill="#E6EBF0"></path><path d="M1586.25 478.894H970.299V875.107H1586.25V478.894Z" fill="#E6EBF0"></path><path d="M948.702 478.894H332.747V875.095H948.702V478.894Z" fill="#E6EBF0"></path></g><path d="M1588 873.541H331V880.37H1588V873.541Z" fill="#D7DCDC"></path><path d="M516.147 902.303H461.943C461.736 902.292 461.535 902.229 461.359 902.118C461.184 902.007 461.04 901.852 460.941 901.669C460.843 901.486 460.794 901.281 460.799 901.073C460.803 900.865 460.861 900.662 460.968 900.484L474.374 880.611C474.482 880.455 474.626 880.327 474.794 880.237C474.961 880.147 475.147 880.098 475.338 880.093H527.662C527.862 880.104 528.056 880.164 528.227 880.269C528.398 880.373 528.541 880.519 528.641 880.692C528.742 880.866 528.797 881.062 528.803 881.262C528.809 881.462 528.764 881.661 528.674 881.84L517.183 901.725C517.075 901.902 516.922 902.049 516.741 902.15C516.559 902.251 516.355 902.304 516.147 902.303Z" fill="#D7DCDC"></path><path d="M863.386 900.327H812.362C812.157 900.323 811.957 900.267 811.78 900.164C811.603 900.06 811.455 899.914 811.35 899.737L801.148 881.816C801.06 881.637 801.018 881.44 801.025 881.241C801.032 881.043 801.088 880.849 801.188 880.677C801.288 880.505 801.43 880.361 801.599 880.257C801.769 880.153 801.961 880.093 802.16 880.081L850.244 879.708C850.432 879.709 850.617 879.755 850.785 879.841C850.952 879.926 851.097 880.05 851.208 880.202L864.349 898.485C864.461 898.663 864.524 898.867 864.532 899.077C864.54 899.287 864.493 899.496 864.396 899.682C864.299 899.869 864.154 900.026 863.977 900.14C863.799 900.253 863.596 900.317 863.386 900.327Z" fill="#D7DCDC"></path><path d="M928.899 772.155H388.636C382.968 772.155 378.374 776.749 378.374 782.416V783.946C378.374 789.613 382.968 794.207 388.636 794.207H928.899C934.567 794.207 939.162 789.613 939.162 783.946V782.416C939.162 776.749 934.567 772.155 928.899 772.155Z" fill="#D7DCDC"></path><path d="M498.669 894.245H491.032C489.11 894.245 487.266 893.486 485.901 892.132C484.536 890.779 483.761 888.941 483.745 887.019V790.413H505.956V886.959C505.964 887.918 505.781 888.869 505.418 889.756C505.055 890.644 504.518 891.451 503.84 892.129C503.162 892.807 502.355 893.343 501.467 893.707C500.58 894.07 499.628 894.253 498.669 894.245Z" fill="#E6EBF0"></path><path d="M834.862 892.27H827.226C825.314 892.254 823.485 891.488 822.133 890.136C820.781 888.784 820.014 886.955 819.999 885.043V789.486H842.21V884.983C842.21 885.945 842.019 886.898 841.649 887.786C841.279 888.674 840.737 889.48 840.054 890.157C839.371 890.835 838.561 891.37 837.67 891.733C836.778 892.095 835.824 892.278 834.862 892.27Z" fill="#E6EBF0"></path><path d="M909.603 757.34H756.231L751.919 630.625C751.882 629.545 752.068 628.468 752.464 627.462C752.859 626.457 753.457 625.543 754.221 624.778C754.984 624.012 755.896 623.411 756.901 623.013C757.905 622.614 758.981 622.425 760.062 622.459L893.426 626.53C895.289 626.585 897.072 627.298 898.461 628.541C899.849 629.784 900.754 631.477 901.015 633.323C902.882 646.571 906.977 676.296 907.953 689.773C909.241 707.406 909.603 757.34 909.603 757.34Z" fill="#E6EBF0"></path><path d="M976.743 786.896L784.538 788.101C784.538 788.101 778.021 775.178 773.131 768.674C768.241 762.17 757.773 762.652 757.773 762.652C757.773 762.652 743.319 745.911 807.159 751.391C822.817 752.74 929.815 752.595 929.815 752.595C947.148 755.004 978.959 769.18 976.791 786.921L976.743 786.896Z" fill="#E6EBF0"></path><path d="M759.857 786.896H566.833C565.874 786.896 564.955 786.516 564.278 785.838C563.6 785.161 563.219 784.242 563.219 783.283V780.73C563.219 772.709 566.406 765.017 572.078 759.345C577.75 753.674 585.443 750.487 593.465 750.487H729.768C738.592 750.487 747.054 753.992 753.293 760.231C759.532 766.469 763.037 774.93 763.037 783.753C763.027 784.59 762.688 785.39 762.093 785.978C761.498 786.567 760.694 786.897 759.857 786.896Z" fill="#E6EBF0"></path><path d="M742.596 752.583L578.878 753.655L582.094 628.951C582.094 628.065 582.268 627.188 582.607 626.37C582.946 625.551 583.443 624.808 584.07 624.182C584.696 623.555 585.44 623.058 586.258 622.719C587.076 622.381 587.954 622.206 588.839 622.206H732.045C732.93 622.206 733.808 622.381 734.626 622.719C735.444 623.058 736.188 623.555 736.814 624.182C737.441 624.808 737.937 625.551 738.276 626.37C738.615 627.188 738.79 628.065 738.79 628.951L742.596 752.583Z" fill="#E6EBF0"></path><path d="M412.498 757.087H565.869L570.193 630.324C570.23 629.244 570.045 628.167 569.649 627.161C569.253 626.156 568.655 625.242 567.892 624.476C567.129 623.711 566.217 623.11 565.212 622.712C564.207 622.313 563.131 622.124 562.051 622.158L428.674 626.277C426.812 626.335 425.03 627.048 423.642 628.291C422.254 629.533 421.349 631.226 421.086 633.07C419.219 646.318 415.136 676.043 414.148 689.52C412.859 707.141 412.498 757.087 412.498 757.087Z" fill="#E6EBF0"></path><path d="M345.358 786.595L537.563 787.8C537.563 787.8 544.08 774.876 548.97 768.373C553.86 761.869 564.328 762.351 564.328 762.351C564.328 762.351 578.842 745.609 514.942 751.089C499.283 752.438 392.298 752.294 392.298 752.294C374.953 754.703 343.142 768.891 345.322 786.632L345.358 786.595Z" fill="#E6EBF0"></path><path d="M1500.17 884.032C1500.08 888.211 1487.7 890.801 1472.39 891.8L1469.7 891.957L1467.3 892.077L1464.5 892.162C1463.13 892.162 1461.75 892.234 1460.37 892.246H1457.27C1455.8 892.246 1454.33 892.246 1452.88 892.246L1449.11 892.149L1446.14 892.029L1442.78 891.836C1440.66 891.704 1438.59 891.535 1436.6 891.342L1434.19 891.065L1433.5 890.993C1432.32 890.849 1431.17 890.692 1430.06 890.523C1421.08 889.15 1414.91 886.995 1414.86 884.056C1414.86 882.032 1417.83 880.37 1422.56 879.094C1424.97 878.465 1427.41 877.966 1429.87 877.6L1431.59 877.347C1433.42 877.106 1435.35 876.878 1437.36 876.685C1438.51 876.576 1439.68 876.48 1440.86 876.396L1442.47 876.287C1443.78 876.191 1445.12 876.119 1446.48 876.059L1449.67 875.926C1451.68 875.87 1453.69 875.834 1455.7 875.818H1458.92L1463.27 875.878C1464.38 875.878 1465.48 875.878 1466.56 875.986C1468.26 875.986 1469.93 876.131 1471.57 876.227L1474.67 876.444C1488.9 877.504 1500.09 880.045 1500.17 884.032Z" fill="#D7DCDC"></path><path d="M1507.76 791.895L1493.88 887.5H1424.52L1410.65 791.895H1507.76Z" fill="#E6EBF0"></path><path d="M1507.77 791.256C1507.66 796.074 1493.52 799.133 1476.03 800.289L1472.97 800.482L1470.2 800.615C1469.14 800.615 1468.08 800.699 1466.99 800.723C1465.44 800.723 1463.86 800.807 1462.28 800.819H1458.74C1457.07 800.819 1455.39 800.819 1453.73 800.759C1452.29 800.759 1450.84 800.759 1449.42 800.651C1448.22 800.651 1447.16 800.554 1446.04 800.506C1444.73 800.446 1443.46 800.374 1442.19 800.289C1439.78 800.133 1437.37 799.94 1435.15 799.711L1432.34 799.398L1431.55 799.302C1430.18 799.133 1428.88 798.953 1427.62 798.76C1417.36 797.17 1410.31 794.665 1410.25 791.232C1410.25 788.824 1413.63 786.957 1419.04 785.463C1421.79 784.732 1424.58 784.157 1427.39 783.741L1429.36 783.44C1431.46 783.151 1433.66 782.894 1435.95 782.669L1439.94 782.332L1441.78 782.199C1443.29 782.091 1444.82 782.007 1446.36 781.934C1447.57 781.934 1448.77 781.826 1449.97 781.79C1452.26 781.718 1454.58 781.669 1456.9 781.657H1460.59C1462.25 781.657 1463.91 781.657 1465.55 781.73L1469.31 781.85C1471.25 781.922 1473.15 782.019 1475.03 782.139L1478.57 782.38C1494.9 783.669 1507.68 786.632 1507.77 791.256Z" fill="#D7DCDC"></path><path d="M1480.64 783.885C1478.14 783.918 1475.7 783.065 1473.76 781.477C1472.84 780.754 1472.06 779.858 1471.47 778.839C1469.68 778.839 1470.43 772.022 1470.79 770.781C1474.06 754.691 1493.11 743.08 1508.81 743.152C1520.99 743.803 1519.94 756.883 1513.81 764.145C1505.91 774.274 1493.59 782.609 1480.64 783.885Z" fill="#E6EBF0"></path><path d="M1427.59 764.193C1420.37 764.193 1413.44 760.845 1407.29 757.22L1406.92 756.991H1407.02L1406.79 756.859H1406.89L1406.46 756.594L1406.55 756.654L1406.29 756.485H1406.37L1406.19 756.365C1403.47 754.642 1400.94 752.622 1398.66 750.343C1388.66 740.274 1391.88 728.001 1406.47 726.255H1406.66L1408 726.122H1407.9C1417.38 725.58 1426.92 728.651 1435.07 733.349C1437.56 734.673 1439.73 736.519 1441.43 738.761C1443.13 741.002 1444.33 743.585 1444.94 746.332C1445.95 751.15 1446.69 759.918 1440.96 761.58H1441.07C1436.77 763.235 1432.21 764.12 1427.59 764.193Z" fill="#E6EBF0"></path><path d="M1520.27 631.155C1514.1 624.326 1502.12 630.167 1495.4 633.564C1482.94 640.73 1475.04 651.124 1472.15 665.264C1471.33 668.553 1470.93 671.931 1470.94 675.32C1470.97 678.226 1471.18 681.126 1471.58 684.004C1471.58 684.751 1471.69 685.485 1471.7 686.232C1471.71 686.326 1471.75 686.414 1471.82 686.476C1471.89 686.539 1471.98 686.573 1472.08 686.569C1472.78 686.401 1472.31 684.931 1472.38 684.353C1472.8 684.924 1473.33 685.403 1473.94 685.763C1475.58 686.659 1477.44 687.076 1479.3 686.967C1484.03 686.726 1487.95 683.595 1491.61 680.945C1496.53 677.751 1501.03 673.965 1505.02 669.672C1511.85 661.638 1528.14 641.404 1520.27 631.155ZM1472.31 682.113L1472.19 682.029V681.752C1472.2 681.932 1472.26 682.041 1472.31 682.113Z" fill="#E6EBF0"></path><path d="M1526.99 710.092C1525.14 698.204 1509.51 702.696 1501.56 704.888C1489.78 708.502 1479.16 717.125 1474.52 728.675C1473.16 732.819 1471.61 738.118 1474.34 742.008C1474.4 742.102 1474.49 742.176 1474.59 742.221C1474.69 742.265 1474.8 742.279 1474.91 742.259C1475.02 742.24 1475.12 742.189 1475.2 742.112C1475.28 742.035 1475.33 741.936 1475.35 741.828C1484.47 748.729 1497.5 737.865 1505.77 733.71C1511.13 730.651 1516.93 728.061 1521.43 723.75C1524.84 720.16 1527.58 715.162 1526.99 710.092Z" fill="#E6EBF0"></path><path d="M1446.94 653.376C1445.41 644.5 1439.58 637.719 1432.82 632.13C1430.09 629.626 1427 627.548 1423.66 625.964C1415.92 622.632 1407.2 622.395 1399.29 625.301C1392.55 628.252 1388.45 634.937 1393.86 641.236C1401.17 649.498 1412.95 651.136 1421.84 657.074C1428.62 661.265 1439.37 671.527 1445.93 661.783C1446.04 661.778 1446.16 661.739 1446.25 661.67C1446.34 661.602 1446.42 661.507 1446.46 661.397C1446.98 660.149 1447.26 658.813 1447.29 657.459C1447.18 656.773 1447.63 655.978 1447.29 655.375C1447.14 654.641 1447.02 653.918 1446.94 653.376Z" fill="#E6EBF0"></path><path d="M1520.19 594.974C1511.45 594.192 1502.71 600.37 1495.77 605.079C1493.01 607.113 1490.37 609.296 1487.86 611.619L1487.77 611.704L1487.22 612.234L1487.03 612.414L1486.94 612.486L1486.78 612.631C1479.56 619.725 1472.84 627.855 1469.32 637.406C1469.19 637.731 1469.07 638.068 1468.96 638.405C1467.33 641.091 1466.8 644.174 1465.9 647.125C1465.72 647.727 1465.52 648.33 1465.3 648.92C1465.24 649.08 1465.25 649.255 1465.32 649.41C1465.39 649.564 1465.51 649.686 1465.67 649.751H1465.78C1465.92 649.78 1466.08 649.756 1466.21 649.683C1466.34 649.61 1466.44 649.493 1466.49 649.353C1467.21 647.124 1468.08 644.947 1469.1 642.838C1469.1 642.753 1469.19 642.657 1469.23 642.56C1470.7 639.184 1472.78 636.11 1475.37 633.491C1478.7 630.107 1483.21 628.614 1487.54 626.963C1495.16 623.459 1503.2 620.604 1510.21 615.919C1512.92 613.92 1515.63 611.908 1518.19 609.716L1518.28 609.608L1518.4 609.5C1522.16 606.236 1526.91 597.805 1520.19 594.974Z" fill="#E6EBF0"></path><path d="M1475.88 563.877C1469.92 572.354 1465.29 581.697 1462.16 591.578C1461.3 594.932 1460.89 598.388 1460.96 601.852C1460.93 607.846 1462.87 613.685 1466.48 618.472L1467.32 619.4L1467.62 619.701C1468.05 620.155 1468.58 620.512 1469.16 620.749C1470.48 620.893 1468.92 619.316 1468.61 618.942C1468.83 618.887 1469.03 618.749 1469.16 618.557C1469.57 618.831 1470.01 619.049 1470.47 619.207C1474.32 620.556 1478.38 617.509 1481.22 615.004C1492.14 605.369 1497.18 590.916 1500.68 577.137C1508.91 550.725 1492.73 540.993 1475.88 563.877ZM1467.45 617.413L1467.25 617.136C1467.33 617.206 1467.41 617.271 1467.5 617.328L1467.45 617.413Z" fill="#E6EBF0"></path><path d="M1461.94 801.349C1459.53 801.145 1461.33 794.858 1461.28 793.123C1461.84 788.45 1462.36 783.777 1462.8 779.092C1464.13 765.615 1462.72 752.053 1462.8 738.54C1463.18 738.793 1463.09 738.094 1463.14 737.877C1463.46 737.757 1463.31 737.275 1463.33 737.01C1463.15 733.288 1463.09 729.567 1463.03 725.833C1462.9 716.644 1463.45 707.454 1463.69 698.276C1463.91 692.19 1464.14 686.112 1464.39 680.042C1465.28 680.15 1464.9 678.38 1465.05 677.789C1465.31 673.128 1465.31 668.456 1465.05 663.794C1466.26 638.237 1466.51 612.198 1473.73 587.447C1477.92 574.861 1483.05 557.795 1496.49 552.519C1496.93 552.411 1497.82 552.025 1497.95 552.652C1497.95 552.941 1497.67 553.049 1497.43 553.001C1497.05 553.053 1496.68 553.154 1496.32 553.302C1492.36 555.064 1489.04 558.009 1486.82 561.733C1482.11 568.767 1479.59 576.908 1477.18 584.93C1471.29 604.2 1469.61 624.374 1468.98 644.391C1468.36 661.662 1467.6 678.934 1466.97 696.181V695.964C1466.13 717.186 1465.63 738.419 1466.44 759.653C1467.05 770.336 1465.97 780.983 1464.65 791.582C1464.24 794.472 1464.08 797.399 1463.44 800.253C1463.38 800.595 1463.19 800.899 1462.91 801.103C1462.63 801.307 1462.28 801.395 1461.94 801.349Z" fill="#E6EBF0"></path><path d="M1462.56 799.23C1462.39 799.094 1462.25 798.924 1462.15 798.732C1462.05 798.539 1461.99 798.328 1461.97 798.11C1461.96 797.893 1461.98 797.675 1462.06 797.47C1462.13 797.264 1462.24 797.076 1462.39 796.917L1462.3 797.086C1464.85 791.425 1466.9 785.487 1470.38 780.224L1470.28 780.369L1470.78 779.598L1470.87 779.441C1479.3 764.988 1493.32 753.45 1509.81 749.741C1510.77 749.668 1514.85 748.163 1514.93 749.247C1514.93 749.536 1514.61 749.584 1514.37 749.548H1514.19C1513.55 749.64 1512.93 749.769 1512.31 749.933C1492.41 755.112 1477.92 769.469 1469.54 787.872L1469.45 788.053C1468.32 790.546 1467.3 793.087 1466.28 795.641C1465.73 797.182 1464.77 800.434 1462.56 799.23Z" fill="#E6EBF0"></path><path d="M1465.18 803.216H1460.83C1460.28 801.989 1460.24 800.597 1460.71 799.338L1460.88 798.88C1461.13 797.796 1461.08 796.098 1461.97 795.376C1462.22 795.159 1462.53 795.031 1462.86 795.014C1462.89 794.793 1462.98 794.584 1463.11 794.407C1463.25 794.229 1463.43 794.09 1463.63 794.003C1463.86 793.948 1464.09 793.948 1464.32 794.003C1464.56 794.052 1464.79 794.159 1464.98 794.316C1465.18 794.474 1465.34 794.685 1465.43 794.925C1465.52 795.165 1465.54 795.425 1465.49 795.677C1465.45 796.363 1465.45 797.05 1465.49 797.736V798.061C1465.64 799.786 1465.53 801.523 1465.18 803.216Z" fill="#E6EBF0"></path><path d="M1465.81 803.216H1463.13C1463.02 803.047 1462.96 802.858 1462.93 802.662C1462.86 802.168 1462.8 801.65 1462.74 801.145C1462.68 800.639 1462.59 799.808 1462.49 799.145C1462.39 798.483 1462.32 797.82 1462.22 797.158L1461.97 795.363C1461.79 794.159 1461.62 793.039 1461.43 791.871C1461.43 791.75 1461.43 791.642 1461.43 791.533C1461.03 789.233 1460.57 786.945 1460.01 784.68C1458.91 780.083 1457.27 775.634 1455.11 771.432C1455.1 771.4 1455.1 771.367 1455.11 771.336C1455.08 771.28 1455.06 771.227 1455.02 771.179C1454.91 770.986 1454.8 770.794 1454.71 770.589C1452.1 765.799 1448.85 761.38 1445.07 757.449C1437.58 749.708 1428.32 743.898 1418.09 740.515C1410.64 738.065 1402.88 736.682 1395.04 736.408C1393.83 735.649 1398.78 735.854 1399.35 735.866C1416.53 736.697 1432.88 743.515 1445.57 755.136C1453.64 762.441 1459.55 771.824 1462.66 782.259C1462.89 783.078 1463.1 783.91 1463.3 784.668C1463.42 785.138 1463.51 785.596 1463.62 786.065C1464.04 787.968 1464.42 789.871 1464.73 791.786L1465.13 794.195C1465.3 795.4 1465.45 796.508 1465.62 797.676C1465.63 797.764 1465.63 797.853 1465.62 797.941C1465.81 799.326 1465.98 800.711 1466.16 802.096C1466.18 802.297 1466.17 802.5 1466.1 802.692C1466.04 802.885 1465.95 803.063 1465.81 803.216Z" fill="#E6EBF0"></path><path d="M1463.43 781.416C1463.2 781.389 1462.98 781.272 1462.84 781.089C1462.69 780.907 1462.62 780.674 1462.65 780.441C1462.75 778.405 1462.95 776.382 1463.15 774.419C1464.09 757.822 1469.45 742.611 1480.16 729.76C1490.36 717.619 1505.59 705.154 1522.2 705.226H1522.02C1522.83 705.288 1523.63 705.397 1524.43 705.551C1524.48 705.551 1524.53 705.561 1524.57 705.581C1524.62 705.602 1524.66 705.632 1524.69 705.669C1524.73 705.707 1524.75 705.751 1524.77 705.799C1524.79 705.847 1524.79 705.898 1524.79 705.948C1524.77 706.043 1524.72 706.129 1524.64 706.187C1524.57 706.245 1524.47 706.272 1524.38 706.262C1520.37 706.955 1516.42 707.966 1512.57 709.285H1512.74C1491.06 717.583 1474.87 736.986 1468.1 758.918C1466.02 766.01 1464.74 773.315 1464.3 780.694C1464.26 780.896 1464.15 781.078 1463.99 781.21C1463.83 781.342 1463.63 781.415 1463.43 781.416Z" fill="#E6EBF0"></path><path d="M1463.22 734.674C1461.36 711.883 1466.99 689.108 1479.24 669.804L1479.15 669.949C1479.5 669.407 1479.85 668.865 1480.18 668.323L1480.27 668.19L1480.17 668.335C1482.51 664.679 1485.07 661.167 1487.83 657.82L1487.95 657.664L1488.06 657.531L1488.55 656.941L1488.65 656.833L1488.78 656.676L1489.11 656.303C1496.19 648.221 1503.77 639.441 1513.93 635.334C1514.03 635.334 1514.13 635.373 1514.2 635.443C1514.27 635.514 1514.31 635.608 1514.31 635.707C1514.31 635.806 1514.27 635.902 1514.2 635.972C1514.13 636.042 1514.03 636.081 1513.93 636.081C1510.82 638.025 1507.92 640.285 1505.27 642.826V642.765C1476.12 669.901 1466.49 696.096 1463.22 734.782C1463.23 734.746 1463.23 734.71 1463.22 734.674Z" fill="#E6EBF0"></path><path d="M1466.78 697.168C1466.52 690.799 1465.93 684.448 1465.02 678.139C1465.18 674.959 1465.24 671.767 1465.22 668.588C1466.63 676.779 1467.52 685.049 1467.9 693.35C1467.97 694.555 1468.03 695.868 1468.08 697.12C1468.08 697.294 1468.02 697.462 1467.9 697.588C1467.78 697.714 1467.61 697.788 1467.44 697.795C1467.27 697.798 1467.1 697.734 1466.98 697.617C1466.86 697.5 1466.78 697.339 1466.78 697.168Z" fill="#E6EBF0"></path><path d="M1460.32 654.002C1460.22 651.052 1460.14 648.089 1460.04 645.138L1460.66 647.547C1460.66 648.065 1460.66 648.583 1460.66 649.112L1460.51 652.87V653.015C1460.51 653.436 1460.51 653.846 1460.45 654.219L1460.32 654.002Z" fill="#E6EBF0"></path><path d="M1459.19 649.474C1458.96 648.583 1458.72 647.703 1458.48 646.824C1458.62 644.909 1458.78 642.994 1458.96 641.079C1458.96 641.32 1459.09 641.561 1459.15 641.802C1459.25 644.56 1459.3 647.318 1459.33 650.076L1459.19 649.474Z" fill="#E6EBF0"></path><path d="M1457.35 642.874C1456.83 641.103 1456.3 639.333 1455.74 637.562C1455.74 637.08 1455.56 633.335 1454.73 634.431C1454.44 633.551 1454.14 632.66 1453.84 631.781C1453.96 629.782 1454.07 627.794 1454.25 625.759C1455.79 630.215 1457.2 634.716 1458.47 639.26C1458.27 641.163 1458.12 643.066 1457.97 644.969C1457.77 644.307 1457.56 643.572 1457.35 642.874Z" fill="#E6EBF0"></path><path d="M1453.36 630.239C1450.08 620.356 1445.56 610.931 1439.9 602.189C1438.34 599.785 1436.6 597.498 1434.7 595.348C1434.23 594.878 1435.06 594.24 1435.4 594.818C1444.59 602.755 1450.28 613.787 1454.08 625.157C1453.88 627.108 1453.74 629.059 1453.62 631.01C1453.48 630.757 1453.36 630.504 1453.36 630.239Z" fill="#E6EBF0"></path><path d="M1466.24 699.457C1464.36 692.988 1461.86 686.715 1458.77 680.728V680.825C1454.07 672.057 1447.2 664.758 1440.05 657.941C1428.2 646.463 1413.73 638.068 1398.32 632.335C1398.26 632.331 1398.2 632.307 1398.15 632.266C1398.11 632.226 1398.07 632.171 1398.06 632.109C1398.05 632.048 1398.05 631.984 1398.08 631.927C1398.11 631.87 1398.15 631.823 1398.2 631.793C1404.48 632.783 1410.57 634.707 1416.27 637.502C1422.67 640.579 1428.65 644.447 1434.09 649.016L1433.95 648.908C1439.63 653.666 1444.99 658.792 1450 664.252L1449.88 664.132C1455.07 669.687 1459.33 676.049 1462.49 682.968C1464.68 688.154 1466.57 693.462 1468.14 698.867C1468.19 699.111 1468.15 699.368 1468.03 699.584C1467.9 699.801 1467.7 699.963 1467.46 700.037C1467.22 700.111 1466.96 700.093 1466.73 699.985C1466.51 699.878 1466.33 699.689 1466.24 699.457Z" fill="#E6EBF0"></path><path d="M1466.98 644.403C1467.92 641.153 1469.34 638.06 1471.19 635.226V635.141C1475.08 628.963 1480.4 623.844 1485.64 618.81H1485.57C1489 615.765 1492.58 612.899 1496.3 610.222L1496.41 610.15L1497.42 609.427C1503.44 604.947 1510.32 601.719 1517.15 598.588C1517.19 598.58 1517.23 598.586 1517.26 598.604C1517.29 598.621 1517.32 598.65 1517.34 598.685C1517.35 598.72 1517.36 598.76 1517.35 598.796C1517.34 598.833 1517.31 598.866 1517.28 598.889C1514.52 600.093 1511.79 601.466 1509.13 602.911C1493.8 611.493 1480.79 623.679 1471.22 638.417L1470.79 639.104C1469.7 640.826 1468.73 642.609 1467.7 644.379C1467.71 644.475 1467.67 644.568 1467.61 644.638C1467.54 644.708 1467.45 644.749 1467.36 644.753C1467.26 644.756 1467.17 644.721 1467.1 644.655C1467.03 644.59 1466.99 644.499 1466.98 644.403Z" fill="#E6EBF0"></path><path d="M1467.57 620.833C1467.57 620.363 1467.45 619.881 1467.38 619.412C1466.58 613.166 1464.41 607.174 1461.02 601.864C1458.22 597.56 1454.15 594.241 1449.37 592.373C1446.93 591.259 1444.21 590.876 1441.56 591.269C1438.9 591.662 1436.42 592.815 1434.4 594.589C1431.88 596.817 1430.16 599.801 1429.49 603.092C1428.39 608.741 1430.35 614.438 1432.71 619.508C1437.97 628.746 1448.16 651.413 1459.21 653.147H1459.41C1459.72 653.184 1460.03 653.184 1460.35 653.147H1460.49L1460.77 653.075C1463.26 652.352 1463.99 648.98 1464.5 646.595C1465.13 645.173 1465.66 643.708 1466.09 642.211C1466.52 640.633 1466.87 639.032 1467.15 637.394C1468.13 631.926 1468.27 626.343 1467.57 620.833Z" fill="#E6EBF0"></path><path d="M1456.97 731.879C1451.3 731.434 1448.28 726.05 1445.83 721.57C1444.12 718.535 1442.29 715.548 1440.48 712.609C1435.57 704.178 1421.95 684.763 1430.49 676.055C1434.91 669.792 1444.67 674.574 1450.06 677.187C1456.03 680.492 1460.86 685.532 1463.91 691.64L1464.07 691.941V691.833C1470.33 701.757 1475.04 732.373 1456.97 731.879Z" fill="#E6EBF0"></path><path d="M1464.58 758.834C1460.3 738.732 1455.19 718.498 1445.2 700.372V700.444L1445.13 700.3C1441.33 692.992 1436.46 686.29 1430.68 680.415C1430.64 680.399 1430.61 680.374 1430.58 680.343C1430.45 679.837 1431.14 680.138 1431.33 680.343C1437.48 684.956 1442.17 691.255 1446.3 697.662C1458.21 716.27 1463.81 738.106 1466.33 759.87L1465.13 762.399C1465.03 761.218 1464.83 760.026 1464.58 758.834Z" fill="#E6EBF0"></path><path d="M1465.83 691.182C1465.74 689.737 1465.62 688.28 1465.48 686.834C1464.33 676.9 1462.56 667.048 1460.16 657.339V657.242V657.086L1460.06 656.628C1460.06 656.66 1460.06 656.692 1460.06 656.724C1460.06 656.604 1460.06 656.471 1459.97 656.351C1455.01 634.672 1445.52 614.317 1434.68 595.047C1434.64 594.981 1434.59 594.92 1434.53 594.866C1434.49 594.85 1434.46 594.825 1434.43 594.792C1434.4 594.76 1434.38 594.721 1434.38 594.68C1434.37 594.639 1434.37 594.596 1434.38 594.555C1434.39 594.514 1434.41 594.476 1434.44 594.445C1434.73 594.204 1435.09 594.577 1435.3 594.758C1440.51 600.599 1443.57 608.006 1447.14 614.883C1452.9 626.043 1457.27 637.866 1460.15 650.088C1462.86 662.349 1465.4 674.718 1466.49 687.232C1466.6 688.436 1466.69 689.749 1466.78 691.014C1466.78 691.133 1466.74 691.249 1466.66 691.337C1466.58 691.425 1466.46 691.477 1466.34 691.483C1466.24 691.501 1466.12 691.481 1466.03 691.426C1465.94 691.371 1465.86 691.285 1465.83 691.182Z" fill="#E6EBF0"></path><path d="M1489.59 791.895L1475.02 887.5H1442.61L1428.82 791.895H1489.59Z" fill="#D7DCDC"></path><path d="M658.954 225.053C658.509 225.571 656.232 209.396 656.232 209.396L657.533 198.954L661.616 187.331L760.929 274.157L811.242 319.828L825.407 316.323L830.394 323.128L832.309 330.885L830.08 341.435L822.986 348.589L815.048 349.962H792.234L772.312 341.05L738.465 317.371L674.288 246.371L658.954 225.053Z" fill="#D7DCDC"></path><path d="M585.876 289.658C579.685 289.417 576.879 295.68 577.095 302.328C577.095 302.714 577.156 303.111 577.204 303.533C521.555 321.936 549.391 312.831 493.67 330.86C493.67 330.86 480.71 310.903 480.421 314.288C480.132 317.672 492.213 340.351 495.995 345.482H496.718C499.127 345.205 501.536 345.06 503.836 344.651C512.112 343.194 517.411 341.869 525.036 340.098C545.886 335.281 566.7 330.306 587.563 325.537C587.984 326.019 588.418 326.488 588.851 326.958V290.356C587.921 289.914 586.906 289.676 585.876 289.658ZM970.347 226.366V243.023C971.875 242.593 973.368 242.049 974.816 241.397C978.802 236.086 985.331 218.056 986.234 214.635C983.837 212.395 977.092 220.669 970.347 226.366ZM877.779 242.024L864.722 243.625L844.703 246.094L842.294 246.383C841.09 242.999 839.5 239.422 836.826 237.652C830.285 233.304 823.709 238.856 823.829 248.419L821.962 248.612C823.817 211.082 822.564 236.881 824.371 199.351C824.732 191.812 825.058 186.007 825.311 178.021C825.407 175.263 825.539 172.517 825.419 169.783C825.465 168.794 825.342 167.805 825.058 166.857L824.491 166.291C819.999 161.738 817.18 159.895 812.446 159.618L811.338 159.534C810.97 160.025 810.629 160.536 810.314 161.063C809.305 163.444 808.499 165.906 807.905 168.422C806.701 172.734 805.496 177.094 804.364 181.454C793.632 222.777 799.004 202.11 788.248 243.421C787.087 241.124 785.487 239.078 783.538 237.399C781.515 235.997 779.042 235.402 776.603 235.732C774.164 236.062 771.937 237.292 770.36 239.181C768.685 241.381 767.599 243.972 767.205 246.709C761.302 241.59 764.241 244.155 758.351 239.049C749.522 231.401 740.645 223.765 732.298 216.635L731.238 215.731C710.472 198.003 696.812 186.669 693.066 184.272C682.129 177.311 669.422 177.202 662.52 184.405C656.076 191.125 653.606 212.106 658.22 226.439C658.242 226.515 658.275 226.588 658.316 226.655C659.759 229.233 661.436 231.672 663.327 233.942C669.109 241.168 675.035 248.226 681.045 255.14C677.274 258.829 673.187 262.182 668.831 265.16C660.038 271.182 651.125 277.204 641.549 280.817C638.731 275.349 635.623 271.122 630.287 270.953C622.325 270.652 618.724 278.637 619.013 287.261L619.229 289.116C606.197 293.693 608.871 292.789 602.005 295.138V322.237C612.099 319.965 622.205 317.761 632.323 315.625C634.997 318.72 638.104 321.912 641.862 321.791C645.596 320.503 647.427 317.431 647.885 312.433C672.602 307.615 697.379 302.858 722.36 301.1L722.541 301.292C729.335 308.627 736.068 316.131 743.271 322.791C725.022 329.463 734.996 325.79 713.375 333.847C707.966 335.871 700.583 338.665 694.873 340.845C689.164 343.025 683.057 345.265 677.251 347.975C677.167 351.829 682.816 357.454 684.478 358.369L684.948 358.309C693.078 357.104 701.161 355.322 709.243 353.72C754.726 344.482 734.165 348.77 770.963 341.002C778.19 344.747 785.417 348.902 793.066 350.781C801.256 351.706 809.522 351.754 817.722 350.926C823.468 350.083 826.021 348.951 829.201 345.289C832.983 340.472 834.019 332.836 832.574 326.284C843.415 323.73 854.135 320.876 864.915 318.034C868.36 317.094 871.805 316.175 875.25 315.275L877.972 314.553C890.331 311.277 902.689 307.965 914.999 304.315C916.167 304.011 917.308 303.608 918.408 303.111C918.504 299.257 909.169 296.535 907.567 295.632C897.714 296.354 887.837 296.944 877.972 297.498L864.915 298.233C850.461 299.064 836.007 299.967 821.552 301.341L819.83 301.509L819.553 301.076L819.637 299.413L820.733 277.445L838.536 273.169C842.15 275.735 840.331 274.832 843.788 276.084C846.51 276.084 848.112 274.88 848.269 270.905L864.987 267.123L878.044 264.233C892.607 260.993 907.17 257.813 921.732 254.598C930.634 252.646 939.8 250.804 949.003 248.708V232.75C942.378 233.569 935.753 234.496 929.152 235.363C890.716 240.337 891.451 240.289 877.743 241.975L877.779 242.024ZM830.803 331.969C827.319 333.152 823.629 333.603 819.963 333.293C818.758 333.137 815.53 331.908 814.362 332.86C812.88 334.064 813.362 338.737 813.579 340.448C813.88 342.856 815.747 346.53 816.445 348.601C816.445 348.601 800.016 350.805 788.464 346.903C783.763 345.361 779.365 343.014 775.468 339.966L775.841 339.881C784.044 344.302 789.585 347.168 796.607 347.71C800.344 347.954 804.097 347.784 807.797 347.204C798.883 347.397 789.536 347.036 778.78 339.303L779.912 339.087C786.898 343.025 793.415 345.891 799.823 345.916C802.161 346.028 804.505 345.915 806.821 345.578C797.836 346.12 790.729 344.229 782.731 338.521L783.767 338.316C789.235 341.351 794.716 344.001 800.726 344.169C802.494 344.237 804.265 344.185 806.026 344.013C798.245 344.013 793.017 342.7 785.875 337.858L787.079 337.605C791.897 340.411 796.968 342.423 802.34 342.543H805.171C799.422 342.423 793.849 340.534 789.211 337.135L790.187 336.931C793.831 339.461 798.145 340.849 802.581 340.917C803.15 340.915 803.718 340.867 804.28 340.773C799.807 340.901 795.44 339.398 791.994 336.545L793.102 336.304C795.502 337.732 798.196 338.597 800.979 338.834L803.135 338.761C800.09 338.672 797.136 337.701 794.631 335.967L795.993 335.666C797.909 336.452 799.946 336.904 802.015 337.003L803.087 336.87C801.274 336.846 799.514 336.257 798.052 335.184C800.461 334.654 802.75 334.112 805.111 333.51C804.774 331.92 802.099 330.27 801.16 329.62C798.076 327.54 794.884 325.627 791.596 323.887C787.224 321.478 783.164 319.515 778.635 317.564C775.323 316.107 771.673 314.469 768.144 314.252C767.056 314.339 765.992 314.616 765 315.071C763.483 315.577 761.387 316.275 760.038 316.769C756.328 318.082 749.932 320.322 746.234 321.671C738.549 314.444 731.286 306.387 723.89 298.655C723.444 297.149 723.89 294.632 719.566 288.273C716.199 283.595 712.58 279.104 708.725 274.819C703.935 269.504 698.783 264.526 693.307 259.921C691.455 258.487 689.512 257.176 687.489 255.995C686.285 255.356 683.346 253.357 683.286 253.357C683.225 253.357 678.239 247.419 675.83 244.589C672.397 240.578 668.976 236.544 665.64 232.388C664.664 231.184 660.267 225.644 659.761 223.957C658.072 216.86 657.664 209.519 658.557 202.278L685.345 228.775L658.942 199.279V198.93L692.946 233.292L692.199 232.449L659.581 196.196L659.653 195.835C686.972 223.945 673.252 209.806 700.86 238.23L660.532 192.751V192.679C671.927 204.892 685.683 218.851 697.174 230.907C717.265 251.972 737.248 273.254 757.954 293.295C765.627 299.727 785.08 316.926 812.362 324.887C814.977 325.633 817.677 326.038 820.396 326.091C823.172 325.852 825.931 325.45 828.659 324.887C829.03 325.15 829.435 325.36 829.864 325.513C830.653 327.551 830.967 329.743 830.779 331.92L830.803 331.969ZM791.427 250.274C797.45 227.318 803.28 204.217 809.375 181.249C810.764 176.078 811.872 172.064 812.699 169.205C813.012 168.157 813.326 167.11 813.663 166.074C814.34 166.226 815.008 166.419 815.662 166.652C817.518 167.599 819.193 168.862 820.613 170.385V170.783C820.613 171.903 820.613 173.529 820.48 175.601C820.348 179.539 820.131 185.103 819.818 192.173C818.927 211.155 818.059 230.148 817.072 249.117C808.544 249.997 799.968 251.008 791.403 250.322L791.427 250.274ZM814.795 294.776L814.012 293.705L807.893 286.478L803.665 281.877L815.59 278.734L814.795 294.776Z" fill="#E6EBF0"></path><path d="M601.872 295.126V322.249L598.825 322.935C598.391 326.452 596.621 329.186 594.007 329.728C592.056 329.728 590.393 328.464 588.852 326.922V290.356C591.381 291.561 593.224 294.21 594.742 297.583L601.872 295.126Z" fill="#E6EBF0"></path><path d="M820.89 267.039C820.89 267.039 897.702 250.996 948.666 242.505V245.709C902.966 255.971 820.565 274.133 820.565 274.133L820.89 267.039Z" fill="#D7DCDC"></path><path d="M972.117 240.361L970.311 240.771V239.145L971.021 239.049C971.529 239.345 971.916 239.809 972.117 240.361Z" fill="#D7DCDC"></path><path d="M812.242 162.689C817.18 162.99 820.155 165.905 822.926 168.711C823.648 171.457 816.493 305.845 816.216 314.228C811.194 315.107 775.781 280.035 772.312 269.171C776.612 270.375 780.587 271.459 783.381 268.822C785.622 265.895 809.965 165.905 812.242 162.689Z" fill="#D7DCDC"></path><path d="M684.876 355.84C699.992 352.227 785.236 332.559 798.028 329.704C799.448 330.204 800.731 331.029 801.774 332.113C778.587 337.461 699.571 354.515 684.876 355.84Z" fill="#D7DCDC"></path><path d="M496.742 341.074C503.15 337.569 544.031 327.259 588.815 316.588V321.502C539.731 332.92 496.971 343.964 496.971 343.964C496.971 343.964 496.862 342.025 496.742 341.074Z" fill="#D7DCDC"></path><path d="M720.698 296.704H719.867C697.041 297.812 648.09 307.88 601.824 318.383V313.385C649.427 302.147 698.053 291.211 712.062 288.092L716.061 287.189C716.061 287.189 720.698 292.621 720.698 296.704Z" fill="#D7DCDC"></path><path d="M679.299 234.388L677.781 232.701V225.282L679.311 226.944L679.299 234.388Z" fill="#E6EBF0"></path><path d="M676.625 231.425L675.095 229.727V222.356L676.625 224.018V231.425Z" fill="#E6EBF0"></path><path d="M673.939 228.438L672.409 226.74V219.429L673.939 221.091V228.438Z" fill="#E6EBF0"></path><path d="M671.253 225.463L669.723 223.765V216.538L671.253 218.2V225.463Z" fill="#E6EBF0"></path><path d="M668.567 222.476L667.037 220.826V213.599L668.555 215.262L668.567 222.476Z" fill="#E6EBF0"></path><path d="M665.868 219.501L664.399 217.803V210.661L665.929 212.323L665.868 219.501Z" fill="#E6EBF0"></path><path d="M663.194 216.502L661.616 214.804V207.698L663.182 209.384L663.194 216.502Z" fill="#E6EBF0"></path><path d="M693.934 250.611L692.404 248.913V241.18L693.934 242.843V250.611Z" fill="#E6EBF0"></path><path d="M691.247 247.624L689.718 245.938V238.254L691.235 239.916L691.247 247.624Z" fill="#E6EBF0"></path><path d="M688.549 244.649L687.032 242.951V235.327L688.562 236.989L688.549 244.649Z" fill="#E6EBF0"></path><path d="M685.864 241.662L684.334 239.976V232.412L685.864 234.074V241.662Z" fill="#E6EBF0"></path><path d="M683.177 238.687L681.66 237.001V229.51L683.165 231.148L683.177 238.687Z" fill="#E6EBF0"></path><path d="M727.829 288.2L726.299 286.502V278.071L727.829 279.733V288.2Z" fill="#E6EBF0"></path><path d="M725.143 285.225L723.613 283.527V275.096L725.143 276.759V285.225Z" fill="#E6EBF0"></path><path d="M722.457 282.251L720.927 280.552V272.218L722.457 273.88V282.251Z" fill="#E6EBF0"></path><path d="M719.807 279.252L718.277 277.565V269.279L719.795 270.941L719.807 279.252Z" fill="#E6EBF0"></path><path d="M717.084 276.229L715.555 274.53V266.304L717.084 267.978V276.229Z" fill="#E6EBF0"></path><path d="M714.386 273.302L712.869 271.604V263.438L714.398 265.1L714.386 273.302Z" fill="#E6EBF0"></path><path d="M711.7 270.315L710.171 268.617V260.571L711.7 262.233V270.315Z" fill="#E6EBF0"></path><path d="M708.966 267.34L707.436 265.642V257.584L708.966 259.247V267.34Z" fill="#E6EBF0"></path><path d="M706.328 264.353L704.798 262.655V254.658L706.328 256.32V264.353Z" fill="#E6EBF0"></path><path d="M703.642 261.378L702.112 259.68V251.743L703.63 253.405L703.642 261.378Z" fill="#E6EBF0"></path><path d="M700.956 258.391L699.426 256.693V248.816L700.956 250.478V258.391Z" fill="#E6EBF0"></path><path d="M698.258 255.416L696.74 253.718V245.89L698.27 247.552L698.258 255.416Z" fill="#E6EBF0"></path><path d="M741.344 303.111L739.754 301.413V292.681L741.416 294.439L741.344 303.111Z" fill="#E6EBF0"></path><path d="M738.597 300.136L737.068 298.438V289.754L738.597 291.416V300.136Z" fill="#E6EBF0"></path><path d="M735.899 297.149L734.369 295.499V286.888L735.899 288.55V297.149Z" fill="#E6EBF0"></path><path d="M733.213 294.174L731.683 292.476V283.913L733.213 285.575V294.174Z" fill="#E6EBF0"></path><path d="M730.527 291.187L728.997 289.477V281.046L730.527 282.708V291.187Z" fill="#E6EBF0"></path><path d="M829.924 319.768C827.202 313.493 824.455 307.206 821.287 301.316L821.179 301.124C820.585 301.057 819.984 301.106 819.408 301.268L819.565 301.485C821.281 303.932 822.838 306.487 824.227 309.133C826.395 313.035 828.442 317.046 830.49 321.081L829.924 319.768ZM908.555 303.532C904.472 304.412 900.822 305.219 896.727 306.122C874.636 311.012 852.557 316.046 830.478 321.081C830.999 322.158 831.45 323.269 831.827 324.405L832.574 324.224C847.992 320.33 863.401 316.375 878.803 312.361C890.174 309.41 901.569 306.555 912.855 303.123C914.017 302.787 915.159 302.384 916.276 301.919C913.734 302.364 911.133 302.978 908.555 303.532Z" fill="#D7DCDC"></path><path d="M717.145 1136.02C717.145 1136.02 714.663 1152.98 711.459 1158.5C708.255 1164.03 729.443 1169.9 729.443 1169.9C732.365 1161.9 734.2 1153.54 734.899 1145.05C734.899 1145.05 727.359 1126.89 717.145 1136.02Z" fill="#322D41"></path><path d="M723.023 1187.9C732.968 1187.9 741.03 1179.84 741.03 1169.9C741.03 1159.95 732.968 1151.89 723.023 1151.89C713.077 1151.89 705.015 1159.95 705.015 1169.9C705.015 1179.84 713.077 1187.9 723.023 1187.9Z" fill="#322D41"></path><path d="M946.594 1132.56C948.003 1121.03 913.204 1138.66 922.997 1151.01C922.997 1151.01 931.043 1175.45 942.113 1178.71L946.594 1132.56Z" fill="#322D41"></path><path d="M941.788 1192.59C951.733 1192.59 959.795 1184.53 959.795 1174.58C959.795 1164.64 951.733 1156.58 941.788 1156.58C931.842 1156.58 923.78 1164.64 923.78 1174.58C923.78 1184.53 931.842 1192.59 941.788 1192.59Z" fill="#322D41"></path><path d="M854.05 771.661H829.972C756.929 771.661 697.716 830.868 697.716 903.904V1035.1C697.716 1108.14 756.929 1167.34 829.972 1167.34H854.05C927.093 1167.34 986.307 1108.14 986.307 1035.1V903.904C986.307 830.868 927.093 771.661 854.05 771.661Z" fill="#322D41"></path><path d="M837.549 544.522H811.037V549.279H837.549V544.522Z" fill="#322D41"></path><path d="M782.369 550.05H770.794V775.286H782.369V550.05Z" fill="#322D41"></path><path d="M877.864 550.231H865.566V780.429H877.864V550.231Z" fill="#322D41"></path><path d="M852.195 771.661H794.728C730.905 771.661 679.166 823.394 679.166 887.211V1051.79C679.166 1115.61 730.905 1167.34 794.728 1167.34H852.195C916.018 1167.34 967.757 1115.61 967.757 1051.79V887.211C967.757 823.394 916.018 771.661 852.195 771.661Z" fill="#BE282D"></path><path opacity="0.3" d="M858.483 1149.11H788.464C734.526 1149.11 696.162 1107.87 696.162 1053.96V885.08C696.162 831.146 734.526 789.932 788.464 789.932H858.507C912.458 789.932 951.773 831.183 951.773 885.08V1053.93C951.749 1107.87 912.434 1149.11 858.483 1149.11Z" fill="#322D41"></path><path d="M786.055 552.953V577.499H767.735V555.879C767.742 554.815 768.107 553.785 768.771 552.953H786.055Z" fill="#322D41"></path><path d="M880.863 554.699V577.499H862.578V551.616H879.815C880.495 552.5 880.864 553.584 880.863 554.699Z" fill="#322D41"></path><path d="M880.863 554.109V564.082H767.735V554.097C767.743 553.095 768.111 552.129 768.771 551.375C769.494 550.581 770.381 549.954 771.371 549.538C772.362 549.122 773.431 548.927 774.504 548.966H874.07C875.145 548.926 876.216 549.121 877.208 549.537C878.2 549.953 879.09 550.58 879.815 551.375C880.486 552.128 880.858 553.101 880.863 554.109Z" fill="#322D41"></path><path d="M1120.68 286.574C1139.34 286.574 1154.46 271.454 1154.46 252.803C1154.46 234.151 1139.34 219.031 1120.68 219.031C1102.03 219.031 1086.91 234.151 1086.91 252.803C1086.91 271.454 1102.03 286.574 1120.68 286.574Z" fill="#7D501E"></path><path d="M1027.31 285.418C1038.02 292.645 1056.41 264.69 1065.24 228.064C1043.14 209.842 1029.71 212.672 1020.85 228.619C1010.53 247.202 1015.06 277.096 1027.31 285.418Z" fill="#7D501E"></path><path d="M878.731 556.397C874.321 562.655 868.233 567.539 861.169 570.489C860.82 570.633 860.47 570.79 860.133 570.971L855.773 573.319C852.396 575.098 848.486 575.581 844.777 574.68C841.068 573.778 837.817 571.553 835.633 568.423C833.45 565.293 832.485 561.474 832.919 557.682C833.354 553.891 835.159 550.389 837.994 547.834L842.065 544.221C843.797 542.689 845.996 541.789 848.305 541.668L869.721 540.559C871.758 540.456 873.78 540.964 875.527 542.017C876.706 542.729 877.728 543.672 878.532 544.791C879.335 545.909 879.904 547.178 880.204 548.522C880.503 549.866 880.527 551.257 880.274 552.611C880.021 553.964 879.496 555.252 878.731 556.397Z" fill="#FAC89B"></path><path d="M1105.25 1206.92L1073.77 1209.9L1067.27 1137.43L1098.76 1134.45L1105.25 1206.92Z" fill="#FAC89B"></path><path d="M1226.16 1220.78L1194.93 1223.85L1188.91 1150.74L1220.13 1147.68L1226.16 1220.78Z" fill="#FAC89B"></path><path d="M1191.62 1201.55L1227.01 1199.96C1227.61 1199.92 1228.22 1200.11 1228.7 1200.49C1229.17 1200.87 1229.5 1201.41 1229.61 1202.01L1234.9 1229.82C1235 1230.52 1234.96 1231.24 1234.77 1231.93C1234.58 1232.62 1234.25 1233.26 1233.79 1233.81C1233.34 1234.36 1232.77 1234.81 1232.13 1235.12C1231.49 1235.44 1230.79 1235.62 1230.08 1235.65C1217.73 1235.98 1211.74 1235.53 1196.19 1236.21C1186.56 1236.65 1165.5 1238.99 1152.29 1239.58C1139.35 1240.16 1137.84 1227.13 1143.23 1225.71C1167.67 1219.3 1178.42 1211.06 1186.43 1203.72C1187.85 1202.4 1189.68 1201.64 1191.62 1201.55Z" fill="#322D41"></path><path d="M1069.59 1200.85H1106.93C1107.6 1200.86 1108.25 1201.09 1108.78 1201.5C1109.31 1201.91 1109.7 1202.48 1109.88 1203.13L1118.01 1232.72C1118.21 1233.42 1118.24 1234.15 1118.1 1234.87C1117.96 1235.58 1117.66 1236.25 1117.22 1236.83C1116.77 1237.4 1116.2 1237.86 1115.54 1238.18C1114.89 1238.49 1114.17 1238.65 1113.44 1238.63C1100.27 1238.75 1094.01 1238.63 1077.57 1238.63H1027.31C1013.64 1238.63 1010.78 1224.82 1016.47 1223.57C1041.76 1217.97 1056.43 1210.22 1064.26 1202.84C1065.72 1201.52 1067.62 1200.81 1069.59 1200.85Z" fill="#322D41"></path><path d="M979.248 419.276C984.596 446.977 998.267 537.223 1016.06 646.788L1172.9 630.143C1167.35 575.03 1148.17 500.549 1164.08 395.874C1166.38 380.819 1155.85 367.45 1141.2 366.969C1131.02 366.643 1118.97 366.619 1106.85 367.39C1082.6 368.944 1062.73 370.413 1041.58 374.809C1028.52 377.531 1014.5 381.361 1003.28 384.685C988.415 389.081 976.369 404.028 979.248 419.276Z" fill="#322D41"></path><path d="M1091.88 300.172C1089.85 319.13 1088.8 356.358 1102.9 367.619C1102.9 367.619 1105 379.41 1067.64 385.902C1066.09 386.181 1064.51 386.238 1062.95 386.07C1037.66 383.373 1042.64 374.568 1042.64 374.568C1063 367.8 1048.4 328.331 1043.53 314.167L1091.88 300.172Z" fill="#FAC89B"></path><path d="M1106 266.027C1098.09 296.294 1095.39 309.277 1076.83 321.96C1048.89 341.038 1013.43 324.706 1012.14 292.693C1010.94 263.871 1024.09 219.224 1056.48 212.913C1088.39 206.71 1113.9 235.761 1106 266.027Z" fill="#FAC89B"></path><path d="M1039.78 210.492C1026.92 223.403 1053.77 256.019 1098.34 284.804C1132.84 263.907 1121.02 235.905 1105.24 220.043C1089.76 204.482 1054.48 195.714 1039.78 210.492Z" fill="#7D501E"></path><path d="M1108.49 293.355C1105.66 298.699 1100.83 302.705 1095.05 304.496C1087.38 306.809 1083.38 299.98 1085.41 292.657C1087.22 286.057 1093.38 276.903 1101.15 277.806C1108.91 278.71 1111.9 286.767 1108.49 293.355Z" fill="#FAC89B"></path><path d="M1230.45 1163.97L1172.9 630.143L1015.72 644.752L1057.79 1163.97H1112.2L1108.7 768.385L1176.84 1163.97H1230.45Z" fill="#BE282D"></path><path d="M1227.98 636.105C1225.26 636.379 1222.52 635.796 1220.14 634.438C1217.77 633.08 1215.88 631.014 1214.73 628.529L1213.37 625.566C1212.48 623.648 1212.22 621.498 1212.64 619.424L1216.47 599.973C1216.77 598.428 1217.43 596.977 1218.4 595.736C1219.37 594.496 1220.62 593.5 1222.04 592.831C1223.25 592.251 1224.57 591.921 1225.91 591.862C1227.25 591.803 1228.59 592.015 1229.85 592.487C1231.11 592.958 1232.26 593.678 1233.23 594.605C1234.2 595.531 1234.98 596.644 1235.51 597.877C1237.48 603.098 1238.38 608.658 1238.17 614.233C1238.13 615.502 1238.34 616.765 1238.79 617.955L1238.99 618.509C1239.68 620.389 1239.93 622.402 1239.73 624.395C1239.52 626.388 1238.86 628.307 1237.8 630.005C1236.74 631.704 1235.3 633.136 1233.6 634.194C1231.9 635.251 1229.97 635.905 1227.98 636.105Z" fill="#FAC89B"></path><path d="M1144.34 367.294C1156.67 369.329 1166.02 382.855 1172.95 390.984C1179.87 399.114 1187.58 406.642 1193.91 415.313C1200.23 423.985 1206.43 432.801 1212.27 442.184C1215.18 447.001 1218.07 451.674 1220.71 456.914L1222.72 460.768L1224.63 464.899L1226.51 469.042C1227.14 470.403 1227.72 472.185 1228.38 473.727C1230.42 479.458 1232.03 485.331 1233.2 491.299C1234.4 496.9 1235.27 502.38 1236.04 507.776C1237.52 518.615 1238.45 529.214 1239.01 539.777C1240.18 560.794 1240.04 581.863 1238.59 602.863L1214.01 604.164C1210.06 584.291 1206.34 564.154 1202.19 544.582C1200.13 534.79 1197.92 525.095 1195.47 515.761C1194.27 511.088 1192.94 506.523 1191.52 502.199C1190.25 498.196 1188.75 494.271 1187.02 490.444C1186.57 489.649 1186.33 489.011 1185.81 488.035L1184.22 485.313L1182.64 482.579L1180.8 479.761C1178.39 476.039 1175.66 472.173 1172.96 468.343C1167.42 460.683 1161.25 453.047 1155.11 445.46C1142.7 430.296 1129.28 415.012 1116.48 400.355L1144.34 367.294Z" fill="#322D41"></path><path d="M1037.87 402.691C1035.55 412.917 1032.93 422.191 1029.97 431.802C1027.01 441.413 1023.78 450.759 1020.15 460.165C1016.53 469.572 1012.59 478.942 1007.95 488.252C1003.3 498.021 997.832 507.381 991.606 516.231C990.787 517.435 989.932 518.555 989.005 519.735C988.077 520.916 987.342 521.939 985.885 523.602C984.654 525.062 983.334 526.445 981.934 527.745C980.674 528.98 979.347 530.146 977.959 531.237C973.094 535.074 967.847 538.4 962.3 541.162C952.66 545.97 942.575 549.83 932.188 552.688C922.451 555.423 912.571 557.618 902.592 559.264C892.655 560.89 885.85 562.082 875.551 562.576L870.733 538.488C887.945 531.852 902.93 525.035 918.914 517.23C926.586 513.653 933.972 509.489 941.005 504.777C943.84 502.858 946.475 500.659 948.87 498.213C949.316 497.774 949.72 497.294 950.075 496.779C950.402 496.415 950.681 496.01 950.906 495.575L952.11 493.696C952.604 492.937 953.098 492.13 953.568 491.287C957.663 483.98 961.284 476.417 964.408 468.644C967.673 460.503 970.804 452.048 973.671 443.424C976.538 434.801 978.586 415.398 981.224 406.581C983.861 397.765 992.028 393.357 996.846 388.804L1037.87 402.691Z" fill="#322D41"></path></g><defs><clipPath id="clip0_71_2"><rect width="1257" height="1227" fill="white" transform="translate(331 65)"></rect></clipPath></defs></svg> 