<?xml version="1.0" encoding="UTF-8"?> <svg xmlns="http://www.w3.org/2000/svg" width="1920" height="1356" viewBox="0 0 1920 1356" fill="none"><g clip-path="url(#clip0_9_2905)"><path d="M1642.99 853.005H1594.24V274.205C1594.24 266.969 1600.1 261.094 1607.35 261.094H1629.88C1637.11 261.094 1642.99 266.959 1642.99 274.205V853.005Z" fill="#E6EBF0"></path><path d="M875.4 1252.29C875.4 1252.29 887.694 1261.07 881.01 1266.4C873.466 1272.41 858.729 1270.84 850.802 1276.53C842.483 1282.5 819.383 1299 802.967 1296.97C787.613 1295.07 781.472 1292.35 781.514 1288.5C781.557 1284.65 781.557 1284.65 781.557 1284.65" fill="#322D41"></path><path d="M1025.26 1237.55C1025.26 1237.55 1019.65 1275.09 1018.09 1286.93C1016.73 1297.23 1031.04 1309.58 1052.81 1307.61C1073.5 1305.74 1074.24 1296.97 1072.88 1285.91C1071.44 1274.15 1060.75 1239.57 1060.75 1239.57L1025.26 1237.55Z" fill="#322D41"></path><path d="M745.505 152.499H405.748V599.755H745.505V152.499Z" fill="#E6EBF0"></path><path d="M697.977 206.292H453.275V558.489H697.977V206.292Z" fill="white"></path><g opacity="0.2"><path d="M697.956 206.993V238.261L453.264 482.958V394.72L641.036 206.993H697.956Z" fill="#E6EBF0"></path><path d="M697.956 503.963V559.19H642.768L697.956 503.963Z" fill="#E6EBF0"></path><path d="M697.956 260.531V304.655L453.264 549.362V505.238L697.956 260.531Z" fill="#E6EBF0"></path><path d="M541.519 206.993L453.264 295.242V282.704L528.981 206.993H541.519Z" fill="#E6EBF0"></path></g><path d="M1505.49 156.452H1165.73V603.708H1505.49V156.452Z" fill="#E6EBF0"></path><path d="M1457.97 203.976H1213.27V556.173H1457.97V203.976Z" fill="white"></path><g opacity="0.2"><path d="M1457.95 203.976V235.244L1213.26 479.952V391.703L1401.02 203.976H1457.95Z" fill="#E6EBF0"></path><path d="M1457.95 500.957V556.173H1402.75L1457.95 500.957Z" fill="#E6EBF0"></path><path d="M1457.95 257.524V301.648L1213.26 546.345V502.231L1457.95 257.524Z" fill="#E6EBF0"></path><path d="M1301.51 203.976L1213.26 292.224V279.687L1288.97 203.976H1301.51Z" fill="#E6EBF0"></path></g><path d="M668.445 734.927H708.428V718.033H668.445V734.927Z" fill="#E6EBF0"></path><path d="M646.147 696.737L666.016 696.44L676.057 696.323L686.13 696.27H686.598V696.748L686.651 713.641V714.172H686.12L666.133 714.109C659.471 714.098 652.809 713.992 646.147 713.939H645.849V713.652L646.147 696.737ZM646.147 696.737L646.434 713.631L646.147 713.344C652.809 713.291 659.471 713.174 666.133 713.174L686.12 713.11L685.588 713.641L685.641 696.748L686.12 697.226L676.206 697.162L666.25 697.045L646.147 696.737Z" fill="#ECECEC"></path><path d="M1642.98 800.785H1317.41V853.016H1642.98V800.785Z" fill="#E6EBF0"></path><path d="M1642.98 853.005H1404.46V1310.86H1642.98V853.005Z" fill="#D7DCDC"></path><path d="M1489.64 99.1073H1546.83V74.9468H1489.64V99.1073Z" fill="#E6EBF0"></path><path d="M1457.73 44.4781L1486.21 44.1806L1500.56 44.0637L1514.92 44H1515.39V44.4781L1515.44 68.6386V69.1698H1514.91L1486.32 69.1061L1457.72 68.9361H1457.43V68.6492L1457.73 44.4781ZM1457.73 44.4781L1458.02 68.6386L1457.73 68.3517L1486.33 68.1817L1514.92 68.118L1514.39 68.6492L1514.44 44.4887L1514.92 44.9668L1500.7 44.9137L1486.46 44.7969L1457.73 44.4781Z" fill="#ECECEC"></path><path d="M1421.49 83.8743L1449.97 83.5769L1464.31 83.46L1478.69 83.4069H1479.16V83.885L1479.21 108.045V108.577H1478.68L1450.08 108.513L1421.49 108.343H1421.19V108.056L1421.49 83.8743ZM1421.49 83.8743L1421.78 108.035L1421.49 107.748L1450.08 107.578L1478.68 107.514L1478.15 108.045L1478.2 83.885L1478.68 84.3631L1464.46 84.31L1450.21 84.1931L1421.49 83.8743Z" fill="#ECECEC"></path><path d="M1565.99 59.7564L1594.46 59.4589L1608.81 59.3421L1623.18 59.2889H1623.65V59.7671L1623.7 83.9276V84.4588H1623.17L1594.58 84.395L1565.99 84.225H1565.69V83.9382L1565.99 59.7564ZM1565.99 59.7564L1566.27 83.9169L1565.99 83.6301L1594.58 83.4601L1623.17 83.3963L1622.64 83.9276L1622.69 59.7671L1623.17 60.2452L1608.96 60.192L1594.7 60.0752L1565.99 59.7564Z" fill="#ECECEC"></path><path d="M440.244 674.41H485.189V655.424H440.244V674.41Z" fill="#E6EBF0"></path><path d="M374.595 659.552H419.54V640.565H374.595V659.552Z" fill="#E6EBF0"></path><path d="M425.075 631.47L447.42 631.172L458.704 631.056L470.02 631.002H470.488V631.481L470.541 650.467V650.998H470.01L447.537 650.934C440.046 650.924 432.555 650.817 425.064 650.764H424.767V650.477L425.075 631.47ZM425.075 631.47L425.362 650.456L425.075 650.169C432.566 650.116 440.057 649.999 447.548 649.999L470.02 649.936L469.489 650.467L469.542 631.481L470.02 631.959L458.864 631.906L447.675 631.789L425.075 631.47Z" fill="#ECECEC"></path><path d="M389.161 664.906L411.506 664.608L422.791 664.491L434.107 664.438H434.574V664.916L434.627 683.903V684.434H434.096L411.623 684.37C404.132 684.359 396.641 684.253 389.151 684.2H388.853V683.913L389.161 664.906ZM389.161 664.906L389.448 683.892L389.161 683.605C396.652 683.552 404.143 683.435 411.634 683.435L434.107 683.371L433.575 683.903L433.628 664.916L434.107 665.394L422.95 665.341L411.761 665.224L389.161 664.906Z" fill="#ECECEC"></path><path d="M266.142 235.818H313.223V215.918H266.142V235.818Z" fill="#E6EBF0"></path><path d="M263.545 183.916H310.626V164.016H263.545V183.916Z" fill="#E6EBF0"></path><path d="M239.864 190.833L263.282 190.535L275.098 190.419L286.945 190.365H287.413V190.844L287.466 210.744V211.275H286.934L263.389 211.211C255.536 211.2 247.695 211.094 239.843 211.041H239.545V210.754L239.864 190.833ZM239.864 190.833L240.151 210.733L239.864 210.446C247.716 210.393 255.558 210.276 263.41 210.276L286.956 210.212L286.424 210.744L286.478 190.844L286.956 191.322L275.268 191.269L263.537 191.152L239.864 190.833Z" fill="#ECECEC"></path><path d="M1418.99 782.425L1407.93 784.497L1390.85 704.366L1405.94 701.54L1418.99 782.425Z" fill="#D7DCDC"></path><path d="M1405.94 701.54L1390.85 704.366L1384.99 684.285L1404.12 680.705L1405.94 701.54Z" fill="#E6EBF0"></path><path d="M1408.6 656.448C1410.05 661.378 1404.13 680.715 1404.13 680.715L1385 684.296C1385 684.296 1372.49 668.412 1372.05 663.291C1371.62 658.159 1375.38 656.066 1389.14 653.495C1402.89 650.913 1407.15 651.497 1408.6 656.448Z" fill="#D7DCDC"></path><path d="M1439.76 787.217L1432.64 786.537L1438.39 704.812L1449.59 705.874L1439.76 787.217Z" fill="#D7DCDC"></path><path d="M1449.59 705.875L1438.39 704.812L1438.32 683.892L1453.6 685.348L1449.59 705.875Z" fill="#E6EBF0"></path><path d="M1438.32 683.892L1436.36 662.685L1459.61 660.815L1453.6 685.348L1438.32 683.892Z" fill="#D7DCDC"></path><path d="M1424.36 764.204H1417.22L1415.17 682.298H1426.41L1424.36 764.204Z" fill="#D7DCDC"></path><path d="M1426.41 682.298H1415.17L1413.11 661.485H1428.47L1426.41 682.298Z" fill="#E6EBF0"></path><path d="M1428.46 661.495H1413.11C1411.94 649.532 1415.1 638.886 1420.78 638.886C1426.47 638.875 1429.65 649.532 1428.46 661.495Z" fill="#D7DCDC"></path><path d="M1449.94 726.157H1392.95V802.601H1449.94V726.157Z" fill="#E6EBF0"></path><path d="M1527.91 779.449C1543.39 763.969 1543.39 738.87 1527.91 723.389C1512.42 707.909 1487.32 707.909 1471.84 723.389C1456.36 738.87 1456.36 763.969 1471.84 779.449C1487.32 794.93 1512.42 794.93 1527.91 779.449Z" fill="#D7DCDC"></path><path d="M1530.76 751.412C1530.76 768.465 1516.94 782.287 1499.89 782.287C1482.83 782.287 1469.01 768.465 1469.01 751.412C1469.01 734.359 1482.83 720.537 1499.89 720.537C1516.94 720.537 1530.76 734.359 1530.76 751.412Z" fill="white"></path><path d="M1539.53 788.481H1459.3V802.602H1539.53V788.481Z" fill="#E6EBF0"></path><path d="M1530.77 751.412C1530.77 755.354 1530.04 759.136 1528.68 762.6L1511.08 780.194C1507.62 781.543 1503.84 782.287 1499.9 782.287C1497.03 782.287 1494.26 781.894 1491.64 781.15L1529.64 743.156C1530.37 745.781 1530.77 748.543 1530.77 751.412Z" fill="#E6EBF0"></path><path d="M1508.26 721.695L1470.17 759.784C1469.41 757.117 1469.01 754.312 1469.01 751.401C1469.01 747.523 1469.72 743.815 1471.04 740.394L1488.87 722.566C1492.29 721.248 1496.01 720.537 1499.9 720.537C1502.81 720.537 1505.61 720.94 1508.26 721.695Z" fill="#E6EBF0"></path><path d="M1522.33 730.216L1478.7 773.841C1477.36 772.608 1476.15 771.259 1475.08 769.782L1518.27 726.593C1519.72 727.687 1521.09 728.898 1522.33 730.216Z" fill="#E6EBF0"></path><path d="M1526.91 736.463L1484.95 778.42C1484.13 777.984 1483.35 777.506 1482.58 776.964L1525.45 734.094C1525.97 734.848 1526.45 735.645 1526.91 736.463Z" fill="#E6EBF0"></path><path d="M350.017 1039.11C352.015 1052.76 351.271 1066.84 347.935 1080.2C346.373 1086.46 344.227 1092.5 341.634 1098.37C338.361 1105.89 334.951 1113.23 335.769 1121.46C336.566 1121.99 333.835 1121.9 333.75 1121.11C311.766 1108.59 283.577 1106.3 266.651 1085.83C258.639 1076.14 254.591 1063.86 252.678 1051.58C250.596 1038.2 250.022 1023.39 253.475 1010.21C256.386 999.062 262.9 988.299 273.376 982.838C284.193 977.218 298.357 977.685 309.747 981.213C334.324 988.831 346.543 1015.34 350.017 1039.11Z" fill="#E6EBF0"></path><path d="M361.301 1201.83C358.305 1191.84 355.309 1181.84 352.227 1171.86C346.192 1152.32 339.923 1132.86 332.985 1113.62C328.83 1102.1 324.442 1090.69 319.831 1079.38C320.617 1072.29 320.925 1065.21 322.455 1058.14C324.293 1049.61 326.96 1041.38 329.447 1033.04C329.595 1032.53 328.767 1032.25 328.554 1032.74C323.613 1044.23 317.174 1058.93 317.015 1072.54C311.649 1059.76 305.911 1047.14 299.738 1034.73C299.387 1024.15 299.005 1013.88 300.705 1003.23C300.779 1002.75 300.057 1002.6 299.961 1003.08C298.314 1012.02 297.145 1021.62 297.815 1030.88C293.086 1021.55 288.114 1012.33 282.812 1003.26C282.334 1002.44 281.207 1003.28 281.622 1004.09C289.888 1019.99 297.549 1036.24 304.732 1052.7C294.776 1043.87 282.716 1037.18 270.263 1032.73C269.711 1032.54 269.307 1033.33 269.859 1033.56C284.023 1039.48 295.923 1047.85 307.144 1058.24C312.308 1070.29 317.238 1082.44 321.924 1094.68C308.164 1081.2 289.346 1072.33 271.134 1067.57C270.518 1067.41 270.348 1068.36 270.943 1068.54C292.013 1074.88 308.387 1086.82 324.41 1101.18C326.27 1106.13 328.097 1111.09 329.893 1116.05C336.682 1134.89 343.121 1153.85 349.284 1172.9C352.238 1182.03 355.149 1191.18 358.008 1200.35C361.078 1210.21 363.49 1220.62 367.485 1230.14C367.868 1231.05 369.504 1230.84 369.292 1229.75C367.507 1220.32 364.064 1211.04 361.301 1201.83Z" fill="#D7DCDC"></path><path d="M324.835 1019.85C320.893 1025.89 318.269 1032.52 316.919 1039.58C316.887 1039.77 317.164 1039.87 317.238 1039.69C319.693 1033.04 322.572 1026.62 325.823 1020.32C326.153 1019.7 325.207 1019.29 324.835 1019.85Z" fill="#D7DCDC"></path><path d="M285.617 1065.66C279.922 1062.42 272.378 1059.87 265.886 1059.02C265.705 1059 265.599 1059.25 265.779 1059.34C268.956 1060.65 272.282 1061.57 275.491 1062.81C278.71 1064.05 281.855 1065.55 285.117 1066.69C285.808 1066.92 286.265 1066.03 285.617 1065.66Z" fill="#D7DCDC"></path><path d="M424.14 1113.77C408.308 1118.46 392.391 1122.81 376.56 1127.45C375.189 1127.87 348.413 1076.58 358.093 1050.16C367.029 1025.7 387.504 1007.4 411.91 999.094C423.216 995.248 437.114 992.029 449.057 994.664C459.671 997.012 467.173 1005.7 470.626 1015.69C475.323 1029.27 473.761 1045.45 471.2 1059.31C468.82 1072.16 464.123 1084.82 455.623 1094.92C447.208 1104.91 436.476 1110.11 424.14 1113.77Z" fill="#D7DCDC"></path><path d="M447.091 1065.02C437.007 1070.1 426.796 1073.79 416.043 1077.24C409.318 1079.41 401.774 1081.35 395.324 1084.74C402.007 1069.83 409.349 1055.23 417.138 1040.77C427.37 1037.81 438.123 1033.2 445.837 1025.96C446.262 1025.57 445.72 1024.98 445.263 1025.29C436.827 1031.25 427.519 1034.84 418.19 1038.86C420.294 1034.97 422.419 1031.08 424.586 1027.21C425.192 1026.13 423.704 1025.06 422.982 1026.1C414.683 1038.08 407.214 1050.77 400.488 1063.88C398.82 1052.31 398.214 1041.04 398.862 1029.27C398.883 1028.97 398.448 1028.95 398.405 1029.24C396.45 1041.69 396.535 1054.86 398.798 1067.27C393.241 1078.35 388.184 1089.71 383.647 1101.21C381.84 1094.3 379.492 1087.5 377.93 1080.54C375.678 1070.52 374.615 1060.31 375.656 1050.06C375.688 1049.76 375.242 1049.74 375.199 1050.03C372.129 1068.2 374.934 1088.71 381.84 1105.98C379.195 1112.89 376.666 1119.84 374.36 1126.8C362.534 1162.43 355.245 1199.16 353.343 1236.65C353.301 1237.51 354.586 1237.61 354.682 1236.75C358.985 1199.96 366.582 1163.35 378.281 1128.18C382.871 1114.38 388.162 1100.97 393.953 1087.82C403.304 1085.06 412.622 1081.31 421.802 1078.13C430.77 1075.03 439.951 1071.44 447.473 1065.54C447.739 1065.33 447.42 1064.86 447.091 1065.02Z" fill="#E6EBF0"></path><path d="M461.86 1050.12C452.18 1053.57 443 1058.39 433.32 1061.89C432.863 1062.04 433.129 1062.77 433.586 1062.67C443.818 1060.56 453.976 1057.39 462.221 1050.69C462.54 1050.42 462.19 1050.01 461.86 1050.12Z" fill="#E6EBF0"></path><path d="M382.786 1029.24C382.903 1028.73 382.148 1028.43 382 1028.96C379.343 1037.88 377.516 1047.36 380.098 1056.48C380.204 1056.84 380.756 1056.85 380.778 1056.44C381.235 1047.23 380.725 1038.3 382.786 1029.24Z" fill="#E6EBF0"></path><path d="M422.801 1008.61C419.56 1012.76 418.392 1018.64 418.604 1023.8C418.615 1024.14 419.157 1024.34 419.252 1023.93C420.432 1018.82 422.408 1014.17 423.97 1009.22C424.193 1008.49 423.258 1008.03 422.801 1008.61Z" fill="#E6EBF0"></path><path d="M235.795 1136.39C240.438 1151.11 251.467 1171.48 268.935 1171.64C280.262 1171.74 291.663 1170.41 303.011 1170.25C315.166 1170.06 327.353 1170.09 339.477 1170.81C340.465 1170.86 338.021 1134.41 308.802 1116.67C300.62 1111.69 290.611 1110.12 281.324 1108.1C270.699 1105.8 259.755 1104.24 248.853 1104.72C242.148 1104.99 236.56 1106.41 234.179 1113.29C231.693 1120.48 233.574 1129.38 235.795 1136.39Z" fill="#D7DCDC"></path><path d="M248.364 1117.95C255.462 1119.78 262.624 1121.87 269.753 1124.14C267.851 1122.16 265.992 1120.16 263.867 1118.4C260.807 1115.86 257.438 1113.82 254.155 1111.6C253.879 1111.41 254.049 1110.89 254.4 1111.02C260.881 1113.57 267.618 1118.89 271.623 1124.73C280.506 1127.6 289.293 1130.77 297.762 1134.24C303.765 1136.7 309.312 1139.65 314.497 1143.05C312.637 1139.45 310.937 1135.74 308.44 1132.51C304.562 1127.48 299.313 1124.69 294.245 1121.12C293.767 1120.78 294.17 1120.11 294.702 1120.34C306.166 1125.43 313.137 1133.71 317.483 1145.05C323.475 1149.32 328.958 1154.31 334.058 1160.09C353.386 1182.04 368.612 1211.26 368.665 1241.06C368.665 1241.77 367.528 1241.97 367.39 1241.23C361.907 1211.62 350.209 1185.04 330.53 1162.06C329.149 1160.44 327.725 1158.9 326.28 1157.41C320.968 1156.86 315.697 1156.15 310.31 1156.22C304.095 1156.32 297.921 1157.14 291.727 1157.64C281.526 1158.46 270.253 1158.58 261.051 1153.45C260.647 1153.23 260.924 1152.51 261.37 1152.68C281.877 1160.14 303.393 1150.69 323.943 1155.13C315.177 1146.71 305.21 1140.38 293.629 1135.58C293.002 1135.32 292.375 1135.08 291.737 1134.82C278.572 1136.41 264.685 1139.84 251.86 1135.56C251.478 1135.43 251.637 1134.86 252.03 1134.95C264.419 1138.04 276.299 1134.15 288.518 1133.54C275.204 1128.35 261.646 1124.23 248.29 1119.09C247.174 1118.66 247.153 1117.64 248.364 1117.95Z" fill="#E6EBF0"></path><path d="M242.563 1130.91C248.991 1131.98 255.26 1132.01 261.72 1132.37C261.869 1132.38 261.912 1132.6 261.752 1132.64C255.452 1134.05 248.566 1133.18 242.425 1131.4C242.106 1131.31 242.244 1130.86 242.563 1130.91Z" fill="#E6EBF0"></path><path d="M285.829 1118.27C289.325 1119.48 292.577 1122.45 295.307 1124.86C295.637 1125.16 295.19 1125.75 294.829 1125.49C293.225 1124.32 291.567 1123.21 289.899 1122.14C288.38 1121.15 286.679 1120.37 285.277 1119.22C284.841 1118.87 285.309 1118.09 285.829 1118.27Z" fill="#E6EBF0"></path><path d="M388.981 1165.71C388.768 1166.19 389.459 1166.65 389.735 1166.14C389.767 1166.14 389.767 1166.14 389.767 1166.1C389.873 1166.24 390.011 1166.37 390.224 1166.4C402.029 1168.95 413.887 1171.55 425.914 1172.63C435.573 1173.49 446.708 1174.02 455.166 1168.42C466.62 1160.82 474.164 1140.52 467.97 1127.61C460.649 1112.29 438.559 1120.61 427.476 1126.06C410.423 1134.37 396.737 1148.42 388.981 1165.71Z" fill="#E6EBF0"></path><path d="M380.417 1172.79C386.919 1166.43 394.102 1161.13 401.731 1156.56C406.959 1147.69 414.97 1140.33 423.343 1134.54C423.758 1134.25 424.119 1134.91 423.736 1135.21C416.522 1140.76 410.89 1147.28 405.524 1154.36C414.046 1149.6 423.067 1145.69 432.258 1142.2C435.456 1136.32 440.673 1130.83 446.623 1127.81C446.74 1127.75 446.889 1127.92 446.772 1128.01C441.587 1132.07 437.422 1136.29 433.799 1141.62C439.228 1139.59 444.721 1137.7 450.204 1135.89C450.704 1135.73 450.884 1136.47 450.417 1136.65C440.652 1140.47 430.675 1144.49 421.006 1149.13C433.214 1150.76 444.211 1151.14 456.622 1149.02C456.951 1148.97 457.089 1149.43 456.76 1149.53C444.775 1152.95 431.047 1153.58 418.966 1150.09C412.792 1153.12 406.778 1156.43 401.041 1160.13C405.843 1159.51 410.667 1160.36 415.534 1161.32C424.013 1163.01 432.311 1164.5 440.992 1164.2C441.311 1164.19 441.406 1164.72 441.066 1164.78C426.297 1167.31 412.325 1160.6 397.694 1162.35C392.275 1166.08 387.143 1170.19 382.446 1174.8C373.245 1183.84 365.881 1194.63 360.207 1206.18C354.044 1218.72 350.697 1232.02 345.725 1244.97C345.502 1245.54 344.715 1245.32 344.811 1244.72C349.072 1219.18 361.801 1191.01 380.417 1172.79Z" fill="#D7DCDC"></path><path d="M424.958 1137.75C425.819 1135.98 427.328 1134.48 428.741 1133.16C429.973 1132 431.493 1130.5 433.097 1129.89C433.246 1129.84 433.331 1130.04 433.235 1130.14C432.024 1131.51 430.335 1132.52 429.028 1133.84C427.71 1135.16 426.626 1136.72 425.288 1138.01C425.118 1138.2 424.852 1137.97 424.958 1137.75Z" fill="#D7DCDC"></path><path d="M449.322 1145.68C451.511 1145.13 453.827 1145.17 456.059 1144.72C458.311 1144.26 460.404 1143.45 462.583 1142.76C462.87 1142.67 463.04 1143.09 462.785 1143.24C459.193 1145.37 453.519 1147.19 449.322 1146.36C448.972 1146.3 448.993 1145.77 449.322 1145.68Z" fill="#D7DCDC"></path><path d="M319.554 1213.25L321.488 1235.26L328.065 1309.59H386.292L394.506 1235.26L396.939 1213.25H319.554Z" fill="#E6EBF0"></path><path d="M319.554 1213.25L321.488 1235.26H394.506L396.939 1213.25H319.554Z" fill="#D7DCDC"></path><path d="M313.79 1225.1H402.703V1207.24H313.79V1225.1Z" fill="#D7DCDC"></path><path d="M892.124 296.888H857.167C856.03 296.888 855.116 295.964 855.116 294.838V273.057C855.116 271.92 856.041 271.007 857.167 271.007H892.124C893.261 271.007 894.175 271.931 894.175 273.057V294.838C894.175 295.964 893.251 296.888 892.124 296.888Z" fill="#D7DCDC"></path><path d="M880.192 249.279H869.089V271.007H880.192V249.279Z" fill="#E6EBF0"></path><path d="M855.106 294.838C855.106 295.975 856.03 296.888 857.156 296.888H892.114C893.251 296.888 894.165 295.964 894.165 294.838V282.641H855.095V294.838H855.106Z" fill="#E6EBF0"></path><path d="M880.181 249.279H874.635V271.007H880.181V249.279Z" fill="#D7DCDC"></path><path d="M917.423 249.332C914.289 249.343 908.466 249.279 908.466 249.279L914.958 293.425H917.402H919.357H921.801L928.293 249.279C928.293 249.279 922.471 249.343 919.336 249.332" fill="#FFF000"></path><path d="M919.347 249.332C922.481 249.343 928.304 249.279 928.304 249.279L921.812 293.425H919.368H917.413H914.969L908.477 249.279C908.477 249.279 914.3 249.343 917.434 249.332H919.347Z" fill="#E6EBF0"></path><path d="M921.759 293.425H914.852V297.643H921.759V293.425Z" fill="#E6EBF0"></path><path d="M908.466 249.279L908.891 252.116H927.932L928.293 249.279H908.466Z" fill="#D7DCDC"></path><path d="M922.003 267.787C921.483 264.377 920.133 261.944 918.539 261.944C916.945 261.944 915.596 264.377 915.075 267.787H911.187L912.09 273.928H915.075C915.596 277.339 916.945 279.772 918.539 279.772C920.133 279.772 921.483 277.339 922.003 273.928H924.67L925.573 267.787H922.003Z" fill="#D7DCDC"></path><path d="M843.067 244.636C840.528 248.174 836.054 249.162 832.973 249.396H829.647C822.858 249.396 819.84 251.415 818.501 253.359C819.117 253.359 819.691 253.359 820.148 253.359C823.06 250.278 829.637 250.703 829.637 250.703V255.027H836.915V250.639C842.079 249.927 843.057 247.399 843.057 247.399C843.057 247.399 843.301 244.562 843.067 244.636Z" fill="#E6EBF0"></path><path d="M843.067 244.636C840.602 248.057 836.341 249.088 833.281 249.375V255.038H836.915V250.65C842.079 249.938 843.057 247.409 843.057 247.409C843.057 247.409 843.301 244.562 843.067 244.636Z" fill="#D7DCDC"></path><path d="M837.765 297.271H828.818C825.854 297.271 823.453 294.87 823.453 291.905V264.09C823.453 261.126 825.854 258.725 828.818 258.725H837.765C840.729 258.725 843.131 261.126 843.131 264.09V291.905C843.12 294.87 840.719 297.271 837.765 297.271Z" fill="#E6EBF0"></path><path d="M838.562 255.027H827.82V258.735H838.562V255.027Z" fill="#E6EBF0"></path><path d="M837.574 276.521H828.872V277.275H837.574V276.521Z" fill="#BABCBE"></path><path d="M837.574 277.626H828.872V278.38H837.574V277.626Z" fill="#BABCBE"></path><path d="M837.574 278.72H828.872V279.475H837.574V278.72Z" fill="#BABCBE"></path><path d="M837.574 279.496H828.872V280.909H837.574V279.496Z" fill="#D7DCDC"></path><path d="M837.574 280.919H828.872V281.674H837.574V280.919Z" fill="#BABCBE"></path><path d="M837.574 282.014H828.872V282.768H837.574V282.014Z" fill="#BABCBE"></path><path d="M837.574 283.108H828.872V283.862H837.574V283.108Z" fill="#BABCBE"></path><path d="M838.573 255.027H833.292V258.735H838.573V255.027Z" fill="#D7DCDC"></path><path d="M882.71 217.724C882.668 217.012 882.7 174.524 882.71 161.519H883.847C883.837 180.399 883.815 216.396 883.847 217.522L883.486 217.554L882.71 217.724Z" fill="#D7DCDC"></path><path d="M888.48 209.267H877.844V235.69H888.48V209.267Z" fill="#D7DCDC"></path><path opacity="0.1" d="M888.48 209.267H883.167V235.69H888.48V209.267Z" fill="#D7DCDC"></path><path d="M905.534 196.57H895.365V235.733H905.534V196.57Z" fill="#D7DCDC"></path><path d="M902.93 181.961L901.453 180.484C900.89 179.921 899.987 179.921 899.424 180.484L897.947 181.961C897.256 182.652 896.863 183.587 896.863 184.575V196.57H900.433H904.004V184.575C904.014 183.597 903.632 182.652 902.93 181.961Z" fill="#D7DCDC"></path><path d="M905.534 196.57H900.444V235.733H905.534V196.57Z" fill="#D7DCDC"></path><path d="M902.93 181.961L901.454 180.484C901.177 180.208 900.805 180.059 900.444 180.059V196.56H904.014V184.564C904.014 183.597 903.632 182.652 902.93 181.961Z" fill="#D7DCDC"></path><path d="M871.575 159.703H860.939V235.733H871.575V159.703Z" fill="#E6EBF0"></path><path d="M871.575 159.703H866.252V234.787H871.575V159.703Z" fill="#D7DCDC"></path><path d="M849.506 234.777H831.868C829.924 234.777 828.351 233.204 828.351 231.26V183.449C828.351 181.504 829.924 179.932 831.868 179.932H849.506C851.451 179.932 853.023 181.504 853.023 183.449V231.26C853.023 233.204 851.451 234.777 849.506 234.777Z" fill="#E6EBF0"></path><path d="M846.032 179.932H835.353V174.173C835.353 171.453 837.563 169.244 840.283 169.244H841.112C843.832 169.244 846.042 171.453 846.042 174.173V179.932H846.032Z" fill="#D7DCDC"></path><path opacity="0.1" d="M841.101 169.254H840.687V179.932H846.032V174.173C846.032 171.464 843.822 169.254 841.101 169.254Z" fill="#D7DCDC"></path><path d="M848.019 191.109H833.356V222.633H848.019V191.109Z" fill="#D7DCDC"></path><path d="M934.785 235.722H920.59C916.032 235.722 912.323 232.025 912.323 227.456V214.951H943.052V227.456C943.041 232.025 939.344 235.722 934.785 235.722Z" fill="#D7DCDC"></path><path d="M914.374 214.962V213.123C914.374 211.508 915.681 210.202 917.296 210.202H919.783C919.783 210.202 919.783 210.127 919.783 210.117C919.783 208.64 920.409 207.195 921.504 206.196C922.673 205.112 923.916 204.996 925.393 204.762C924.84 203.349 926.115 201.574 927.316 200.852C929.25 199.694 935.179 197.941 933.202 194.509C933.096 194.073 937.75 199.481 933.532 205.219C933.511 205.229 933.532 205.24 933.585 205.24C936.305 205.58 938.398 207.8 938.398 210.542V210.627C940.013 210.627 941.32 211.933 941.32 213.548V214.951H914.374V214.962Z" fill="#D7DCDC"></path><path d="M959.755 236.668H815.77C814.931 236.668 814.251 236.094 814.251 235.393C814.251 234.692 814.931 234.118 815.77 234.118H959.755C960.594 234.118 961.274 234.692 961.274 235.393C961.274 236.105 960.594 236.668 959.755 236.668Z" fill="#E1E1E1"></path><path d="M955.919 298.588H811.935C811.095 298.588 810.415 298.015 810.415 297.313C810.415 296.612 811.095 296.038 811.935 296.038H955.919C956.759 296.038 957.439 296.612 957.439 297.313C957.439 298.015 956.759 298.588 955.919 298.588Z" fill="#E1E1E1"></path><path d="M871.766 1267.61C869.078 1268.84 866.06 1269.84 863.096 1270.5C861.885 1270.78 860.673 1270.99 859.505 1271.14C858.038 1271.33 856.561 1271.68 855.063 1272.16L855.031 1272.17C853.395 1272.69 851.737 1273.38 850.059 1274.2C848.242 1275.08 846.393 1276.12 844.502 1277.27C842.536 1278.46 840.538 1279.78 838.498 1281.18C837.223 1282.05 835.937 1282.95 834.62 1283.88C831.57 1286.02 828.415 1288.29 825.142 1290.53C824.983 1290.64 824.823 1290.74 824.664 1290.84C811.403 1299.15 778.497 1290.16 781.621 1283.9C782.067 1283 789.972 1279.18 799.896 1272.65C803.254 1270.44 806.845 1267.92 810.458 1265.09C811.956 1263.92 813.454 1262.7 814.952 1261.43C816.334 1260.25 817.704 1259.03 819.054 1257.75C820.212 1256.66 821.359 1255.54 822.486 1254.38L822.581 1254.29C823.676 1253.16 824.738 1252.01 825.78 1250.82L825.79 1250.81C830.582 1245.34 834.758 1239.23 837.637 1232.5C837.85 1232.01 838.052 1231.52 838.243 1231.03C837.956 1230.13 837.914 1228.3 838.052 1225.84C838.849 1211.57 845.723 1175.94 845.723 1175.94H879.395L867.197 1223.65L866.305 1227.12C866.305 1227.12 866.889 1228.27 867.835 1230.12C871.192 1236.71 879.034 1252.31 880.766 1257.22C882.105 1261.05 877.738 1264.89 871.766 1267.61Z" fill="#FAC89B"></path><path d="M872.021 1267.51C871.989 1267.68 871.936 1267.85 871.872 1267.99C869.184 1269.23 866.167 1270.23 863.202 1270.88L863.075 1270.49C864.137 1256.24 862.99 1243.51 858.761 1232.93L837.637 1232.48C837.85 1231.99 838.052 1231.5 838.243 1231.01C837.956 1230.11 837.914 1228.28 838.052 1225.81L838.243 1224.08L867.187 1223.63L866.294 1227.1C866.294 1227.1 866.879 1228.25 867.824 1230.1L862.724 1231.06C868.515 1239.81 870.746 1253.34 872.021 1267.51Z" fill="#322D41"></path><path d="M834.96 1284.4C831.911 1286.54 828.755 1288.81 825.482 1291.05C825.323 1291.16 825.163 1291.26 825.004 1291.36C817.641 1284.06 809.002 1277.09 799.673 1272.52C803.031 1270.31 806.622 1267.79 810.235 1264.97C824.93 1269.13 832.962 1276.23 834.96 1284.4Z" fill="#322D41"></path><path d="M819.064 1257.74C830.763 1262.61 840.984 1268.22 844.501 1277.27L838.498 1281.18C835.48 1273.46 825.333 1267.41 814.963 1261.42L819.064 1257.74Z" fill="#322D41"></path><path d="M825.79 1250.79C839.136 1252.78 849.007 1259.73 855.053 1272.16L850.059 1274.2C844.65 1263.22 835.002 1257.14 822.496 1254.36L825.79 1250.79Z" fill="#322D41"></path><path d="M1023.24 1181.99C1023.24 1181.99 1026.71 1254.77 1024.69 1270.95C1022.67 1287.12 1015.06 1293.43 1030.47 1299.85C1047.55 1306.95 1070.32 1302.8 1070.32 1293.84C1070.32 1284.89 1059.93 1235.43 1057.33 1223.87C1054.72 1212.32 1052.71 1183.72 1052.71 1183.72L1023.24 1181.99Z" fill="#FAC89B"></path><path d="M1023.26 1204.82L1023.53 1212.51C1023.56 1213.55 1024.48 1214.33 1025.52 1214.2L1054.48 1210.51C1055.8 1210.34 1056.69 1209.1 1056.45 1207.81L1055.31 1201.84C1055.16 1201.06 1054.44 1200.51 1053.63 1200.57L1024.88 1203C1023.94 1203.08 1023.23 1203.87 1023.26 1204.82Z" fill="#322D41"></path><path d="M1024.9 1244.53L1024.95 1252.62C1037.3 1244.31 1050.35 1243.38 1063.07 1249.78L1061.3 1241.41C1048.93 1237.06 1036.46 1238.3 1024.9 1244.53Z" fill="#322D41"></path><path d="M1024.5 1256.21L1024.56 1264.3C1037.79 1255.99 1052.16 1255.24 1065.79 1261.64L1063.89 1253.27C1050.63 1248.92 1036.87 1249.97 1024.5 1256.21Z" fill="#322D41"></path><path d="M1024.16 1269.1L1020.8 1284.31C1037.75 1280.9 1054.93 1280.68 1069.97 1283.07L1066.66 1265.27C1047.03 1263.06 1037.93 1263.92 1024.16 1269.1Z" fill="#322D41"></path><path d="M849.697 516.012L850.686 530.525L851.164 516.15L852.29 516.256L851.674 530.822L852.301 531.099L853.607 516.383L854.564 516.479L853.384 531.099L854.256 531.077L855.478 516.564L855.648 516.585L855.201 531.704L856.147 531.694L857.231 516.745L858.463 516.862L857.348 531.917L858.495 532.023L859.717 516.978L859.908 517L859.611 531.811L860.918 517.095L861.97 517.202L860.822 532.034L862.83 517.276L863.064 517.297L861.97 532.14L863.914 517.382L864.785 517.467L863.925 532.331L865.699 517.552L865.933 517.573L865.072 532.437L866.794 517.658L867.845 517.765L866.305 532.459L868.855 517.86L869.046 517.882L867.357 532.873L868.504 532.979L870.3 517.998L871.533 518.115L869.737 532.99L870.661 533.181L873.126 518.264L873.296 518.285L871.713 532.767L872.563 532.958L874.21 518.381L875.166 518.477L873.626 533.17L874.295 533.022L876.484 518.604L877.61 518.71L875.315 532.905L879.077 518.848L879.268 518.87L876.038 535.572C875.687 537.388 874.476 538.653 873.211 538.525L869.716 538.185C867.952 538.015 866.294 539.843 865.901 542.382L856.498 608.212C856.253 609.806 854.638 609.647 854.702 608.043L858.113 541.628C858.208 539.057 856.933 536.953 855.18 536.783L851.684 536.443C850.409 536.315 849.464 534.849 849.474 533L849.517 515.99L849.697 516.012Z" fill="#322D41"></path><path d="M1160.44 767.444C1160.88 766.998 1177.33 768.231 1173.05 772.959C1168.77 777.687 1159.76 776.9 1159.76 776.9L1160.44 767.444Z" fill="#FAC89B"></path><path d="M1113.41 744.187C1113.41 744.187 1136.49 732.946 1146.94 738.928C1157.4 744.91 1150.12 746.514 1147.61 747.47C1145.1 748.426 1120.52 745.972 1117.5 747.47C1114.49 748.968 1113.41 744.187 1113.41 744.187Z" fill="#FAC89B"></path><path d="M847.052 648.193L842.366 638.557C842.366 638.557 826.821 612.579 827.49 610.252C827.639 609.742 830.04 607.979 828.702 606.821C826.746 605.142 830.423 604.483 830.922 600.903C831.135 599.383 830.561 596.642 833.058 595.293C835.98 593.72 835.141 589.853 835.141 589.853C835.141 589.853 834.004 572.652 838.052 572.014C842.111 571.377 858.495 579.792 859.09 584.137C859.685 588.493 855.669 584.732 855.669 584.732C855.669 584.732 862.257 594.029 862.214 596.185C862.171 598.342 866.581 608.701 868.632 610.614C870.682 612.526 871.479 627.262 871.479 627.262L859.026 647.704L847.052 648.193Z" fill="#FAC89B"></path><path d="M931.927 556.778C931.927 556.778 918.826 551.2 922.885 543.678C926.944 536.156 935.561 528.219 934.626 524.161C933.702 520.102 930.567 515.204 938.6 509.796C946.622 504.388 945.103 495.262 946.378 489.854C947.642 484.446 939.705 472.705 946.888 469.242C954.071 465.778 949.512 446.941 957.619 440.513C965.727 434.095 974.769 420.485 986.691 415.332C998.602 410.179 1010.94 404.516 1022.26 411.189C1033.59 417.861 1045.93 437.166 1047.82 447.057C1049.72 456.938 1056.18 456.439 1054.92 460.742C1053.65 465.056 1057.2 469.486 1054.15 472.652C1051.11 475.818 1044.77 475.436 1046.04 483.426C1047.31 491.405 1053.27 485.37 1054.28 508.861C1055.29 532.352 1044.48 488.589 1044.14 514.439C1043.8 540.289 1071.18 559.721 1058 564.959C1044.81 570.197 1013.3 569.985 1002.04 586.336C990.771 602.698 931.927 556.778 931.927 556.778Z" fill="#7D501E"></path><path d="M963.336 497.801C963.336 497.801 961.583 498.98 962.093 508.277C962.603 517.573 956.004 530.663 951.106 540.3C946.208 549.936 931.502 553.984 931.502 553.984C931.502 553.984 987.859 594.369 987.859 595.049C987.859 595.729 1016.91 557.958 1016.91 557.958L1011.01 544.645" fill="#FAC89B"></path><path d="M999.186 451.414C999.186 451.414 1005.43 446.856 1023.86 454.452C1042.28 462.06 1040.59 458.171 1043.46 462.23C1046.33 466.288 1045.83 472.365 1043.46 484.701C1041.09 497.036 1038.84 494.05 1039.13 499.575C1039.41 505.1 1036.14 518.498 1033.33 519.688C1030.51 520.878 1024.31 534.722 1019.86 538.047C1015.41 541.373 1010.23 546.951 1006.74 547.514C1003.26 548.077 993.841 550.106 983.928 539.97C974.014 529.834 967.968 531.864 965.95 518.296C963.92 504.739 964.43 499.915 964.43 499.915C944.029 489.397 950.362 450.064 968.489 476.977C968.489 476.977 989.782 459.743 992.949 456.705C996.094 453.655 999.186 451.414 999.186 451.414Z" fill="#FAC89B"></path><path d="M924.617 549.469C924.617 549.469 938.43 555.174 945.783 561.889C953.135 568.604 956.684 563.663 960.361 567.594C964.037 571.526 982.291 584.955 982.291 584.955C982.291 584.955 996.359 563.791 1002.32 559.732C1008.28 555.674 1012.14 546.844 1012.39 547.737C1012.65 548.619 1029.19 565.948 1037.81 567.212C1046.43 568.476 1061.76 571.642 1067.46 576.593C1073.17 581.534 1082.43 584.073 1083.94 608.404C1085.46 632.734 1084.87 670.08 1085.38 673.119C1085.89 676.157 1083.81 695.25 1084.87 698.235C1085.94 701.221 1090.45 719.697 1090.39 722.003C1090.34 724.308 1090.51 726.114 1096.93 727.751C1103.35 729.387 1107.8 731.469 1110.22 734.625C1112.64 737.78 1112.47 738.29 1118.39 736.601C1124.31 734.912 1127.6 735.751 1128.7 736.261C1129.79 736.771 1134.79 737.749 1134.79 737.749C1134.79 737.749 1130.39 737.578 1129.06 739.693C1127.52 742.136 1117.65 788.481 1117.65 788.481C1117.65 788.481 1114.86 789.246 1108.27 787.344C1101.68 785.443 1100.79 788.354 1095.59 785.698C1090.39 783.041 928.145 756.968 928.145 756.968L912.493 701.168L905.226 650.477C905.226 650.477 915.192 716.712 910.974 730.736C906.745 744.761 900.922 779.482 885.707 765.798C870.491 752.113 861.885 739.183 857.826 730.056C853.767 720.93 849.719 711.304 850.728 707.245C851.737 703.186 849.294 688.663 849.294 688.663C849.294 688.663 840.719 683.68 841.601 678.484C842.483 673.289 840.708 635.784 840.708 635.784C850.962 638.61 860.971 634.923 870.746 625.382L865.805 605.482C865.805 605.482 869.099 581.778 875.315 576.211C881.52 570.633 887.354 567.084 892.932 566.075C898.51 565.066 903.069 565.693 905.098 564.173C907.128 562.654 905.906 561.761 909.731 561.591C913.556 561.421 912.663 563.621 915.362 559.339C918.061 555.057 918.231 551.849 920.377 550.776C922.524 549.702 924.617 549.469 924.617 549.469Z" fill="#322D41"></path><path d="M883.762 998.393C883.762 998.393 946.622 1006.17 991.238 1003.12C1035.85 1000.08 1092.97 995.344 1107.5 991.296C1122.04 987.237 1123.39 985.888 1115.61 950.401C1107.83 914.915 1109.19 861.186 1102.42 826.369C1095.65 791.552 1078.09 759.455 1079.44 735.124C1080.29 719.729 1083.32 700.828 1085.42 689.013C1086.75 681.555 1085.61 673.862 1082.16 667.116L1040.92 586.432C1040.92 586.432 1032.73 595.219 1027.15 591.797C1021.57 588.376 1014.86 583.691 1006.24 582.161C997.624 580.642 953.263 590.023 953.263 590.023C953.263 590.023 948.322 597.63 938.302 596.111C928.293 594.592 926.391 594.847 926.391 594.847C926.391 594.847 913.843 643.136 919.166 678.367C924.49 713.599 928.421 756.097 926.519 757.957C924.617 759.816 928.772 766.467 928.772 766.467C928.772 766.467 919.166 800.54 919.421 809.04C919.676 817.529 908.605 859.858 904.046 871.683C899.488 883.508 894.08 913.417 892.56 923.223C891.041 933.019 888.501 950.933 888.501 950.933C888.501 950.933 883.773 969.186 883.773 977.122C883.762 985.048 883.762 998.393 883.762 998.393Z" fill="#BE282D"></path><path d="M952.37 769.601L954.145 863.64C954.145 863.64 1022.07 860.092 1036.02 858.062C1049.96 856.033 1094.33 846.651 1094.33 846.651L1078.1 758.19C1041.7 777.495 982.493 779.365 952.37 769.601Z" fill="#322D41"></path><path d="M926.391 594.836C926.391 594.836 933.787 557.023 935.423 555.174C937.059 553.325 940.151 549.649 940.151 549.649L948.205 544.39C948.205 544.39 943.19 566.946 942.234 571.844C941.277 576.742 938.568 596.143 938.568 596.143L926.391 594.836Z" fill="#BE282D"></path><path d="M1041.05 586.666L1027.13 561.73L1013.8 549.448L1022.24 570.038L1034.7 591.606L1041.05 586.666Z" fill="#BE282D"></path><path d="M1172.96 751.22C1172.96 751.22 1168.17 755.959 1167.5 762.886C1166.83 769.814 1164.55 776.911 1165.26 778.898C1165.97 780.885 1167.7 782.329 1165.12 784.019C1162.54 785.708 1150.27 790.266 1137.87 791.116C1130.24 791.637 1123.89 791.042 1120.13 790.51C1118.18 790.234 1116.68 788.609 1116.6 786.632C1116.53 785.166 1116.29 783.424 1115.62 781.873C1114.1 778.377 1103.26 762.1 1103.26 762.1L1172.96 751.22Z" fill="#E6EBF0"></path><path d="M1015.26 1001.4C1015.26 1001.4 1019.8 1035.1 1019.8 1041.18C1019.8 1047.27 1022.34 1077.17 1021.45 1080.97C1020.55 1084.76 1018.86 1116.45 1018.45 1127.23C1018.02 1138 1017.64 1158.03 1017.4 1164.49C1017.14 1170.95 1016.94 1180.71 1015.26 1184.89C1013.59 1189.07 1013.59 1189.07 1013.59 1189.07C1027.24 1197.87 1042.13 1202.04 1060.24 1194.4C1060.24 1194.4 1061.21 1170.58 1063.92 1164.83C1066.61 1159.08 1077.26 1116 1076.76 1108.22C1076.25 1100.44 1079.8 1085.24 1078.62 1073.75C1077.44 1062.27 1074.9 1038.1 1075.92 1027.96C1076.93 1017.83 1080.8 995.492 1080.8 995.492L1015.26 1001.4Z" fill="#322D41"></path><path d="M958.703 1003.83C958.703 1003.83 932.852 1059.57 928.793 1067.42C924.734 1075.28 924.734 1068.94 919.155 1095.05C913.577 1121.15 898.627 1154.1 891.019 1170.07C883.412 1186.04 875.049 1209.61 875.049 1209.61C873.689 1211.43 871.989 1212.15 869.556 1210.54L870.236 1194.31L861.449 1210.11C847.434 1210.8 835.268 1209.33 831.198 1198.39C831.198 1198.39 850.462 1105.18 856.041 1088.7C861.619 1072.22 869.471 1062.6 875.049 1046.63C880.628 1030.66 887.513 998.828 887.513 998.828L958.703 1003.83Z" fill="#322D41"></path><path d="M1138.09 760.618C1160.09 757.317 1177.41 751.249 1176.79 747.065C1176.16 742.882 1157.81 742.166 1135.81 745.467C1113.82 748.768 1096.49 754.836 1097.12 759.02C1097.75 763.204 1116.09 763.919 1138.09 760.618Z" fill="#D7DCDC"></path><path d="M883.305 164.686C881.839 164.686 880.649 163.496 880.649 162.03V152.786C880.649 151.32 881.839 150.13 883.305 150.13C884.772 150.13 885.962 151.32 885.962 152.786V162.03C885.962 163.496 884.772 164.686 883.305 164.686Z" fill="#D7DCDC"></path><path d="M887.747 153.838H878.79V154.104H887.747V153.838Z" fill="#D7DCDC"></path><path d="M887.747 155.198H878.79V155.463H887.747V155.198Z" fill="#D7DCDC"></path><path d="M887.747 156.558H878.79V156.823H887.747V156.558Z" fill="#D7DCDC"></path><path d="M887.747 157.907H878.79V158.173H887.747V157.907Z" fill="#D7DCDC"></path><path d="M887.747 159.267H878.79V159.533H887.747V159.267Z" fill="#D7DCDC"></path><path d="M887.747 160.627H878.79V160.893H887.747V160.627Z" fill="#D7DCDC"></path><path d="M887.747 161.976H878.79V162.242H887.747V161.976Z" fill="#D7DCDC"></path><path d="M269.094 1310.88H1686" stroke="#D7DCDC" stroke-width="4" stroke-miterlimit="10"></path></g><defs><clipPath id="clip0_9_2905"><rect width="1453" height="1269" fill="white" transform="translate(233 44)"></rect></clipPath></defs></svg> 