<?xml version="1.0" encoding="UTF-8"?> <svg xmlns="http://www.w3.org/2000/svg" width="1920" height="1356" viewBox="0 0 1920 1356" fill="none"><g clip-path="url(#clip0_9_2396)"><path d="M484.024 411.358C484.024 411.358 504.653 440.494 511.72 449.76C518.787 459.026 554.313 516.535 559.184 554.65C559.661 558.758 560.234 562.197 560.712 565.254C545.431 666.132 547.819 850.693 548.392 882.217H596.811C597.288 846.585 601.395 520.929 602.923 510.994C604.546 500.486 624.793 460.364 656.021 443.933C687.25 427.502 714.277 372.955 714.277 372.955H704.345C704.345 372.955 685.913 406.39 659.555 424.827C655.735 427.502 651.819 429.699 647.713 431.801C648.668 401.709 637.303 372.955 637.303 372.955L631.955 377.923C639.213 407.632 638.258 426.738 636.062 437.628C627.276 442.022 618.107 447.181 608.844 455.778C581.626 420.337 566.251 339.234 566.251 339.234L559.279 343.055C559.279 343.055 561.571 365.122 568.256 392.825C573.318 413.841 588.407 453.295 595.378 471.254C588.407 480.902 581.531 493.417 574.75 509.943C573.986 508.797 573.127 507.65 572.076 506.791C554.313 490.742 520.888 414.892 520.888 414.892C512.77 397.219 525.185 350.984 525.185 350.984H515.922L511.72 391.488L488.226 365.886L483.929 369.421L508.759 401.423L521.556 441.927L488.131 404.957L484.024 411.358Z" fill="#E6EBF0"></path><path d="M666.431 1181.79L670.155 1248.86L709.119 1242.74L681.042 1181.79L671.301 1180.55" fill="#FAB4A5"></path><path d="M673.307 1262.23C669.582 1262.23 665.953 1260.99 663.088 1258.7C660.701 1256.78 659.459 1254.68 659.364 1252.39C659.173 1249.81 660.51 1246.95 663.279 1244.08C663.375 1243.22 664.234 1232.9 666.049 1230.99C665.858 1230.42 664.903 1226.79 666.526 1224.4C667.29 1223.25 668.436 1222.59 670.06 1222.49H670.155V1222.59C670.155 1222.68 674.835 1230.71 681.806 1231.37C685.817 1231.76 689.733 1229.75 693.648 1225.26C693.744 1224.97 696.704 1217.14 696.704 1217.14L733.568 1235.67L755.724 1241.79C760.021 1243.03 762.313 1248.47 758.493 1252.87C758.398 1253.06 758.207 1253.15 758.016 1253.25L740.73 1261.56C739.775 1262.04 738.629 1262.33 737.579 1262.33H673.307V1262.23Z" fill="#322D41"></path><path d="M302 1312.64L1463 1309.02" stroke="#D7DCE0" stroke-width="3" stroke-miterlimit="10"></path><path d="M727.074 494.754C727.074 494.754 722.299 485.201 717.524 482.049C712.749 478.896 700.047 477.272 698.423 480.425C696.8 483.577 695.272 482.049 690.497 480.425C685.722 478.801 674.644 482.049 673.02 485.201C671.397 488.354 666.622 486.825 665.094 486.825C663.47 486.825 649.241 491.602 649.241 497.907C649.241 504.211 649.241 508.988 646.089 510.612C642.938 512.236 642.938 515.388 642.938 518.541C642.938 521.693 642.938 524.941 639.786 526.47C636.634 528.093 633.387 531.246 636.634 534.398C639.882 537.551 643.033 539.175 641.41 543.951C639.786 548.728 638.258 550.352 638.258 550.352L646.185 553.504L641.41 559.904L662.038 563.057L728.697 515.388C728.697 515.388 738.247 507.459 735.096 504.307C731.944 501.154 731.944 501.154 731.944 501.154C731.944 501.154 739.871 498.002 735.096 496.378C730.225 494.754 727.074 494.754 727.074 494.754Z" fill="#322D41"></path><path d="M725.45 612.35L717.523 604.421C717.523 604.421 744.55 594.868 738.152 572.61C731.753 550.352 725.45 517.012 725.45 517.012C725.45 517.012 715.9 521.789 709.597 517.012C703.198 512.236 698.519 509.083 692.12 512.236C685.722 515.388 677.795 513.86 674.644 512.236C671.492 510.612 663.566 509.083 665.094 515.388C666.717 521.789 671.492 537.646 666.717 539.175C661.942 540.799 661.942 545.575 661.942 551.88C661.942 558.28 661.942 561.433 661.942 561.433C649.24 548.728 641.314 575.762 663.566 575.762L668.341 644.065L723.922 656.77L730.321 626.583L725.45 612.35Z" fill="#FAB4A5"></path><path d="M433.027 446.99C432.549 445.27 432.263 443.264 432.167 441.067C431.403 428.839 419.752 430.846 409.916 429.126C402.18 427.789 422.713 408.301 407.051 401.996C404.186 400.85 401.034 399.512 399.506 396.742C397.501 393.112 399.506 388.335 402.944 385.947C406.287 383.559 410.68 383.081 414.786 382.986C417.365 379.929 415.264 375.248 412.781 372.096C410.298 368.943 407.337 365.313 408.197 361.396C409.629 355.474 417.842 355.283 423.763 356.429C425.96 352.894 425.96 348.404 427.01 344.392C428.061 340.38 431.308 336.081 435.414 336.654C439.33 337.132 441.718 341.526 445.538 342.482C450.026 343.533 453.846 339.616 457.284 336.654C460.818 333.693 466.834 331.878 469.317 335.795C470.75 338.087 469.89 341.335 471.418 343.628C473.997 347.64 480.204 345.157 483.929 342.291C487.749 339.52 493.861 336.941 496.535 340.858C497.394 342.1 497.585 343.533 497.967 344.965C499.782 350.22 505.417 352.799 509.81 356.142C514.203 359.486 517.641 366.173 513.916 370.185C512.102 372.191 508.855 373.051 507.995 375.535C506.849 378.783 510.096 381.648 512.77 383.846C517.068 387.476 517.832 398.461 512.197 401.518C509.81 402.76 506.276 403.142 505.703 405.817C505.225 408.205 507.613 410.02 509.141 411.835C513.534 416.803 511.624 425.878 505.703 428.744C504.366 429.413 502.647 429.986 502.169 431.323C501.787 432.374 502.169 433.425 502.456 434.476C503.029 436.482 503.22 438.583 503.029 440.589C502.933 441.258 502.838 442.022 502.265 442.5C501.787 442.882 501.119 442.978 500.45 442.978C492.237 443.36 488.226 440.398 483.26 447.563C482.783 448.232 482.305 448.996 481.541 449.378C480.873 449.76 480.013 449.856 479.249 449.951C473.615 450.429 469.89 446.894 464.733 446.226C457.571 445.27 456.043 448.996 449.74 451.957C439.712 456.638 434.841 453.772 433.027 446.99Z" fill="#D7DCDC"></path><path d="M514.319 436.438C513.841 434.719 513.555 432.713 513.459 430.515C512.695 418.288 501.044 420.294 491.208 418.574C483.472 417.237 504.005 397.749 488.343 391.444C485.478 390.298 482.326 388.961 480.798 386.19C478.793 382.56 480.798 377.784 484.236 375.396C487.579 373.007 491.972 372.53 496.078 372.434C498.657 369.377 496.556 364.696 494.073 361.544C491.59 358.391 488.629 354.761 489.489 350.845C490.921 344.922 499.134 344.731 505.055 345.877C507.252 342.343 507.252 337.853 508.302 333.841C509.353 329.828 512.6 325.53 516.706 326.103C520.622 326.58 523.01 330.975 526.83 331.93C531.318 332.981 535.138 329.064 538.576 326.103C542.11 323.141 548.126 321.326 550.609 325.243C552.042 327.536 551.182 330.784 552.71 333.076C555.289 337.089 561.496 334.605 565.221 331.739C569.041 328.969 575.153 326.389 577.827 330.306C578.686 331.548 578.877 332.981 579.259 334.414C581.074 339.668 586.708 342.247 591.102 345.591C595.495 348.934 598.933 355.621 595.208 359.633C593.394 361.639 590.147 362.499 589.287 364.983C588.141 368.231 591.388 371.097 593.967 373.294C598.264 376.924 599.028 387.91 593.394 390.967C591.006 392.208 587.472 392.591 586.899 395.265C586.422 397.654 588.81 399.469 590.338 401.284C594.731 406.251 592.821 415.326 586.899 418.192C585.562 418.861 583.843 419.339 583.366 420.772C582.984 421.822 583.366 422.873 583.652 423.924C584.225 425.93 584.416 428.032 584.225 430.038C584.13 430.706 584.034 431.471 583.461 431.948C582.984 432.33 582.315 432.426 581.647 432.426C573.434 432.808 569.423 429.847 564.457 437.011C563.979 437.68 563.502 438.444 562.738 438.826C562.069 439.208 561.21 439.304 560.446 439.4C554.811 439.877 551.087 436.343 545.93 435.674C538.767 434.719 537.239 438.444 530.936 441.406C521.004 446.087 516.133 443.221 514.319 436.438Z" fill="#D7DCDC"></path><path d="M536.932 376.299C536.454 374.579 536.168 372.573 536.072 370.376C535.308 358.148 523.657 360.154 513.821 358.435C506.085 357.098 526.618 337.61 510.956 331.305C508.091 330.159 504.939 328.821 503.411 326.051C501.405 322.421 503.411 317.644 506.849 315.256C510.192 312.868 514.585 312.39 518.691 312.295C521.27 309.238 519.169 304.557 516.686 301.404C514.203 298.252 511.242 294.622 512.102 290.705C513.534 284.783 521.747 284.591 527.668 285.738C529.865 282.203 529.865 277.713 530.915 273.701C531.966 269.689 535.213 265.39 539.319 265.963C543.235 266.441 545.622 270.835 549.442 271.791C553.931 272.841 557.751 268.925 561.189 265.963C564.722 263.002 570.739 261.187 573.222 265.104C574.655 267.396 573.795 270.644 575.323 272.937C577.902 276.949 584.109 274.465 587.834 271.6C591.654 268.829 597.766 266.25 600.44 270.167C601.299 271.409 601.49 272.841 601.872 274.274C603.687 279.528 609.321 282.108 613.714 285.451C618.107 288.795 621.545 295.482 617.821 299.494C616.006 301.5 612.759 302.36 611.9 304.843C610.754 308.091 614.001 310.957 616.675 313.154C620.972 316.785 621.736 327.77 616.102 330.827C613.714 332.069 610.181 332.451 609.608 335.126C609.13 337.514 611.518 339.329 613.046 341.144C617.439 346.112 615.529 355.187 609.608 358.053C608.271 358.722 606.552 359.199 606.074 360.632C605.692 361.683 606.074 362.734 606.361 363.785C606.934 365.791 607.125 367.892 606.934 369.898C606.838 370.567 606.743 371.331 606.17 371.809C605.692 372.191 605.024 372.287 604.355 372.287C596.142 372.669 592.131 369.707 587.165 376.872C586.688 377.541 586.21 378.305 585.446 378.687C584.778 379.069 583.918 379.165 583.154 379.26C577.52 379.738 573.795 376.203 568.638 375.535C561.475 374.579 559.947 378.305 553.644 381.266C543.617 385.947 538.842 383.081 536.932 376.299Z" fill="#D7DCDC"></path><path d="M599.389 406.39C598.912 404.671 598.625 402.665 598.53 400.467C597.766 388.24 586.115 390.246 576.278 388.526C568.543 387.189 589.075 367.701 573.413 361.396C570.548 360.25 567.397 358.913 565.868 356.142C563.863 352.512 565.868 347.736 569.307 345.348C572.649 342.959 577.042 342.482 581.149 342.386C583.727 339.329 581.626 334.648 579.143 331.496C576.66 328.343 573.7 324.713 574.559 320.797C575.992 314.874 584.205 314.683 590.126 315.829C592.322 312.295 592.322 307.805 593.373 303.793C594.423 299.78 597.67 295.482 601.777 296.055C605.692 296.533 608.08 300.927 611.9 301.882C616.388 302.933 620.208 299.016 623.646 296.055C627.18 293.093 633.197 291.278 635.68 295.195C637.112 297.488 636.253 300.736 637.781 303.028C640.359 307.041 646.567 304.557 650.291 301.691C654.111 298.921 660.223 296.341 662.897 300.258C663.757 301.5 663.948 302.933 664.33 304.366C666.144 309.62 671.779 312.199 676.172 315.543C680.565 318.886 684.003 325.573 680.278 329.585C678.464 331.591 675.217 332.451 674.357 334.935C673.211 338.183 676.458 341.049 679.132 343.246C683.43 346.876 684.194 357.862 678.559 360.919C676.172 362.161 672.638 362.543 672.065 365.217C671.588 367.606 673.975 369.421 675.503 371.236C679.896 376.203 677.986 385.278 672.065 388.144C670.728 388.813 669.009 389.386 668.532 390.724C668.15 391.774 668.532 392.825 668.818 393.876C669.391 395.882 669.582 397.984 669.391 399.99C669.296 400.659 669.2 401.423 668.627 401.9C668.15 402.283 667.481 402.378 666.813 402.378C658.6 402.76 654.589 399.799 649.623 406.963C649.145 407.632 648.668 408.396 647.904 408.778C647.235 409.161 646.376 409.256 645.612 409.352C639.977 409.829 636.253 406.295 631.096 405.626C623.933 404.671 622.405 408.396 616.102 411.358C606.074 416.039 601.299 413.173 599.389 406.39Z" fill="#D7DCDC"></path><path d="M662.515 392.539C662.038 390.819 661.751 388.813 661.656 386.616C660.892 374.388 649.241 376.394 639.404 374.675C631.668 373.337 652.201 353.85 636.539 347.545C633.674 346.398 630.522 345.061 628.994 342.291C626.989 338.661 628.994 333.884 632.432 331.496C635.775 329.108 640.168 328.63 644.275 328.535C646.853 325.478 644.752 320.797 642.269 317.644C639.786 314.492 636.826 310.862 637.685 306.945C639.118 301.022 647.331 300.831 653.252 301.978C655.448 298.443 655.448 293.953 656.499 289.941C657.549 285.929 660.796 281.63 664.903 282.203C668.818 282.681 671.206 287.075 675.026 288.03C679.514 289.081 683.334 285.165 686.772 282.203C690.306 279.242 696.322 277.427 698.806 281.343C700.238 283.636 699.379 286.884 700.907 289.177C703.485 293.189 709.693 290.705 713.417 287.839C717.237 285.069 723.349 282.49 726.023 286.407C726.883 287.648 727.074 289.081 727.456 290.514C729.27 295.768 734.905 298.348 739.298 301.691C743.691 305.035 747.129 311.722 743.404 315.734C741.59 317.74 738.343 318.6 737.483 321.083C736.337 324.331 739.584 327.197 742.258 329.394C746.556 333.024 747.32 344.01 741.685 347.067C739.298 348.309 735.764 348.691 735.191 351.366C734.714 353.754 737.101 355.569 738.629 357.384C743.022 362.352 741.112 371.427 735.191 374.293C733.854 374.961 732.135 375.439 731.658 376.872C731.276 377.923 731.658 378.974 731.944 380.024C732.517 382.03 732.708 384.132 732.517 386.138C732.422 386.807 732.326 387.571 731.753 388.049C731.276 388.431 730.607 388.526 729.939 388.526C721.726 388.909 717.715 385.947 712.749 393.112C712.271 393.78 711.794 394.545 711.03 394.927C710.361 395.309 709.502 395.404 708.738 395.5C703.103 395.978 699.379 392.443 694.221 391.774C687.059 390.819 685.531 394.545 679.228 397.506C669.2 402.187 664.425 399.321 662.515 392.539Z" fill="#D7DCDC"></path><path d="M657.061 454.196C656.679 452.858 656.488 451.234 656.392 449.61C655.819 439.962 646.651 441.49 638.82 440.248C632.708 439.198 648.848 423.818 636.528 418.85C634.236 417.895 631.753 416.844 630.607 414.742C629.079 411.876 630.607 408.055 633.281 406.24C635.955 404.33 639.393 403.948 642.64 403.948C644.646 401.464 643.022 397.834 641.112 395.35C639.202 392.866 636.815 390 637.579 386.944C638.725 382.263 645.123 382.167 649.803 383.027C651.522 380.257 651.522 376.722 652.381 373.57C653.241 370.417 655.724 367.074 658.971 367.456C662.027 367.838 663.937 371.277 666.897 372.041C670.431 372.901 673.391 369.748 676.161 367.456C678.93 365.163 683.705 363.635 685.615 366.787C686.761 368.602 686.093 371.181 687.239 372.996C689.244 376.149 694.115 374.143 697.171 371.946C700.132 369.748 705.002 367.742 707.103 370.799C707.772 371.755 707.867 372.901 708.249 374.047C709.682 378.155 714.075 380.161 717.608 382.836C721.046 385.511 723.816 390.669 720.855 393.917C719.423 395.541 716.844 396.114 716.176 398.12C715.316 400.604 717.895 402.897 719.9 404.616C723.338 407.482 723.911 416.175 719.423 418.468C717.513 419.423 714.743 419.805 714.266 421.811C713.884 423.626 715.698 425.155 717.035 426.588C720.473 430.505 719.041 437.574 714.266 439.866C713.215 440.344 711.878 440.822 711.496 441.968C711.21 442.732 711.496 443.687 711.783 444.452C712.26 445.98 712.356 447.604 712.26 449.228C712.165 449.801 712.069 450.374 711.687 450.757C711.305 451.043 710.732 451.139 710.255 451.139C703.761 451.425 700.609 449.133 696.694 454.769C696.312 455.342 695.93 455.915 695.356 456.202C694.783 456.488 694.21 456.584 693.542 456.679C689.053 457.061 686.188 454.291 682.082 453.718C676.447 452.954 675.206 455.915 670.24 458.208C662.313 461.742 658.493 459.45 657.061 454.196Z" fill="#D7DCDC"></path><path d="M698.71 436.673C698.233 434.953 697.946 432.947 697.851 430.75C697.087 418.522 685.435 420.528 675.599 418.809C667.863 417.472 688.396 397.984 672.734 391.679C669.869 390.533 666.717 389.195 665.189 386.425C663.184 382.795 665.189 378.018 668.627 375.63C671.97 373.242 676.363 372.764 680.469 372.669C683.048 369.612 680.947 364.931 678.464 361.778C675.981 358.626 673.02 354.996 673.88 351.079C675.312 345.156 683.525 344.965 689.446 346.112C691.643 342.577 691.643 338.087 692.694 334.075C693.744 330.063 696.991 325.764 701.098 326.337C705.013 326.815 707.401 331.209 711.221 332.165C715.709 333.215 719.529 329.299 722.967 326.337C726.501 323.376 732.517 321.561 735 325.478C736.433 327.77 735.573 331.018 737.101 333.311C739.68 337.323 745.887 334.839 749.612 331.974C753.432 329.203 759.544 326.624 762.218 330.541C763.078 331.783 763.269 333.215 763.651 334.648C765.465 339.902 771.1 342.482 775.493 345.825C779.886 349.169 783.324 355.856 779.599 359.868C777.785 361.874 774.538 362.734 773.678 365.217C772.532 368.465 775.779 371.331 778.453 373.528C782.751 377.159 783.515 388.144 777.88 391.201C775.493 392.443 771.959 392.825 771.386 395.5C770.909 397.888 773.296 399.703 774.824 401.518C779.217 406.486 777.307 415.561 771.386 418.427C770.049 419.096 768.33 419.573 767.853 421.006C767.471 422.057 767.853 423.108 768.139 424.159C768.712 426.165 768.903 428.266 768.712 430.272C768.617 430.941 768.521 431.705 767.948 432.183C767.471 432.565 766.802 432.661 766.134 432.661C757.921 433.043 753.909 430.081 748.943 437.246C748.466 437.915 747.988 438.679 747.224 439.061C746.556 439.443 745.696 439.539 744.932 439.634C739.298 440.112 735.573 436.577 730.416 435.909C723.254 434.953 721.726 438.679 715.423 441.64C705.395 446.321 700.62 443.455 698.71 436.673Z" fill="#D7DCDC"></path><path d="M597.479 334.075C597.002 332.356 596.715 330.35 596.62 328.152C595.856 315.925 584.205 317.931 574.368 316.211C566.633 314.874 587.165 295.386 571.503 289.081C568.638 287.935 565.487 286.598 563.959 283.827C561.953 280.197 563.959 275.421 567.397 273.033C570.739 270.644 575.132 270.167 579.239 270.071C581.817 267.014 579.716 262.333 577.233 259.181C574.75 256.028 571.79 252.398 572.649 248.482C574.082 242.559 582.295 242.368 588.216 243.514C590.412 239.98 590.412 235.49 591.463 231.478C592.513 227.465 595.76 223.167 599.867 223.74C603.782 224.217 606.17 228.612 609.99 229.567C614.478 230.618 618.298 226.701 621.737 223.74C625.27 220.778 631.287 218.963 633.77 222.88C635.202 225.173 634.343 228.421 635.871 230.713C638.449 234.726 644.657 232.242 648.381 229.376C652.201 226.606 658.313 224.026 660.987 227.943C661.847 229.185 662.038 230.618 662.42 232.051C664.234 237.305 669.869 239.884 674.262 243.228C678.655 246.571 682.093 253.258 678.368 257.27C676.554 259.276 673.307 260.136 672.447 262.62C671.301 265.868 674.548 268.734 677.222 270.931C681.52 274.561 682.284 285.547 676.649 288.604C674.262 289.846 670.728 290.228 670.155 292.902C669.678 295.291 672.065 297.106 673.593 298.921C677.986 303.888 676.076 312.963 670.155 315.829C668.818 316.498 667.099 316.976 666.622 318.409C666.24 319.459 666.622 320.51 666.908 321.561C667.481 323.567 667.672 325.669 667.481 327.675C667.386 328.343 667.29 329.108 666.717 329.585C666.24 329.967 665.571 330.063 664.903 330.063C656.69 330.445 652.679 327.484 647.713 334.648C647.235 335.317 646.758 336.081 645.994 336.463C645.325 336.846 644.466 336.941 643.702 337.037C638.067 337.514 634.343 333.98 629.186 333.311C622.023 332.356 620.495 336.081 614.192 339.043C604.164 343.724 599.389 340.762 597.479 334.075Z" fill="#D7DCDC"></path><path d="M518.309 336.272C517.832 334.553 517.545 332.547 517.45 330.35C516.686 318.122 505.035 320.128 495.198 318.409C487.462 317.071 507.995 297.583 492.333 291.278C489.468 290.132 486.316 288.795 484.788 286.024C482.783 282.394 484.788 277.618 488.226 275.23C491.569 272.841 495.962 272.364 500.069 272.268C502.647 269.211 500.546 264.53 498.063 261.378C495.58 258.226 492.619 254.596 493.479 250.679C494.911 244.756 503.125 244.565 509.046 245.711C511.242 242.177 511.242 237.687 512.293 233.675C513.343 229.663 516.59 225.364 520.697 225.937C524.612 226.415 527 230.809 530.82 231.764C535.308 232.815 539.128 228.898 542.566 225.937C546.1 222.976 552.116 221.161 554.599 225.077C556.032 227.37 555.172 230.618 556.7 232.911C559.279 236.923 565.487 234.439 569.211 231.573C573.031 228.803 579.143 226.224 581.817 230.14C582.677 231.382 582.868 232.815 583.25 234.248C585.064 239.502 590.699 242.081 595.092 245.425C599.485 248.768 602.923 255.455 599.198 259.467C597.384 261.474 594.137 262.333 593.277 264.817C592.131 268.065 595.378 270.931 598.052 273.128C602.35 276.758 603.114 287.744 597.479 290.801C595.092 292.043 591.558 292.425 590.985 295.1C590.508 297.488 592.895 299.303 594.423 301.118C598.816 306.085 596.906 315.161 590.985 318.026C589.648 318.695 587.929 319.268 587.452 320.606C587.07 321.657 587.452 322.707 587.738 323.758C588.311 325.764 588.502 327.866 588.311 329.872C588.216 330.541 588.12 331.305 587.547 331.783C587.07 332.165 586.401 332.26 585.733 332.26C577.52 332.642 573.509 329.681 568.543 336.846C568.065 337.514 567.588 338.278 566.824 338.661C566.155 339.043 565.296 339.138 564.532 339.234C558.897 339.711 555.172 336.177 550.015 335.508C542.853 334.553 541.325 338.278 535.022 341.24C524.994 345.921 520.219 343.055 518.309 336.272Z" fill="#D7DCDC"></path><path d="M469.031 369.421C468.553 367.701 468.267 365.695 468.171 363.498C467.407 351.27 455.756 353.276 445.92 351.557C438.184 350.219 458.717 330.732 443.055 324.427C440.19 323.28 437.038 321.943 435.51 319.173C433.505 315.543 435.51 310.766 438.948 308.378C442.291 305.99 446.684 305.512 450.79 305.417C453.369 302.36 451.268 297.679 448.785 294.526C446.302 291.374 443.341 287.744 444.201 283.827C445.633 277.904 453.846 277.713 459.767 278.86C461.964 275.325 461.964 270.835 463.014 266.823C464.065 262.811 467.312 258.512 471.418 259.085C475.334 259.563 477.721 263.957 481.541 264.913C486.03 265.963 489.85 262.047 493.288 259.085C496.822 256.124 502.838 254.309 505.321 258.226C506.754 260.518 505.894 263.766 507.422 266.059C510.001 270.071 516.208 267.587 519.933 264.722C523.753 261.951 529.865 259.372 532.539 263.289C533.398 264.53 533.589 265.963 533.971 267.396C535.786 272.65 541.42 275.23 545.813 278.573C550.206 281.917 553.644 288.604 549.92 292.616C548.105 294.622 544.858 295.482 543.999 297.965C542.853 301.213 546.1 304.079 548.774 306.276C553.071 309.907 553.835 320.892 548.201 323.949C545.813 325.191 542.28 325.573 541.707 328.248C541.229 330.636 543.617 332.451 545.145 334.266C549.538 339.234 547.628 348.309 541.707 351.175C540.37 351.843 538.651 352.417 538.173 353.754C537.791 354.805 538.173 355.856 538.46 356.907C539.033 358.913 539.224 361.014 539.033 363.02C538.937 363.689 538.842 364.453 538.269 364.931C537.791 365.313 537.123 365.409 536.454 365.409C528.241 365.791 524.23 362.829 519.264 369.994C518.787 370.663 518.309 371.427 517.545 371.809C516.877 372.191 516.017 372.287 515.253 372.382C509.619 372.86 505.894 369.325 500.737 368.656C493.575 367.701 492.047 371.427 485.743 374.388C475.716 379.069 470.941 376.203 469.031 369.421Z" fill="#D7DCDC"></path><path d="M434.077 932.465H764.701C764.796 932.37 764.892 932.179 764.892 932.083C776.639 904.476 743.022 883.077 724.304 890.624C705.491 898.171 700.333 895.687 706.637 873.047C712.94 850.407 680.278 821.557 650.578 837.415C620.877 853.272 596.142 841.618 603.018 822.99C609.894 804.266 588.598 783.919 563.481 792.325C538.364 800.732 540.847 835.409 522.034 815.825C503.22 796.242 478.103 816.589 478.867 837.51C479.631 858.431 465.497 876.868 441.622 884.797C417.747 892.63 429.589 932.179 429.589 932.179C429.589 932.179 431.212 932.274 434.077 932.465Z" fill="#E6EBF0"></path><path d="M1281.74 803.98H443.819V844.197H1281.74V803.98Z" fill="#D7DCDC"></path><path d="M1281.74 803.98H443.819V844.197H1281.74V803.98Z" fill="#D7DCDC"></path><path d="M465.784 1008.51H426.724V761.947L446.302 748.096L465.784 761.947V1008.51Z" fill="#D7DCDC"></path><path d="M534.831 1008.51H495.866V761.947L515.349 748.095L534.831 761.947V1008.51Z" fill="#D7DCDC"></path><path d="M603.878 1008.51H564.913V761.947L584.396 748.095L603.878 761.947V1008.51Z" fill="#D7DCDC"></path><path d="M673.02 1008.51H633.96V761.947L653.443 748.095L673.02 761.947V1008.51Z" fill="#D7DCDC"></path><path d="M742.067 1008.51H703.008V761.947L722.49 748.095L742.067 761.947V1008.51Z" fill="#D7DCDC"></path><path d="M811.114 1008.51H772.054V761.947L791.632 748.095L811.114 761.947V1008.51Z" fill="#D7DCDC"></path><path d="M880.161 1008.51H841.102V761.947L860.679 748.095L880.161 761.947V1008.51Z" fill="#D7DCDC"></path><path d="M949.208 1008.51H910.148V761.947L929.726 748.095L949.208 761.947V1008.51Z" fill="#D7DCDC"></path><path d="M1018.26 1008.51H979.291V761.947L998.773 748.095L1018.26 761.947V1008.51Z" fill="#D7DCDC"></path><path d="M1087.3 1008.51H1048.34V761.947L1067.82 748.095L1087.3 761.947V1008.51Z" fill="#D7DCDC"></path><path d="M1156.44 1008.51H1117.39V761.947L1136.87 748.095L1156.44 761.947V1008.51Z" fill="#D7DCDC"></path><path d="M1225.49 1008.51H1186.43V761.947L1205.91 748.095L1225.49 761.947V1008.51Z" fill="#D7DCDC"></path><path d="M1294.54 1008.51H1255.48V761.947L1275.06 748.095L1294.54 761.947V1008.51Z" fill="#D7DCDC"></path><g opacity="0.6"><path d="M465.784 1008.51H426.724V761.947L446.302 748.096L465.784 761.947V1008.51Z" fill="#D7DCDC"></path><path d="M534.831 1008.51H495.866V761.947L515.349 748.095L534.831 761.947V1008.51Z" fill="#D7DCDC"></path><path d="M603.878 1008.51H564.913V761.947L584.396 748.095L603.878 761.947V1008.51Z" fill="#D7DCDC"></path><path d="M673.02 1008.51H633.96V761.947L653.443 748.095L673.02 761.947V1008.51Z" fill="#D7DCDC"></path><path d="M742.067 1008.51H703.008V761.947L722.49 748.095L742.067 761.947V1008.51Z" fill="#D7DCDC"></path><path d="M811.114 1008.51H772.054V761.947L791.632 748.095L811.114 761.947V1008.51Z" fill="#D7DCDC"></path><path d="M880.161 1008.51H841.102V761.947L860.679 748.095L880.161 761.947V1008.51Z" fill="#D7DCDC"></path><path d="M949.208 1008.51H910.148V761.947L929.726 748.095L949.208 761.947V1008.51Z" fill="#D7DCDC"></path><path d="M1018.26 1008.51H979.291V761.947L998.773 748.095L1018.26 761.947V1008.51Z" fill="#D7DCDC"></path><path d="M1087.3 1008.51H1048.34V761.947L1067.82 748.095L1087.3 761.947V1008.51Z" fill="#D7DCDC"></path><path d="M1156.44 1008.51H1117.39V761.947L1136.87 748.095L1156.44 761.947V1008.51Z" fill="#D7DCDC"></path><path d="M1225.49 1008.51H1186.43V761.947L1205.91 748.095L1225.49 761.947V1008.51Z" fill="#D7DCDC"></path><path d="M1294.54 1008.51H1255.48V761.947L1275.06 748.095L1294.54 761.947V1008.51Z" fill="#D7DCDC"></path></g><path d="M631.764 1207.3L636.157 1288.98L683.717 1281.62L649.527 1207.3L637.685 1205.77" fill="#FAB4A5"></path><path d="M640.073 1305.31C635.489 1305.31 631.096 1303.78 627.658 1301.01C624.793 1298.72 623.265 1296.14 623.074 1293.37C622.883 1290.22 624.411 1286.78 627.753 1283.25C627.849 1282.2 628.899 1269.59 631.191 1267.29C631 1266.62 629.854 1262.13 631.764 1259.17C632.719 1257.84 634.152 1256.98 636.157 1256.78H636.253V1256.88C636.348 1256.98 641.983 1266.72 650.387 1267.58C655.257 1268.06 660.128 1265.57 664.807 1260.13C664.998 1259.75 668.532 1250.29 668.532 1250.29L713.417 1272.83L740.348 1280.28C745.601 1281.72 748.466 1288.5 743.691 1293.75C743.5 1293.95 743.309 1294.14 743.118 1294.23L722.108 1304.36C720.866 1304.93 719.625 1305.22 718.288 1305.22H640.073V1305.31Z" fill="#322D41"></path><path d="M697.66 1076.24L677.796 1242.93C658.886 1247.52 641.123 1247.61 625.366 1239.78C625.366 1239.78 622.214 1144.44 623.742 1133.36C625.27 1122.28 627.467 1085.22 627.467 1085.22L697.66 1076.24Z" fill="#322D41"></path><path d="M752.573 1083.59L698.424 1223.92L680.661 1219.34L692.121 1074.61L752.573 1083.59Z" fill="#322D41"></path><path d="M1245.55 284.783L1184.52 188.967L1090.17 256.028L1146.99 365.026L1245.55 284.783Z" fill="#D7DCDC"></path><path d="M1245.55 284.783C1193.02 254.309 1141.26 246.571 1090.17 255.933" stroke="#E7EDF2" stroke-miterlimit="10"></path><path d="M1282.12 336.463L1290.05 342.673L1289.38 351.652L1280.98 344.297L1282.12 336.463Z" fill="#D7DCDC"></path><path d="M1273.15 318.217L1282.79 325.86L1281.93 336.941L1271.71 327.866L1273.15 318.217Z" fill="#D7DCDC"></path><path d="M1262.93 300.736L1273.53 306.945L1274.2 318.026L1262.83 310.384L1262.93 300.736Z" fill="#D7DCDC"></path><path d="M1254.91 286.024L1262.93 292.234L1262.26 301.309L1253.76 293.858L1254.91 286.024Z" fill="#D7DCDC"></path><path d="M1241.06 279.337L1250.8 282.299L1253.38 291.087L1242.78 287.171L1241.06 279.337Z" fill="#D7DCDC"></path><path d="M1013 301.882L1006.7 309.715L997.723 308.951L1005.27 300.64L1013 301.882Z" fill="#D7DCDC"></path><path d="M1029.05 295.1L1022.74 303.028L1013.77 302.169L1021.31 293.858L1029.05 295.1Z" fill="#D7DCDC"></path><path d="M1047.29 286.311L1039.65 295.959L1028.57 294.909L1037.74 284.783L1047.29 286.311Z" fill="#D7DCDC"></path><path d="M1064.96 276.28L1058.65 286.884L1047.57 287.362L1055.31 276.089L1064.96 276.28Z" fill="#D7DCDC"></path><path d="M1079.76 268.447L1073.45 276.376L1064.29 275.612L1071.83 267.205L1079.76 268.447Z" fill="#D7DCDC"></path><path d="M1088.93 257.175L1085.87 266.823L1077.08 269.307L1081.09 258.703L1088.93 257.175Z" fill="#D7DCDC"></path><path d="M1321.09 565L1328.25 581.526L1306 582.959L1321.09 565Z" fill="#D7DCDC"></path><path d="M1147.95 362.925L1153.48 381.935L1131.23 381.648L1147.95 362.925Z" fill="#D7DCDC"></path><path d="M776.257 1076.14C776.257 1076.14 754.005 1088.85 726.978 1082.54C699.951 1076.24 698.423 1072.99 680.947 1080.92C663.47 1088.85 634.915 1090.47 615.815 1080.92C596.715 1071.36 582.486 1053.88 582.486 1053.88L623.837 815.634C623.837 815.634 612.568 674.156 620.686 659.923C628.708 645.785 666.144 612.636 665.762 611.108L715.996 648.841L722.012 611.108L847.882 615.502L930.49 579.01L949.59 618.75L866.982 664.795L771.673 671.195C768.234 755.642 772.15 915.079 776.257 1076.14Z" fill="#BE282D"></path><path d="M935.074 588.467L939.849 586.843C939.849 586.843 954.174 566.209 966.876 564.585C979.578 562.961 989.128 550.256 989.128 550.256C989.128 550.256 992.279 553.409 990.751 558.185C989.223 562.961 978.05 569.266 978.05 569.266H983.398C986.167 569.266 988.173 572.037 987.218 574.711L978.241 599.453C977.19 602.415 974.516 604.421 971.364 604.707L958.949 605.854L946.248 611.872L935.074 588.467Z" fill="#FAB4A5"></path><path d="M1142.41 381.839C1142.41 381.839 1128.94 477.272 1065.34 518.636C1001.73 560 935.074 583.691 919.221 612.35C903.368 640.913 896.969 653.618 884.268 661.642C871.566 669.571 850.938 693.453 846.163 720.392C841.388 747.427 844.539 758.508 844.539 758.508" stroke="#D7DCE0" stroke-width="3" stroke-miterlimit="10"></path><path d="M1141.64 381.935C1141.64 381.935 1122.45 404.193 1111.37 405.722C1100.29 407.346 1093.89 408.874 1087.59 416.803C1081.19 424.732 1073.26 448.614 1055.79 443.837C1038.31 439.061 1036.69 435.909 1036.69 435.909" stroke="#D7DCE0" stroke-width="3" stroke-miterlimit="10"></path><path d="M1058.94 381.935C1058.94 381.935 1073.26 378.783 1082.72 385.087C1092.17 391.392 1112 391 1128.75 383.463L1136 380" stroke="#D7DCE0" stroke-width="3" stroke-miterlimit="10"></path><path d="M823.529 711.986L830.31 704.535C830.31 704.535 827.158 698.134 839.86 690.205C852.562 682.276 860.488 674.348 860.488 674.348C860.488 674.348 863.64 677.5 862.112 680.748C860.488 683.9 849.41 693.453 849.41 693.453L866.887 682.372L865.263 671.291C865.263 671.291 866.887 668.138 870.038 672.915C873.19 677.691 876.437 682.467 871.662 688.772C866.887 695.173 866.887 695.173 866.887 695.173L864.308 707.974C862.971 714.756 858.005 720.392 851.416 722.589L843.011 725.36L831.933 728.512L823.529 711.986Z" fill="#FAB4A5"></path><path d="M816.271 691.829L839.096 746.28L745.505 783.728C738.247 786.593 729.939 785.352 723.922 780.384L628.804 702.911C618.776 694.791 616.866 680.175 624.506 669.667C632.528 658.681 647.904 656.388 658.791 664.508L725.068 714.278C728.315 716.762 732.613 717.431 736.433 716.285L816.271 691.829Z" fill="#BE282D"></path><path d="M1129.8 1229.46L1124.36 1280.86L1145.65 1281.62L1144.13 1231.09L1129.8 1229.46Z" fill="#FAB4A5"></path><path d="M1125.31 1272.26L1118.72 1289.46C1117.58 1293.95 1120.15 1298.53 1124.55 1299.96C1139.35 1304.64 1170.2 1313.91 1173.83 1311.81C1178.6 1308.94 1186.34 1302.83 1176.69 1300.35C1166.28 1297.67 1146.42 1276.18 1146.42 1276.18C1137.44 1278.37 1130.09 1279.62 1125.31 1272.26Z" fill="#322D41"></path><path d="M1157.97 1226.5L1152.53 1277.8L1173.92 1278.57L1172.39 1228.13L1157.97 1226.5Z" fill="#FAB4A5"></path><path d="M1153.48 1269.3L1146.89 1286.49C1145.75 1290.98 1148.33 1295.57 1152.72 1297C1167.52 1301.68 1198.37 1310.95 1202 1308.85C1206.77 1305.98 1214.51 1299.87 1204.86 1297.38C1194.45 1294.71 1174.59 1273.22 1174.59 1273.22C1165.61 1275.32 1158.35 1276.65 1153.48 1269.3Z" fill="#322D41"></path><path d="M1555.35 536.213L1571.68 543.76L1573.97 558.663L1556.4 549.301L1555.35 536.213Z" fill="#D7DCDC"></path><path d="M1542.84 519.974L1553.35 525.037L1554.68 535.354L1543.41 528.953L1542.84 519.974Z" fill="#D7DCDC"></path><path d="M1531.19 503.543L1541.7 508.606L1543.03 518.923L1531.76 512.618L1531.19 503.543Z" fill="#D7DCDC"></path><path d="M1516.67 485.106L1529.47 491.315L1531.09 504.116L1517.34 496.283L1516.67 485.106Z" fill="#D7DCDC"></path><path d="M1500.92 467.72L1514.48 472.114L1517.82 484.533L1503.11 478.705L1500.92 467.72Z" fill="#D7DCDC"></path><path d="M1488.31 452.913L1498.91 458.071L1500.34 468.579L1488.88 462.179L1488.31 452.913Z" fill="#D7DCDC"></path><path d="M1473.22 445.461L1484.97 446.512L1489.93 455.778L1477.04 453.868L1473.22 445.461Z" fill="#D7DCDC"></path><path d="M1601 583.691L1614.56 588.181L1618 600.6L1603.2 594.677L1601 583.691Z" fill="#D7DCDC"></path><path d="M1588.3 568.884L1598.9 574.043L1600.43 584.551L1588.87 578.15L1588.3 568.884Z" fill="#D7DCDC"></path><path d="M1573.69 558.185L1585.43 559.236L1590.5 568.598L1577.51 566.687L1573.69 558.185Z" fill="#D7DCDC"></path><path d="M1145.56 798.63C1145.56 798.63 1139.16 801.783 1132.86 798.63C1126.55 795.478 1118.53 776.372 1118.53 776.372C1118.53 776.372 1107.45 771.596 1112.13 763.667C1116.81 755.738 1116.91 749.337 1115.28 744.561C1113.66 739.785 1115.28 725.455 1124.83 720.774C1134.38 716.094 1134.38 715.998 1134.38 715.998C1134.38 715.998 1139.16 700.14 1153.48 701.669C1167.81 703.293 1166.19 704.821 1166.19 704.821C1166.19 704.821 1189.97 698.421 1193.21 711.222C1196.46 724.022 1194.84 728.703 1194.84 728.703C1194.84 728.703 1202.76 735.104 1204.39 741.409C1206.01 747.713 1202.38 767.87 1202.38 767.87L1145.56 798.63Z" fill="#322D41"></path><path d="M1189.97 805.031C1189.97 805.031 1204.29 795.478 1204.29 784.396C1204.29 773.315 1194.74 725.646 1189.97 727.175C1185.19 728.703 1180.42 736.728 1175.64 733.575C1170.87 730.423 1170.87 730.423 1170.87 730.423C1168 738.447 1160.55 739.307 1151.77 738.352C1150.24 744.083 1147.28 748.573 1142.22 751.057L1143.84 765.386C1143.84 765.386 1146.99 782.868 1140.69 781.244C1134.38 779.62 1129.61 768.539 1129.61 768.539C1115.28 770.163 1113.76 792.325 1137.54 792.325L1140.88 800.445L1151.86 827.289L1207.44 825.665L1189.97 805.031Z" fill="#FAB4A5"></path><path d="M1151.1 1112.92L1163.23 1143.39C1163.42 1143.87 1163.51 1144.44 1163.42 1144.92L1144.41 1262.13C1144.13 1263.66 1145.08 1265 1146.42 1265.19C1153.96 1270.92 1165.04 1271.69 1178.41 1269.39C1179.56 1269.59 1180.61 1268.73 1180.89 1267.48L1207.44 1151.42C1208.02 1148.74 1208.21 1145.88 1207.82 1143.11L1204 1111.39C1203.81 1110.05 1202.86 1109.1 1201.71 1109.1H1153.2C1151.57 1109.19 1150.43 1111.2 1151.1 1112.92Z" fill="#322D41"></path><path d="M1129.04 1111.58L1126.46 1262.71C1131.33 1266.72 1137.73 1268.06 1145.65 1266.72L1176.88 1111.58H1129.04Z" fill="#322D41"></path><path d="M1299.7 737.014L1313.83 717.622C1314.79 716.38 1314.98 714.661 1314.31 713.228L1305.71 693.071C1304.76 690.97 1301.89 690.587 1300.56 692.402L1297.79 696.032C1297.79 696.032 1295.88 678.455 1293.87 682.372C1291.96 686.289 1282.89 725.264 1282.89 725.264L1299.7 737.014Z" fill="#FAB4A5"></path><path d="M1278.11 716.858L1244.78 791.561L1197.13 813.819L1194.74 822.512L1143.93 809.807L1142.31 819.36L1134.38 833.689L1112.13 1032.29L1101.05 1111.68C1135.72 1138.62 1178.41 1129.73 1223.3 1111.68C1223.3 1111.68 1224.92 908.297 1218.52 886.134C1212.12 863.876 1212.12 860.724 1212.12 860.724L1270.57 827.766C1272.86 826.524 1274.58 824.423 1275.44 822.035L1305.81 736.823C1304.38 726.219 1291.87 721.157 1278.11 716.858Z" fill="#BE282D"></path><path d="M1226.54 610.152C1226.54 610.152 1228.17 608.528 1237.62 608.528C1247.17 608.528 1277.35 621.425 1290.05 611.776C1302.75 602.033 1318.61 581.016 1318.61 581.016C1318.61 581.016 1318.61 581.016 1321.76 595.537C1324.91 610.057 1277.25 752.49 1272.48 778.378C1267.7 804.266 1162.94 1004.88 1146.99 1029.14C1131.14 1053.4 1107.26 1045.28 1081.86 1053.4C1056.46 1061.52 1061.23 1063.15 1048.53 1092.19C1035.83 1121.33 992.948 1109.96 992.948 1109.96" stroke="#D7DCE0" stroke-width="3" stroke-miterlimit="10"></path><path d="M1213.84 677.882C1213.84 677.882 1247.17 690.587 1259.87 663.553C1272.57 636.518 1285.28 625.437 1304.38 615.884C1323.48 606.331 1320.5 589.5 1320.5 589.5" stroke="#D7DCE0" stroke-width="4" stroke-miterlimit="10"></path><path d="M1143.46 482.813L1135.82 499.053L1120.92 501.25L1130.47 483.768L1143.46 482.813Z" fill="#D7DCDC"></path><path d="M1159.88 470.49L1154.73 480.902L1144.41 482.144L1150.81 470.967L1159.88 470.49Z" fill="#D7DCDC"></path><path d="M1176.4 459.026L1171.25 469.439L1160.93 470.681L1167.33 459.409L1176.4 459.026Z" fill="#D7DCDC"></path><path d="M1195.03 444.602L1188.63 457.402L1175.83 458.931L1183.85 445.175L1195.03 444.602Z" fill="#D7DCDC"></path><path d="M1212.5 429.03L1207.92 442.5L1195.5 445.748L1201.52 431.132L1212.5 429.03Z" fill="#D7DCDC"></path><path d="M1227.4 416.612L1222.15 427.12L1211.64 428.457L1218.14 417.089L1227.4 416.612Z" fill="#D7DCDC"></path><path d="M1235.04 401.614L1233.9 413.268L1224.54 418.236L1226.64 405.339L1235.04 401.614Z" fill="#D7DCDC"></path><path d="M1095.61 527.998L1091.03 541.563L1078.52 544.907L1084.53 530.1L1095.61 527.998Z" fill="#D7DCDC"></path><path d="M1110.51 515.484L1105.26 526.087L1094.75 527.425L1101.25 515.961L1110.51 515.484Z" fill="#D7DCDC"></path><path d="M1121.3 500.963L1120.15 512.713L1110.8 517.681L1112.9 504.689L1121.3 500.963Z" fill="#D7DCDC"></path><path d="M1472.55 446.894L1378.68 299.398L1233.51 402.474L1320.99 570.222L1472.55 446.894Z" fill="#D7DCDC"></path><path d="M1472.55 446.894C1391.66 400.085 1312.11 388.049 1233.51 402.474" stroke="#E7EDF2" stroke-width="2" stroke-miterlimit="10"></path><path d="M1088.35 1027.42L1087.02 1048.15C1086.92 1050.06 1087.88 1051.88 1089.5 1052.83L1104.68 1061.91C1107.64 1063.63 1111.37 1062 1112.04 1058.66L1113.47 1051.59C1113.66 1050.54 1114.81 1049.87 1115.86 1050.25C1117.1 1050.63 1118.44 1049.58 1118.24 1048.25L1114.9 1027.33H1088.35V1027.42Z" fill="#FAB4A5"></path><path d="M1118.53 1027.42C1103.35 1034.49 1091.98 1034.97 1085.2 1027.42C1085.2 1027.42 1113.95 888.427 1118.53 865.404C1123.31 841.618 1143.93 820.888 1159.79 839.994C1173.35 856.234 1118.53 1027.42 1118.53 1027.42Z" fill="#BE282D"></path><path d="M879.588 98.2154C879.493 98.311 879.493 98.4065 879.397 98.4065C889.043 95.3496 896.301 106.431 882.262 111.398C882.167 111.398 879.779 111.398 876.819 111.303C871.089 111.112 862.876 110.825 862.876 110.825C862.398 113.691 860.584 115.697 857.719 116.748C856.955 117.035 856.191 117.226 855.331 117.417C849.028 118.659 839.383 116.939 828.114 112.64C814.17 122.862 807.772 123.626 801.755 118.085C800.418 118.085 799.177 118.085 797.935 117.99C796.98 117.894 796.121 117.894 795.261 117.799C794.879 117.799 794.593 117.703 794.211 117.608H772.437C772.437 117.608 768.617 117.035 765.943 115.602L762.696 117.226L745.505 119.518L730.034 118.563C730.034 118.563 712.844 123.339 705.013 122.766C703.485 122.671 702.339 122.289 701.766 121.715C701.289 121.238 700.907 120.76 700.716 120.283C699.474 117.035 704.727 113.978 704.727 113.978C704.727 113.978 703.772 110.443 700.334 111.303C696.896 112.163 692.693 117.13 687.632 114.264C682.666 111.303 677.031 111.589 671.874 113.5C667.577 115.124 660.796 120.665 654.016 120.569C653.061 120.569 652.106 120.474 651.246 120.187C650.769 120.091 650.387 119.9 649.909 119.805C641.887 116.652 641.887 116.652 641.887 116.652C641.887 116.652 635.107 116.652 631.669 114.837C629.95 113.882 628.995 112.545 630.141 110.443L634.152 107.482C614.956 99.5528 629.377 89.8089 646.376 90.4776C646.28 85.9878 650.482 82.9309 662.802 82.6443C651.819 64.9715 663.47 59.0488 684.767 63.6341C687.441 61.3415 690.497 60.7683 694.126 63.6341C707.21 46.6301 737.865 59.2398 724.113 76.626C727.647 75.8618 730.989 75.2886 731.753 78.6321C741.017 69.3659 754.673 77.5813 746.078 85.0325C746.651 84.7459 754.1 84.7459 756.965 85.8923C757.156 85.9878 757.347 85.9878 757.538 86.0833C757.729 86.0833 757.825 86.1789 757.92 86.1789C757.92 86.0833 757.92 85.9878 757.92 85.8923C758.302 82.2622 760.404 80.1606 765.179 80.5427C765.943 64.1118 787.239 59.5264 791.346 71.372C794.211 68.4106 797.84 68.0285 802.137 70.6077C807.199 56.374 829.833 64.685 829.928 73.8557C837.186 73.0915 840.911 75.4797 835.467 86.1789C838.81 85.8923 842.152 85.6057 843.871 88.0894C845.304 87.2297 846.736 86.6565 848.36 87.1341C846.736 75.9573 852.848 71.4675 866.123 73.187C874.431 67.5508 881.403 67.2642 886.369 76.3394C899.835 79.5874 897.065 85.9878 885.414 94.2033C883.79 95.5406 881.785 96.878 879.588 98.2154Z" fill="#D7DCDC"></path><path d="M882.262 111.398C882.167 111.398 879.779 111.398 876.819 111.303C871.089 111.112 862.876 110.825 862.876 110.825C862.398 113.691 860.584 115.697 857.719 116.748C856.955 117.035 856.191 117.226 855.331 117.417C849.028 118.659 839.383 116.939 828.113 112.64C814.17 122.862 807.772 123.626 801.755 118.085C800.418 118.085 799.177 118.085 797.935 117.99C796.98 117.894 796.121 117.894 795.261 117.799C794.879 117.799 794.593 117.703 794.211 117.608H772.437C772.437 117.608 768.616 117.035 765.942 115.602L762.695 117.226L745.505 119.518L730.034 118.563C730.034 118.563 712.844 123.339 705.013 122.766C703.485 122.671 702.339 122.289 701.766 121.715C701.288 121.238 700.906 120.76 700.715 120.283C699.474 117.035 704.727 113.978 704.727 113.978C704.727 113.978 703.771 110.443 700.333 111.303C696.895 112.163 692.693 117.13 687.632 114.264C682.666 111.303 677.031 111.589 671.874 113.5C667.577 115.124 660.796 120.665 654.016 120.569C653.061 120.569 652.106 120.474 651.246 120.187C650.769 120.091 650.387 119.9 649.909 119.805C641.887 116.652 641.887 116.652 641.887 116.652C641.887 116.652 635.106 116.652 631.668 114.837C635.679 112.831 641.601 111.685 647.904 111.876C647.808 107.386 652.01 104.329 664.33 104.043C653.347 86.3699 664.998 80.4471 686.295 85.0325C688.969 82.7398 692.025 82.1667 695.654 85.0325C708.547 67.9329 739.202 80.6382 725.45 98.0244C728.984 97.2602 732.326 96.687 733.09 100.03C742.354 90.7642 756.01 98.9797 747.415 106.431C747.988 106.144 755.437 106.144 758.302 107.291C758.493 107.386 758.684 107.386 758.875 107.482C759.066 107.482 759.162 107.577 759.257 107.577C759.257 107.482 759.257 107.386 759.257 107.291C759.639 103.661 761.74 101.559 766.515 101.941C767.279 85.5102 788.576 80.9248 792.683 92.7703C795.548 89.8089 799.177 89.4268 803.474 92.0061C808.536 77.7724 831.169 86.0833 831.265 95.2541C838.523 94.4898 842.248 96.878 836.804 107.577C840.147 107.291 843.489 107.004 845.208 109.488C846.641 108.628 848.073 108.055 849.697 108.533C848.073 97.3557 854.185 92.8658 867.46 94.5854C874.431 89.8089 880.543 88.9492 885.318 94.2032C883.504 95.4451 881.498 96.7825 879.302 98.1199C879.206 98.2154 879.206 98.311 879.111 98.311C889.043 95.3496 896.301 106.526 882.262 111.398Z" fill="#E6EBF0"></path><path d="M1201.71 85.7012C1201.62 85.7967 1201.62 85.8923 1201.52 85.8923C1211.17 82.8354 1218.42 93.9167 1204.39 98.8841C1204.29 98.8841 1201.9 98.8841 1198.94 98.7886C1193.21 98.5976 1185 98.311 1185 98.311C1184.52 101.177 1182.71 103.183 1179.84 104.234C1179.08 104.52 1178.31 104.711 1177.46 104.902C1171.15 106.144 1161.51 104.425 1150.24 100.126C1136.29 110.348 1129.9 111.112 1123.88 105.571C1122.54 105.571 1121.3 105.571 1120.06 105.476C1119.1 105.38 1118.24 105.38 1117.39 105.285C1117 105.285 1116.72 105.189 1116.33 105.093H1094.56C1094.56 105.093 1090.74 104.52 1088.07 103.087L1084.82 104.711L1067.63 107.004L1052.16 106.049C1052.16 106.049 1034.97 110.825 1027.14 110.252C1025.61 110.157 1024.46 109.774 1023.89 109.201C1023.41 108.724 1023.03 108.246 1022.84 107.768C1021.6 104.52 1026.85 101.463 1026.85 101.463C1026.85 101.463 1025.9 97.9289 1022.46 98.7886C1019.02 99.6484 1014.82 104.616 1009.76 101.75C1004.79 98.7886 999.155 99.0752 993.998 100.986C989.701 102.61 982.92 108.15 976.14 108.055C975.184 108.055 974.229 107.959 973.37 107.673C972.892 107.577 972.51 107.386 972.033 107.291C964.011 104.138 964.011 104.138 964.011 104.138C964.011 104.138 957.23 104.138 953.792 102.323C952.073 101.368 951.118 100.03 952.264 97.9289L956.275 94.9675C937.08 87.0386 951.5 77.2947 968.499 77.9634C968.404 73.4736 972.606 70.4167 984.926 70.1301C973.943 52.4573 985.594 46.5346 1006.89 51.1199C1009.56 48.8272 1012.62 48.2541 1016.25 51.1199C1029.14 34.0203 1059.8 46.7256 1046.05 64.1118C1049.58 63.3476 1052.92 62.7744 1053.69 66.1179C1062.95 56.8516 1076.61 65.0671 1068.01 72.5183C1068.58 72.2317 1076.03 72.2317 1078.9 73.378C1079.09 73.4736 1079.28 73.4736 1079.47 73.5691C1079.66 73.5691 1079.76 73.6646 1079.85 73.6646C1079.85 73.5691 1079.85 73.4736 1079.85 73.378C1080.24 69.748 1082.34 67.6463 1087.11 68.0285C1087.88 51.5976 1109.17 47.0122 1113.28 58.8577C1116.14 55.8963 1119.77 55.5142 1124.07 58.0935C1129.13 43.8598 1151.77 52.1707 1151.86 61.3415C1159.12 60.5772 1162.84 62.9654 1157.4 73.6646C1160.74 73.378 1164.08 73.0915 1165.8 75.5752C1167.24 74.7154 1168.67 74.1423 1170.29 74.6199C1168.67 63.4431 1174.78 58.9532 1188.06 60.6728C1196.36 55.0366 1203.34 54.75 1208.3 63.8252C1221.77 67.0732 1219 73.4736 1207.35 81.689C1205.91 83.0264 1203.91 84.2683 1201.71 85.7012Z" fill="#D7DCDC"></path><path d="M1204.39 98.8841C1204.29 98.8841 1201.9 98.8841 1198.94 98.7886C1193.21 98.5976 1185 98.311 1185 98.311C1184.52 101.177 1182.71 103.183 1179.84 104.234C1179.08 104.52 1178.31 104.711 1177.45 104.902C1171.15 106.144 1161.51 104.425 1150.24 100.126C1136.29 110.348 1129.9 111.112 1123.88 105.571C1122.54 105.571 1121.3 105.571 1120.06 105.476C1119.1 105.38 1118.24 105.38 1117.38 105.285C1117 105.285 1116.72 105.189 1116.33 105.093H1094.56C1094.56 105.093 1090.74 104.52 1088.07 103.087L1084.82 104.711L1067.63 107.004L1052.16 106.049C1052.16 106.049 1034.97 110.825 1027.14 110.252C1025.61 110.157 1024.46 109.774 1023.89 109.201C1023.41 108.724 1023.03 108.246 1022.84 107.768C1021.6 104.52 1026.85 101.463 1026.85 101.463C1026.85 101.463 1025.9 97.9289 1022.46 98.7886C1019.02 99.6484 1014.82 104.616 1009.76 101.75C1004.79 98.7886 999.155 99.0752 993.998 100.986C989.7 102.61 982.92 108.15 976.139 108.055C975.184 108.055 974.229 107.959 973.37 107.673C972.892 107.577 972.51 107.386 972.033 107.291C964.011 104.138 964.011 104.138 964.011 104.138C964.011 104.138 957.23 104.138 953.792 102.323C957.803 100.317 963.724 99.1707 970.027 99.3618C969.932 94.872 974.134 91.815 986.453 91.5285C975.471 73.8557 987.122 67.9329 1008.42 72.5183C1011.09 70.2256 1014.15 69.6524 1017.78 72.5183C1030.67 55.4187 1061.33 68.124 1047.57 85.5102C1051.11 84.7459 1054.45 84.1728 1055.21 87.5163C1064.48 78.25 1078.13 86.4654 1069.54 93.9167C1070.11 93.6301 1077.56 93.6301 1080.43 94.7764C1080.62 94.872 1080.81 94.872 1081 94.9675C1081.19 94.9675 1081.29 95.063 1081.38 95.063C1081.38 94.9675 1081.38 94.872 1081.38 94.7764C1081.76 91.1463 1083.86 89.0447 1088.64 89.4268C1089.4 72.9959 1110.7 68.4106 1114.81 80.2561C1117.67 77.2947 1121.3 76.9126 1125.6 79.4919C1130.66 65.2581 1153.29 73.5691 1153.39 82.7398C1160.65 81.9756 1164.37 84.3638 1158.93 95.063C1162.27 94.7764 1165.61 94.4898 1167.33 96.9736C1168.76 96.1138 1170.2 95.5406 1171.82 96.0183C1170.2 84.8415 1176.31 80.3516 1189.58 82.0711C1196.56 77.2947 1202.67 76.435 1207.44 81.689C1205.63 82.9309 1203.62 84.2683 1201.43 85.6057C1201.33 85.7012 1201.33 85.7967 1201.23 85.7967C1211.17 82.8354 1218.42 93.9167 1204.39 98.8841Z" fill="#E6EBF0"></path><path d="M1526.13 119.041C1526.03 119.136 1526.03 119.232 1525.94 119.232C1535.58 116.175 1542.84 127.256 1528.8 132.224C1528.71 132.224 1526.32 132.224 1523.36 132.128C1517.63 131.937 1509.42 131.65 1509.42 131.65C1508.94 134.516 1507.12 136.522 1504.26 137.573C1503.49 137.86 1502.73 138.051 1501.87 138.242C1495.57 139.484 1485.92 137.764 1474.65 133.465C1460.71 143.687 1454.31 144.451 1448.3 138.911C1446.96 138.911 1445.72 138.911 1444.48 138.815C1443.52 138.72 1442.66 138.72 1441.8 138.624C1441.42 138.624 1441.13 138.528 1440.75 138.433H1418.98C1418.98 138.433 1415.16 137.86 1412.48 136.427L1409.24 138.051L1392.05 140.343L1376.57 139.388C1376.57 139.388 1359.38 144.165 1351.55 143.591C1350.03 143.496 1348.88 143.114 1348.31 142.541C1347.83 142.063 1347.45 141.585 1347.26 141.108C1346.01 137.86 1351.27 134.803 1351.27 134.803C1351.27 134.803 1350.31 131.268 1346.87 132.128C1343.44 132.988 1339.23 137.955 1334.17 135.089C1329.21 132.128 1323.57 132.415 1318.41 134.325C1314.12 135.949 1307.34 141.49 1300.56 141.394C1299.6 141.394 1298.65 141.299 1297.79 141.012C1297.31 140.917 1296.93 140.726 1296.45 140.63C1288.43 137.478 1288.43 137.478 1288.43 137.478C1288.43 137.478 1281.65 137.478 1278.21 135.663C1276.49 134.707 1275.53 133.37 1276.68 131.268L1280.69 128.307C1261.5 120.378 1275.92 110.634 1292.92 111.303C1292.82 106.813 1297.02 103.756 1309.34 103.47C1298.36 85.7967 1310.01 79.874 1331.31 84.4593C1333.98 82.1667 1337.04 81.5935 1340.67 84.4593C1353.56 67.3598 1384.21 80.065 1370.46 97.4512C1374 96.687 1377.34 96.1138 1378.1 99.4573C1387.37 90.1911 1401.02 98.4065 1392.43 105.858C1393 105.571 1400.45 105.571 1403.31 106.717C1403.51 106.813 1403.7 106.813 1403.89 106.909C1404.08 106.909 1404.17 107.004 1404.27 107.004C1404.27 106.909 1404.27 106.813 1404.27 106.717C1404.65 103.087 1406.75 100.986 1411.53 101.368C1412.29 84.937 1433.59 80.3516 1437.69 92.1972C1440.56 89.2358 1444.19 88.8537 1448.49 91.4329C1453.55 77.1992 1476.18 85.5102 1476.28 94.6809C1483.54 93.9167 1487.26 96.3049 1481.82 107.004C1485.16 106.717 1488.5 106.431 1490.22 108.915C1491.65 108.055 1493.09 107.482 1494.71 107.959C1493.09 96.7825 1499.2 92.2927 1512.47 94.0122C1520.78 88.376 1527.75 88.0894 1532.72 97.1646C1546.18 100.413 1543.41 106.813 1531.76 115.028C1530.33 116.366 1528.32 117.703 1526.13 119.041Z" fill="#D7DCDC"></path><path d="M1528.8 132.224C1528.71 132.224 1526.32 132.224 1523.36 132.128C1517.63 131.937 1509.42 131.65 1509.42 131.65C1508.94 134.516 1507.12 136.522 1504.26 137.573C1503.49 137.86 1502.73 138.051 1501.87 138.242C1495.57 139.484 1485.92 137.764 1474.65 133.465C1460.71 143.687 1454.31 144.451 1448.3 138.911C1446.96 138.911 1445.72 138.911 1444.48 138.815C1443.52 138.72 1442.66 138.72 1441.8 138.624C1441.42 138.624 1441.13 138.528 1440.75 138.433H1418.98C1418.98 138.433 1415.16 137.86 1412.48 136.427L1409.24 138.051L1392.05 140.343L1376.57 139.388C1376.57 139.388 1359.38 144.165 1351.55 143.591C1350.03 143.496 1348.88 143.114 1348.31 142.541C1347.83 142.063 1347.45 141.585 1347.26 141.108C1346.01 137.86 1351.27 134.803 1351.27 134.803C1351.27 134.803 1350.31 131.268 1346.87 132.128C1343.44 132.988 1339.23 137.955 1334.17 135.089C1329.21 132.128 1323.57 132.415 1318.41 134.325C1314.12 135.949 1307.34 141.49 1300.56 141.394C1299.6 141.394 1298.65 141.299 1297.79 141.012C1297.31 140.917 1296.93 140.726 1296.45 140.63C1288.43 137.478 1288.43 137.478 1288.43 137.478C1288.43 137.478 1281.65 137.478 1278.21 135.663C1282.22 133.657 1288.14 132.51 1294.44 132.701C1294.35 128.211 1298.55 125.154 1310.87 124.868C1299.89 107.195 1311.54 101.272 1332.83 105.858C1335.51 103.565 1338.56 102.992 1342.19 105.858C1355.09 88.7581 1385.74 101.463 1371.99 118.85C1375.52 118.085 1378.87 117.512 1379.63 120.856C1388.89 111.589 1402.55 119.805 1393.96 127.256C1394.53 126.97 1401.98 126.97 1404.84 128.116C1405.03 128.211 1405.22 128.211 1405.42 128.307C1405.61 128.307 1405.7 128.402 1405.8 128.402C1405.8 128.307 1405.8 128.211 1405.8 128.116C1406.18 124.486 1408.28 122.384 1413.06 122.766C1413.82 106.335 1435.12 101.75 1439.22 113.596C1442.09 110.634 1445.72 110.252 1450.01 112.831C1455.08 98.5976 1477.71 106.909 1477.8 116.079C1485.06 115.315 1488.79 117.703 1483.34 128.402C1486.69 128.116 1490.03 127.829 1491.75 130.313C1493.18 129.453 1494.61 128.88 1496.24 129.358C1494.61 118.181 1500.73 113.691 1514 115.411C1520.97 110.634 1527.08 109.774 1531.86 115.028C1530.04 116.27 1528.04 117.608 1525.84 118.945C1525.75 119.041 1525.75 119.136 1525.65 119.136C1535.58 116.175 1542.84 127.352 1528.8 132.224Z" fill="#E6EBF0"></path></g><defs><clipPath id="clip0_9_2396"><rect width="1316" height="1269" fill="white" transform="translate(302 43)"></rect></clipPath></defs></svg> 