<?xml version="1.0" encoding="UTF-8"?> <svg xmlns="http://www.w3.org/2000/svg" width="1920" height="1356" viewBox="0 0 1920 1356" fill="none"><g clip-path="url(#clip0_73_598)"><path d="M509.809 1177.5L513.213 1101.25L545.594 1126.89L549.645 1188.95L509.809 1177.5Z" fill="#FAB4A5"></path><path d="M543.245 1206.5C537.055 1207.05 506.115 1209.5 504.561 1202.4C503.147 1195.9 505.233 1189.09 505.53 1188.16C508.499 1158.57 509.607 1158.24 510.28 1158.05C511.327 1157.74 514.4 1159.21 519.394 1162.41L519.708 1162.61L519.778 1162.98C519.857 1163.44 522.074 1174.33 532.55 1172.64C539.735 1171.49 542.066 1169.9 542.808 1169.14C542.039 1168.8 541.382 1168.25 540.914 1167.55C540.518 1166.86 540.276 1166.08 540.207 1165.29C540.138 1164.49 540.242 1163.68 540.512 1162.93C541.857 1158 545.899 1150.71 546.074 1150.44L547.086 1149.99L588.188 1177.72L613.017 1184.59C613.957 1184.86 614.826 1185.34 615.558 1185.99C616.291 1186.64 616.869 1187.44 617.251 1188.34C617.773 1189.59 617.894 1190.98 617.597 1192.3C617.3 1193.62 616.6 1194.82 615.593 1195.73C610.983 1199.88 601.825 1206.98 592.213 1207.85C589.655 1208.09 586.268 1208.18 582.47 1208.18C566.607 1208.18 543.428 1206.54 543.254 1206.51L543.245 1206.5Z" fill="#322D41"></path><path d="M650.846 1124.2L668.385 1191.66L703.472 1179.51L692.681 1113.4L650.846 1124.2Z" fill="#FAB4A5"></path><path d="M1590.19 716.977C1589.34 718.488 1588.58 720.047 1587.91 721.647C1586.38 725.333 1585.13 729.126 1584.15 732.995H1576.85C1576.89 732.367 1576.89 731.738 1576.85 731.11C1576.67 729.01 1576.23 726.941 1575.55 724.947C1574.64 722.286 1573.39 719.758 1571.81 717.431C1571.73 717.3 1571.64 717.169 1571.55 717.047C1569.4 713.869 1566.62 710.447 1564.16 707.331C1560.09 702.172 1556.86 697.816 1558.6 696.663C1559.62 695.974 1561.9 697.405 1564.37 699.509C1567.68 702.449 1570.8 705.595 1573.7 708.928C1573.7 708.928 1573.59 706.72 1573.29 703.691C1573.29 703.42 1573.24 703.158 1573.22 702.896V702.573C1573.22 702.442 1573.22 702.311 1573.22 702.18C1572.89 698.952 1572.37 695.745 1571.66 692.578C1571.66 692.43 1571.59 692.273 1571.55 692.133C1570.9 689.514 1570.09 687.393 1569.06 686.363C1568.05 685.187 1567.24 683.85 1566.68 682.408C1566.68 682.382 1566.68 682.356 1566.68 682.33C1563.78 675.687 1561.78 664.705 1566.26 668.433C1567.33 669.293 1568.26 670.312 1569.02 671.453C1569.42 672.08 1569.76 672.747 1570.03 673.443C1571.27 676.568 1571.36 680.287 1573.78 686.319L1577.55 695.764C1577.55 695.764 1577.47 694.952 1577.43 693.687C1577.43 692.875 1577.43 691.888 1577.43 690.789C1577.53 687.777 1577.97 684.058 1579.45 681.605C1582.28 676.883 1585.11 676.883 1583.22 671.217C1581.33 665.552 1584.02 656.482 1586.17 656.482C1587.21 656.482 1588.79 658.542 1589.59 661.056C1591.28 666.093 1590.47 671.531 1587.94 681.605C1584.17 696.707 1584.17 696.707 1583.22 699.535C1582.27 702.364 1583.7 705.646 1583.7 705.646C1583.7 705.646 1586.55 698.662 1590.31 697.152C1595.02 695.258 1598.84 690.815 1600.22 691.836C1601.71 693.041 1593.96 710.369 1590.19 716.977Z" fill="#D7DCDC"></path><path d="M1568.18 708.116H1589.88C1589.88 708.116 1595.55 737.369 1588.94 741.149C1581.17 745.592 1566.24 744.92 1566.24 732.655C1566.34 724.441 1566.99 716.244 1568.18 708.116Z" fill="#E6EBF0"></path><path d="M1591.75 699.02C1589.67 699.02 1590.1 698.095 1588.97 697.825C1587.85 697.554 1586.83 698.252 1585.23 700.766C1584.41 702.137 1583.67 703.56 1583.04 705.026C1583.04 705.026 1581.62 701.718 1582.57 698.916C1583.51 696.114 1583.51 696.087 1587.28 680.985C1589.58 671.793 1590.46 666.46 1589.31 661.781C1588.61 662.243 1588.23 664.277 1587.07 664.714C1584.02 665.849 1582.61 667.979 1583.43 670.44C1585.32 676.097 1584.18 677.686 1581.34 682.408C1578.51 687.131 1576.9 695.145 1576.9 695.145V695.092L1573.15 685.699C1570.73 679.667 1570.63 675.949 1569.39 672.823C1569.12 672.127 1568.78 671.46 1568.38 670.833C1568.38 670.819 1568.38 670.804 1568.38 670.789C1568.07 671.929 1567.6 673.017 1566.98 674.019C1564.93 676.533 1564.77 679.091 1566.71 680.802C1570.99 684.565 1571.02 686.511 1570.95 691.469L1571.05 691.915C1571.76 695.082 1572.28 698.289 1572.61 701.517C1572.61 701.753 1572.61 701.988 1572.68 702.233L1572.76 703.027C1573.06 706.091 1573.17 708.265 1573.17 708.265C1570.26 704.932 1567.15 701.783 1563.85 698.837C1563.28 701.997 1565.33 704.075 1564.48 705.611C1564.27 706.02 1563.97 706.377 1563.6 706.659C1566.07 709.784 1568.84 713.206 1570.99 716.375C1582.67 717.701 1578.6 724.414 1576.28 730.446C1576.33 731.074 1576.33 731.704 1576.28 732.332H1583.6C1583.6 732.332 1583.75 731.668 1584.06 730.586V730.534L1584.14 730.254V730.211C1584.22 729.914 1584.31 729.591 1584.41 729.25V729.146C1584.41 729.05 1584.46 728.945 1584.49 728.84V728.709C1584.49 728.604 1584.56 728.5 1584.59 728.386V728.316L1584.97 727.12V727.016L1585.1 726.614V726.553C1585.66 724.807 1586.35 722.904 1587.18 720.975C1587.84 719.375 1588.6 717.816 1589.45 716.305L1589.78 715.729L1589.87 715.554L1590.16 715.039L1590.23 714.899C1590.35 714.69 1590.47 714.463 1590.59 714.236L1590.7 714.026L1590.98 713.494C1591.03 713.415 1591.07 713.337 1591.1 713.258L1591.48 712.534C1591.48 712.446 1591.58 712.359 1591.62 712.263L1591.88 711.748L1592.06 711.39L1592.3 710.919C1592.41 710.7 1592.52 710.473 1592.63 710.246L1592.83 709.845L1593.09 709.33C1593.13 709.226 1593.18 709.124 1593.23 709.024L1594.11 707.113L1594.18 706.956C1596.09 702.991 1597.74 698.909 1599.14 694.734C1594.62 695.057 1593.85 699.02 1591.75 699.02Z" fill="#E6EBF0"></path><path d="M1620.35 741.978H1541.82V755.631H1620.35V741.978Z" fill="#D7DCDC"></path><path d="M1525.07 883.718H1521.91L1546.09 753.928H1554.62L1525.07 883.718Z" fill="#D7DCDC"></path><path d="M1580.87 860.436H1579.5L1576.81 755.631H1585.35L1580.87 860.436Z" fill="#D7DCDC"></path><path d="M1633.14 885.507H1630.87L1606.7 755.631H1615.23L1633.14 885.507Z" fill="#D7DCDC"></path><path d="M1668.01 883.333H1482.99V885.952H1668.01V883.333Z" fill="#E6EBF0"></path><path d="M1379.05 159.228H604.969V645.134H1379.05V159.228Z" fill="#D7DCDC"></path><path d="M1347.13 196.686H636.014V621.852H1347.13V196.686Z" fill="#E6EBF0"></path><path d="M762.707 146.143H841.69C844.408 146.143 847.015 147.222 848.937 149.144C850.859 151.066 851.939 153.673 851.939 156.391V163.951H752.414V156.391C752.414 155.041 752.681 153.705 753.198 152.459C753.716 151.213 754.475 150.081 755.431 149.129C756.388 148.177 757.523 147.423 758.771 146.91C760.02 146.398 761.357 146.137 762.707 146.143Z" fill="#D7DCDC"></path><path d="M1150.22 143H1229.2C1231.92 143 1234.52 144.08 1236.45 146.002C1238.37 147.924 1239.45 150.53 1239.45 153.248V160.799H1139.92V153.248C1139.92 151.899 1140.19 150.563 1140.71 149.316C1141.23 148.07 1141.98 146.939 1142.94 145.986C1143.9 145.034 1145.03 144.28 1146.28 143.768C1147.53 143.255 1148.87 142.994 1150.22 143Z" fill="#D7DCDC"></path><path d="M1077.12 455.068H989.144V400.614H1077.12V455.068ZM995.473 448.783H1070.88V406.882H995.473V448.783Z" fill="#D7DCDC"></path><path d="M1032.08 414.223H1006.94V420.508H1032.08V414.223Z" fill="#D7DCDC"></path><path d="M1054.07 425.746H1007.99V432.031H1054.07V425.746Z" fill="#D7DCDC"></path><path d="M1213.79 454.021H1107.49V399.601H1213.79V454.021ZM1113.78 447.735H1207.51V405.834H1113.78V447.735Z" fill="#D7DCDC"></path><path d="M1159.36 413.176H1128.58V419.461H1159.36V413.176Z" fill="#D7DCDC"></path><path d="M1186.29 424.698H1129.87V430.984H1186.29V424.698Z" fill="#D7DCDC"></path><path d="M691.058 335.196L681.804 279.65L688.002 278.62L693.406 311.041L704.45 281.58L716.192 306.232L732.518 289.916L737.896 297.982H822.099V304.267H734.534L731.54 299.772L714.35 316.969L705.14 297.642L691.058 335.196Z" fill="#D7DCDC"></path><path d="M918.454 345.112H684.902V351.397H918.454V345.112Z" fill="#D7DCDC"></path><path d="M918.454 384.901H684.902V391.186H918.454V384.901Z" fill="#D7DCDC"></path><path d="M824.194 419.461H684.902V425.746H824.194V419.461Z" fill="#D7DCDC"></path><path d="M1166.14 287.516H1016.37V293.801H1166.14V287.516Z" fill="#D7DCDC"></path><path d="M1168.76 309.505H1018.99V315.79H1168.76V309.505Z" fill="#D7DCDC"></path><path d="M1078.65 330.908L1043.04 388.507L1048.39 391.812L1083.99 334.212L1078.65 330.908Z" fill="#D7DCDC"></path><path d="M1121.74 331.023L1116.31 334.196L1148.78 389.702L1154.2 386.529L1121.74 331.023Z" fill="#D7DCDC"></path><path d="M763.266 768.446H535.432C534.337 768.446 533.45 769.333 533.45 770.427V775.298C533.45 776.393 534.337 777.28 535.432 777.28H763.266C764.36 777.28 765.247 776.393 765.247 775.298V770.427C765.247 769.333 764.36 768.446 763.266 768.446Z" fill="#322D41"></path><path d="M765.256 772.234C764.506 766.734 760.263 755.046 730.073 746.508C703.935 739.115 674.016 748.254 655.063 757.193C636.11 748.272 612.634 740.372 586.495 747.765C556.297 756.303 548.44 766.735 547.689 772.208L637.157 769.266L637.279 769.545L765.256 772.234Z" fill="#D7DCDC"></path><path d="M413.435 599.06L424.034 566.412L447.606 553.466C439.321 535.85 447.606 521.342 463.154 536.88C463.154 536.88 471.439 542.057 471.439 534.802C471.439 527.548 461.076 525.479 465.223 521.333C469.37 517.186 470.409 509.932 472.478 500.609C474.547 491.286 477.664 486.101 479.733 491.286C481.592 495.922 506.954 549.913 482.212 575.752C479.715 578.314 476.622 580.216 473.209 581.29C469.796 582.364 466.171 582.576 462.656 581.906L460.037 581.435L457.96 608.374H411.366L413.435 599.06Z" fill="#FAB4A5"></path><path d="M458.562 596.982C458.562 596.982 531.102 604.236 544.573 634.283C558.043 664.33 600.534 773.142 581.877 777.28C563.22 781.417 474.277 777.096 474.277 777.096L484.456 738.94L533.162 741.018L504.143 681.954L470.968 798.003L288.566 730.656C288.566 730.656 295.813 704.747 299.959 692.316C304.106 679.886 335.195 608.383 364.214 603.198C393.234 598.012 413.977 598.021 413.977 598.021C429.578 608.688 443.048 609.107 458.562 596.982Z" fill="#BE282D"></path><g opacity="0.1"><path d="M328.883 722.992L328.01 722.773L329.049 718.636C330.079 714.507 352.961 659.764 353.939 657.434L354.742 657.774C354.506 658.341 330.908 714.777 329.895 718.88L328.883 722.992Z" fill="#322D41"></path></g><path d="M289.92 924.423L501.602 923.366L456.371 742.423C452.215 725.837 436.623 714.384 419.145 715.144L271.368 721.568C258.229 722.136 248.748 734.095 251.471 746.674L289.92 924.423Z" fill="#E6EBF0"></path><path d="M630.015 1213L596.91 936.338H615.698L639.348 1213H630.015Z" fill="#D7DCDC"></path><path d="M442.499 1213L475.613 936.338H456.825L433.175 1213H442.499Z" fill="#D7DCDC"></path><path d="M284.987 1213L318.092 936.338H299.305L275.663 1213H284.987Z" fill="#D7DCDC"></path><path d="M945.047 777.28H622.761V798.003H945.047V777.28Z" fill="#E6EBF0"></path><path d="M642.648 777.28H462.849V798.003H642.648V777.28Z" fill="#D7DCDC"></path><path d="M781.835 796.965H769.403V1211.45H781.835V796.965Z" fill="#E6EBF0"></path><path d="M506.177 796.965H493.745V1211.45H506.177V796.965Z" fill="#D7DCDC"></path><path d="M476.136 841.528C476.136 841.528 595.627 868.764 608.775 879.868C622.403 891.33 703.472 1134.93 703.472 1134.93L650.854 1148.13L533.642 922.869H503.592L476.136 841.528Z" fill="#322D41"></path><path d="M507.129 1141.84L523.62 936.338L554.368 930.114L592.712 1014.05L550.344 1135.28L507.129 1141.84Z" fill="#322D41"></path><path d="M426.853 568.49C426.212 568.491 425.578 568.359 424.992 568.1C424.405 567.841 423.88 567.462 423.449 566.988C416.333 559.132 384.756 522.905 395.817 506.319C408.258 487.664 432.092 439.975 468.357 463.833C500.903 485.22 466.698 552.497 459.33 566.08C458.935 566.81 458.35 567.419 457.636 567.843C456.923 568.267 456.109 568.49 455.279 568.49H426.853Z" fill="#322D41"></path><path d="M630.016 921.306H292.181V936.33H630.016V921.306Z" fill="#E6EBF0"></path><path d="M289.92 924.423L501.602 923.366L456.371 742.423C452.215 725.837 436.623 714.384 419.145 715.144L271.368 721.568C258.229 722.136 248.748 734.095 251.471 746.674L289.92 924.423Z" fill="#E6EBF0"></path><path d="M292.085 924.423L502.039 923.367L457.183 746.02C453.062 729.739 437.601 718.548 420.262 719.29L273.69 725.584C260.656 726.143 251.253 737.866 253.951 750.192L292.085 924.423Z" fill="#D7DCDC"></path><path d="M695.737 1210.77C689.556 1211.32 658.607 1213.78 657.053 1206.68C655.639 1200.17 657.734 1193.37 658.022 1192.43C660.991 1162.84 662.099 1162.51 662.771 1162.33C663.828 1162.01 666.901 1163.48 671.886 1166.69L672.2 1166.9L672.27 1167.26C672.357 1167.73 674.566 1178.61 685.051 1176.91C692.227 1175.77 694.558 1174.18 695.3 1173.42C694.529 1173.08 693.871 1172.53 693.406 1171.83C693.01 1171.14 692.768 1170.36 692.699 1169.56C692.63 1168.76 692.734 1167.96 693.004 1167.21C694.358 1162.29 698.391 1154.98 698.566 1154.72L699.037 1153.85L740.13 1181.58L765.509 1188.84C766.451 1189.1 767.32 1189.58 768.053 1190.23C768.786 1190.88 769.364 1191.68 769.743 1192.58C770.27 1193.83 770.393 1195.22 770.095 1196.54C769.798 1197.86 769.095 1199.06 768.085 1199.97C763.475 1204.11 754.326 1211.21 744.705 1212.09C742.147 1212.33 738.768 1212.42 734.971 1212.42C719.099 1212.42 695.929 1210.77 695.754 1210.74L695.737 1210.77Z" fill="#322D41"></path><path d="M1204.27 859.694C1204.27 859.694 1177.2 962.544 1167.08 972.705C1156.97 982.866 1154.39 984.132 1154.39 984.132C1154.39 984.132 1153.41 996.144 1167.72 988.567C1178.51 982.858 1186.47 969.362 1187.4 963.819C1188.27 958.651 1231.84 860.986 1231.84 860.986L1204.27 859.694Z" fill="#FAC89B"></path><path d="M1280.5 855.661C1280.5 855.661 1274.45 961.828 1266.53 973.805C1258.61 985.782 1255.76 985.215 1255.76 985.215C1255.76 985.215 1264.76 1000.05 1271.85 986.035C1287.61 977.157 1284.44 966.289 1284.67 961.06C1284.91 955.831 1307.79 851.454 1307.79 851.454L1280.5 855.661Z" fill="#FAC89B"></path><path d="M1240.09 589.955C1240.09 589.955 1231.2 638.194 1226.12 671.2C1221.04 704.206 1195.65 859.083 1195.65 859.083C1195.65 875.014 1317.54 881.518 1330.23 864.164C1338.08 853.461 1339.11 697.859 1330.23 662.313C1321.34 626.767 1309.91 593.761 1309.91 593.761L1240.09 589.955Z" fill="#322D41"></path><path d="M1087.22 474.028C1086.69 474.028 1086.19 473.821 1085.81 473.452L969.474 359.83C969.29 359.653 969.143 359.44 969.043 359.204C968.943 358.969 968.892 358.715 968.892 358.46C968.892 358.204 968.943 357.95 969.043 357.715C969.143 357.479 969.29 357.267 969.474 357.089C969.852 356.723 970.358 356.518 970.884 356.518C971.411 356.518 971.916 356.723 972.294 357.089L1088.62 470.711C1088.81 470.889 1088.96 471.102 1089.06 471.337C1089.16 471.573 1089.21 471.826 1089.21 472.082C1089.21 472.338 1089.16 472.591 1089.06 472.826C1088.96 473.062 1088.81 473.275 1088.62 473.452C1088.44 473.636 1088.22 473.782 1087.98 473.881C1087.74 473.98 1087.48 474.03 1087.22 474.028Z" fill="#322D41"></path><path d="M1093.09 461.153C1090.59 459.994 1087.82 459.564 1085.1 459.913C1082.37 460.262 1079.8 461.376 1077.68 463.125C1075.12 465.325 1073.59 468.407 1075.7 472.527C1080.87 482.688 1083.46 482.688 1096.42 482.688C1109.38 482.688 1132.62 500.365 1132.62 500.365L1135.28 481.719L1093.09 461.153Z" fill="#FAC89B"></path><path d="M1256.59 404.612C1256.59 404.612 1246.43 383.033 1262.94 379.227C1279.45 375.421 1308.64 372.881 1317.53 386.839C1317.53 386.839 1337.85 398.266 1334.03 408.418C1330.22 418.57 1321.34 435.078 1323.88 441.433C1326.42 447.788 1345.46 459.197 1344.19 468.084C1342.93 476.97 1334.03 483.325 1334.03 483.325L1248.97 469.358C1248.01 468.939 1245.11 466.923 1254.68 463.64C1261.15 461.432 1254.68 450.948 1250.88 445.876C1247.07 440.804 1244.47 430.05 1248.34 421.748C1252.78 412.233 1261.04 411.596 1258.5 407.781C1255.96 403.966 1256.59 404.612 1256.59 404.612Z" fill="#7D501E"></path><path d="M1250.15 468.258C1251.42 468.258 1275 473.802 1276.27 467.455C1277.01 463.253 1277.01 458.956 1276.27 454.754C1276.27 454.754 1262.3 449.682 1261.04 434.449C1259.77 419.216 1255.96 393.823 1275.01 392.548C1294.06 391.274 1301.67 392.548 1304.21 405.241C1306.75 417.933 1308.02 423.014 1308.02 423.014C1316.27 421.111 1317.54 429.997 1309.29 434.441C1309.29 434.441 1302.94 448.408 1299.13 450.939L1295.32 453.479C1295.32 453.479 1294.06 468.712 1295.32 468.712C1296.59 468.712 1319.77 472.64 1319.77 472.64L1311.41 495.442C1291.53 507.785 1272.13 509.322 1253.38 492.823L1240.69 475.05L1250.15 468.258Z" fill="#FAC89B"></path><path d="M1251.51 476.97C1251.51 476.97 1236.28 553.143 1236.28 565.836C1236.4 574.016 1237.68 582.137 1240.09 589.955L1309.93 593.761L1312.47 577.263V478.245C1288.51 500.863 1267.35 500.47 1251.51 476.97Z" fill="#E6EBF0"></path><path d="M1134.71 480.785C1134.71 480.785 1171.53 503.63 1191.84 494.752C1212.16 485.874 1250.24 463.021 1252.78 469.367C1255.32 475.713 1237.55 578.555 1237.55 578.555C1237.55 578.555 1225.49 576.651 1229.3 555.072C1233.1 533.493 1231.84 504.293 1231.84 504.293C1231.84 504.293 1207.71 533.493 1178.51 523.332C1149.31 513.171 1131.53 500.487 1131.53 500.487C1130.49 492.744 1131.23 486.023 1134.71 480.785Z" fill="#BE282D"></path><path d="M1311.81 478.882C1312.45 471.418 1318 472.344 1318 472.344C1318 472.344 1334.67 472.527 1339.75 489.034C1344.83 505.542 1352.44 547.425 1352.44 547.425L1361.33 538.548L1379.11 547.425C1379.11 547.425 1366.41 577.9 1358.79 577.9C1351.17 577.9 1337.21 577.9 1324.52 537.273C1324.52 537.273 1324.52 598.204 1316.9 595.673C1309.27 593.141 1309.28 591.858 1309.28 591.858C1309.28 591.858 1311.19 486.337 1311.81 478.882Z" fill="#BE282D"></path><path d="M1386.08 469.358L1379.74 508.71L1401.95 504.581L1417.19 457.608L1386.08 469.358Z" fill="#D7DCDC"></path><path d="M1351.17 458.246L1386.08 469.358L1379.74 508.71L1342.92 502.364L1351.17 458.246Z" fill="#E6EBF0"></path><path d="M1370.22 523.306L1362.87 539.316C1365.62 543.13 1370.05 545.086 1375.68 545.714L1381.65 527.121L1388.14 511.958C1391.57 503.962 1386.3 494.612 1377.67 494.01C1374.73 493.8 1372.32 494.743 1371.55 497.921C1368.95 508.073 1370.22 523.306 1370.22 523.306Z" fill="#FAC89B"></path><path d="M1183.66 974.765L1184.98 991.63H1186.73C1186.73 991.63 1191.36 966.952 1190.03 963.583C1188.93 960.79 1188.44 960.842 1188.44 960.842C1188.44 960.842 1170.76 985.537 1165.74 986.541C1160.72 987.545 1155.14 983.591 1155.14 983.591C1155.14 983.591 1148.56 984.839 1150.78 989.57C1152.99 994.302 1169.22 997.488 1174.43 991.246C1179.65 985.005 1183.66 974.765 1183.66 974.765Z" fill="#322D41"></path><path d="M1284 975.839L1285.07 991.631H1287.21C1287.21 991.631 1289.19 970.959 1287.85 967.59C1287.1 965.809 1286.02 964.188 1284.66 962.815C1284.66 962.815 1272.11 986.952 1267.13 987.956C1262.16 988.96 1256.53 985.014 1256.53 985.014C1256.53 985.014 1249.94 986.262 1252.17 990.985C1254.4 995.707 1270.62 998.902 1275.83 992.67C1281.04 986.437 1284 975.839 1284 975.839Z" fill="#322D41"></path></g><defs><clipPath id="clip0_73_598"><rect width="1417" height="1070" fill="white" transform="translate(251 143)"></rect></clipPath></defs></svg> 