<?xml version="1.0" encoding="UTF-8"?> <svg xmlns="http://www.w3.org/2000/svg" width="1180" height="1153" viewBox="0 0 1180 1153" fill="none"><path d="M765 1153C861.65 1153 940 1126.58 940 1094C940 1061.42 861.65 1035 765 1035C668.35 1035 590 1061.42 590 1094C590 1126.58 668.35 1153 765 1153Z" fill="#E6EBF0"></path><g opacity="0.3"><path d="M579.645 0.196777H1.21045V372.321H579.645V0.196777Z" fill="#E6EBF0"></path><path d="M1178.36 0.196777H599.926V372.321H1178.36V0.196777Z" fill="#E6EBF0"></path><path d="M1178.36 388.915H599.926V761.028H1178.36V388.915Z" fill="#E6EBF0"></path><path d="M579.645 388.915H1.21045V761.017H579.645V388.915Z" fill="#E6EBF0"></path></g><path d="M1180 760H0V766H1180V760Z" fill="#D7DCDC"></path><path d="M173.089 787H122.078C121.882 786.99 121.693 786.93 121.528 786.825C121.362 786.72 121.227 786.574 121.135 786.401C121.042 786.228 120.996 786.034 121 785.837C121.005 785.641 121.059 785.449 121.159 785.28L133.776 766.49C133.878 766.342 134.013 766.221 134.171 766.135C134.329 766.05 134.504 766.004 134.683 766H183.926C184.114 766.01 184.297 766.067 184.458 766.166C184.619 766.265 184.753 766.402 184.847 766.566C184.942 766.73 184.994 766.915 185 767.105C185.005 767.294 184.963 767.482 184.878 767.651L174.064 786.453C173.962 786.621 173.819 786.76 173.648 786.856C173.477 786.951 173.284 787.001 173.089 787Z" fill="#D7DCDC"></path><path d="M499.916 785H451.712C451.518 784.996 451.329 784.941 451.161 784.841C450.994 784.741 450.854 784.599 450.756 784.428L441.117 767.044C441.034 766.871 440.994 766.68 441.001 766.487C441.007 766.294 441.06 766.106 441.155 765.94C441.25 765.773 441.383 765.633 441.543 765.532C441.703 765.432 441.885 765.373 442.073 765.362L487.501 765C487.678 765.001 487.853 765.045 488.011 765.129C488.169 765.212 488.306 765.332 488.411 765.479L500.826 783.213C500.932 783.385 500.991 783.584 500.999 783.787C501.007 783.991 500.963 784.194 500.87 784.374C500.778 784.555 500.642 784.708 500.474 784.818C500.307 784.928 500.114 784.99 499.916 785Z" fill="#D7DCDC"></path><path d="M561.356 664H53.6442C48.3178 664 44 668.375 44 673.772V675.228C44 680.625 48.3178 685 53.6442 685H561.356C566.682 685 571 680.625 571 675.228V673.772C571 668.375 566.682 664 561.356 664Z" fill="#D7DCDC"></path><path d="M157.11 779H149.89C148.072 779 146.328 778.283 145.038 777.006C143.747 775.728 143.015 773.993 143 772.179V681H164V772.122C164.007 773.028 163.834 773.925 163.491 774.763C163.147 775.601 162.64 776.362 161.999 777.002C161.357 777.642 160.595 778.149 159.755 778.492C158.916 778.835 158.017 779.007 157.11 779Z" fill="#E6EBF0"></path><path d="M473.053 777H465.833C464.025 776.985 462.296 776.269 461.018 775.007C459.74 773.744 459.015 772.036 459 770.25V681H480V770.194C480 771.093 479.82 771.982 479.47 772.812C479.12 773.641 478.608 774.394 477.962 775.026C477.316 775.659 476.55 776.159 475.707 776.498C474.865 776.837 473.963 777.007 473.053 777Z" fill="#E6EBF0"></path><path d="M543 650H399.052L395.004 531.632C394.97 530.622 395.144 529.617 395.515 528.678C395.887 527.738 396.448 526.884 397.164 526.169C397.881 525.454 398.737 524.893 399.68 524.521C400.623 524.148 401.633 523.972 402.647 524.004L527.817 527.806C529.566 527.858 531.239 528.524 532.543 529.685C533.846 530.846 534.695 532.428 534.939 534.152C536.692 546.527 540.535 574.294 541.451 586.884C542.661 603.355 543 650 543 650Z" fill="#E6EBF0"></path><path d="M605.856 677.885L425.441 679C425.441 679 419.324 667.038 414.734 661.018C410.143 654.998 400.318 655.444 400.318 655.444C400.318 655.444 386.75 639.948 446.674 645.02C461.372 646.269 561.806 646.135 561.806 646.135C578.076 648.364 607.936 661.486 605.901 677.907L605.856 677.885Z" fill="#E6EBF0"></path><path d="M402.024 678H221.382C220.485 678 219.625 677.645 218.99 677.012C218.356 676.379 218 675.521 218 674.626V672.241C218 664.751 220.982 657.568 226.29 652.272C231.599 646.975 238.798 644 246.305 644H373.865C382.123 644 390.042 647.273 395.881 653.099C401.72 658.924 405 666.826 405 675.065C404.991 675.846 404.674 676.593 404.117 677.142C403.559 677.692 402.807 678 402.024 678Z" fill="#E6EBF0"></path><path d="M386 645.997L232 647L235.025 530.311C235.025 529.482 235.189 528.662 235.508 527.896C235.827 527.13 236.294 526.435 236.884 525.848C237.473 525.262 238.172 524.798 238.942 524.48C239.712 524.163 240.537 524 241.37 524H376.075C376.908 524 377.733 524.163 378.503 524.48C379.273 524.798 379.972 525.262 380.561 525.848C381.15 526.435 381.618 527.13 381.937 527.896C382.256 528.662 382.42 529.482 382.42 530.311L386 645.997Z" fill="#E6EBF0"></path><path d="M76 650H219.938L223.996 530.689C224.03 529.673 223.856 528.66 223.485 527.713C223.113 526.766 222.552 525.906 221.836 525.186C221.12 524.465 220.263 523.9 219.321 523.525C218.378 523.149 217.368 522.972 216.354 523.004L91.1816 526.881C89.434 526.935 87.7615 527.606 86.4588 528.776C85.1561 529.945 84.3066 531.538 84.06 533.274C82.3078 545.744 78.4756 573.721 77.5487 586.405C76.3391 602.99 76 650 76 650Z" fill="#E6EBF0"></path><path d="M13.1339 677.885L193.548 679C193.548 679 199.665 667.038 204.255 661.018C208.845 654.998 218.671 655.444 218.671 655.444C218.671 655.444 232.295 639.948 172.315 645.02C157.617 646.269 57.1944 646.135 57.1944 646.135C40.9134 648.364 11.0536 661.497 13.1 677.919L13.1339 677.885Z" fill="#E6EBF0"></path><path d="M1098 769.5C1097.92 773.316 1086.16 775.68 1071.63 776.593L1069.07 776.736L1066.79 776.846L1064.13 776.923C1062.83 776.923 1061.53 776.989 1060.21 777H1057.27C1055.88 777 1054.48 777 1053.1 777L1049.52 776.912L1046.7 776.802L1043.51 776.626C1041.5 776.505 1039.53 776.351 1037.64 776.175L1035.36 775.922L1034.69 775.856C1033.57 775.724 1032.49 775.581 1031.43 775.427C1022.9 774.174 1017.05 772.205 1017 769.522C1017 767.674 1019.81 766.157 1024.31 764.991C1026.6 764.417 1028.91 763.962 1031.25 763.628L1032.89 763.397C1034.63 763.177 1036.46 762.968 1038.37 762.792C1039.45 762.693 1040.56 762.605 1041.68 762.528L1043.21 762.429C1044.46 762.341 1045.73 762.275 1047.02 762.22L1050.05 762.099C1051.96 762.048 1053.87 762.015 1055.77 762H1058.84L1062.97 762.055C1064.02 762.055 1065.06 762.055 1066.09 762.154C1067.7 762.154 1069.29 762.286 1070.85 762.374L1073.79 762.572C1087.31 763.54 1097.93 765.86 1098 769.5Z" fill="#D7DCDC"></path><path d="M1105 683L1091.85 773H1026.15L1013 683H1105Z" fill="#E6EBF0"></path><path d="M1105 682.017C1104.9 686.542 1091.56 689.416 1075.06 690.502L1072.17 690.683L1069.56 690.808C1068.56 690.808 1067.56 690.887 1066.53 690.909C1065.07 690.909 1063.58 690.989 1062.09 691H1058.75C1057.17 691 1055.59 691 1054.02 690.943C1052.66 690.943 1051.3 690.943 1049.95 690.842C1048.82 690.842 1047.82 690.751 1046.76 690.706C1045.53 690.649 1044.33 690.581 1043.14 690.502C1040.86 690.355 1038.59 690.174 1036.49 689.959L1033.84 689.665L1033.09 689.574C1031.81 689.416 1030.58 689.246 1029.39 689.065C1019.7 687.572 1013.06 685.219 1013 681.994C1013 679.732 1016.19 677.978 1021.3 676.575C1023.89 675.888 1026.52 675.348 1029.17 674.957L1031.03 674.674C1033.01 674.403 1035.08 674.161 1037.25 673.95L1041.01 673.634L1042.75 673.509C1044.17 673.407 1045.61 673.328 1047.07 673.26C1048.2 673.26 1049.34 673.158 1050.48 673.124C1052.64 673.057 1054.82 673.011 1057.01 673H1060.49C1062.06 673 1063.62 673 1065.17 673.068L1068.72 673.181C1070.55 673.249 1072.34 673.339 1074.11 673.453L1077.45 673.679C1092.86 674.889 1104.92 677.673 1105 682.017Z" fill="#D7DCDC"></path><path d="M1078.9 674.999C1076.5 675.03 1074.16 674.234 1072.3 672.752C1071.41 672.078 1070.67 671.242 1070.11 670.291C1068.38 670.291 1069.1 663.932 1069.45 662.775C1072.59 647.764 1090.86 636.933 1105.94 637C1117.62 637.607 1116.62 649.809 1110.73 656.584C1103.15 666.033 1091.33 673.808 1078.9 674.999Z" fill="#E6EBF0"></path><path d="M1029.24 657C1022.53 657 1016.09 653.839 1010.38 650.417L1010.04 650.201H1010.13L1009.92 650.075H1010.01L1009.61 649.825L1009.69 649.882L1009.45 649.723H1009.53L1009.36 649.609C1006.83 647.983 1004.48 646.076 1002.37 643.924C993.08 634.419 996.067 622.832 1009.62 621.184H1009.8L1011.04 621.058H1010.95C1019.75 620.547 1028.61 623.446 1036.19 627.881C1038.5 629.131 1040.51 630.874 1042.09 632.99C1043.67 635.106 1044.79 637.544 1045.35 640.138C1046.29 644.686 1046.98 652.963 1041.66 654.533H1041.76C1037.76 656.095 1033.52 656.93 1029.24 657Z" fill="#E6EBF0"></path><path d="M1116.04 531.951C1110.28 525.585 1099.1 531.031 1092.82 534.197C1081.2 540.878 1073.82 550.568 1071.12 563.75C1070.36 566.817 1069.99 569.966 1070 573.126C1070.02 575.835 1070.22 578.539 1070.6 581.222C1070.6 581.918 1070.7 582.603 1070.71 583.299C1070.71 583.386 1070.75 583.468 1070.82 583.527C1070.88 583.585 1070.97 583.617 1071.06 583.613C1071.71 583.456 1071.27 582.086 1071.34 581.547C1071.73 582.079 1072.23 582.526 1072.8 582.861C1074.33 583.697 1076.06 584.086 1077.8 583.984C1082.21 583.759 1085.88 580.84 1089.29 578.37C1093.88 575.392 1098.08 571.862 1101.81 567.86C1108.18 560.371 1123.38 541.507 1116.04 531.951ZM1071.27 579.459L1071.16 579.38V579.122C1071.17 579.291 1071.23 579.392 1071.27 579.459Z" fill="#E6EBF0"></path><path d="M1122.92 606.346C1121.18 595.271 1106.49 599.456 1099.02 601.498C1087.94 604.865 1077.95 612.899 1073.59 623.66C1072.31 627.52 1070.85 632.457 1073.42 636.081C1073.47 636.168 1073.55 636.237 1073.65 636.279C1073.74 636.321 1073.85 636.333 1073.95 636.315C1074.05 636.297 1074.15 636.249 1074.22 636.177C1074.3 636.106 1074.35 636.014 1074.37 635.913C1082.94 642.342 1095.2 632.221 1102.97 628.35C1108.01 625.5 1113.47 623.087 1117.69 619.07C1120.9 615.726 1123.48 611.07 1122.92 606.346Z" fill="#E6EBF0"></path><path d="M1047.55 553.275C1046.1 544.936 1040.59 538.565 1034.2 533.314C1031.62 530.962 1028.7 529.008 1025.53 527.52C1018.22 524.39 1009.97 524.167 1002.49 526.898C996.129 529.67 992.245 535.951 997.359 541.869C1004.27 549.632 1015.41 551.171 1023.81 556.749C1030.23 560.687 1040.4 570.328 1046.59 561.174C1046.7 561.169 1046.81 561.133 1046.9 561.068C1046.99 561.004 1047.05 560.915 1047.09 560.812C1047.59 559.639 1047.85 558.383 1047.88 557.111C1047.78 556.466 1048.2 555.72 1047.88 555.154C1047.74 554.464 1047.63 553.785 1047.55 553.275Z" fill="#E6EBF0"></path><path d="M1115.87 498.063C1107.78 497.335 1099.68 503.079 1093.26 507.457C1090.7 509.348 1088.26 511.378 1085.93 513.538L1085.85 513.616L1085.34 514.109L1085.16 514.277L1085.08 514.344L1084.93 514.478C1078.24 521.074 1072.02 528.632 1068.76 537.511C1068.64 537.814 1068.53 538.127 1068.43 538.441C1066.92 540.938 1066.43 543.804 1065.59 546.548C1065.42 547.108 1065.25 547.667 1065.03 548.216C1064.98 548.365 1064.99 548.528 1065.05 548.671C1065.12 548.815 1065.23 548.929 1065.38 548.989H1065.48C1065.62 549.016 1065.76 548.994 1065.88 548.926C1066 548.858 1066.09 548.749 1066.14 548.619C1066.81 546.547 1067.62 544.523 1068.56 542.561C1068.56 542.483 1068.64 542.393 1068.68 542.304C1070.04 539.165 1071.96 536.306 1074.36 533.872C1077.45 530.726 1081.62 529.337 1085.64 527.803C1092.69 524.545 1100.14 521.891 1106.63 517.535C1109.14 515.676 1111.65 513.806 1114.02 511.768L1114.11 511.668L1114.22 511.567C1117.7 508.532 1122.09 500.694 1115.87 498.063Z" fill="#E6EBF0"></path><path d="M1074.88 468.968C1069.34 476.872 1065.04 485.582 1062.13 494.795C1061.32 497.921 1060.94 501.144 1061.01 504.373C1060.98 509.962 1062.78 515.405 1066.14 519.869L1066.92 520.734L1067.2 521.014C1067.6 521.438 1068.09 521.771 1068.63 521.991C1069.85 522.126 1068.41 520.655 1068.12 520.307C1068.33 520.255 1068.51 520.127 1068.63 519.948C1069.01 520.203 1069.42 520.407 1069.85 520.554C1073.43 521.812 1077.2 518.971 1079.85 516.635C1090 507.652 1094.69 494.177 1097.94 481.331C1105.59 456.706 1090.55 447.634 1074.88 468.968ZM1067.04 518.881L1066.85 518.623C1066.93 518.689 1067.01 518.749 1067.09 518.802L1067.04 518.881Z" fill="#E6EBF0"></path><path d="M1061.18 691.989C1058.92 691.797 1060.61 685.89 1060.57 684.26C1061.09 679.87 1061.58 675.479 1061.99 671.077C1063.24 658.415 1061.91 645.673 1061.99 632.977C1062.34 633.214 1062.27 632.558 1062.31 632.354C1062.62 632.241 1062.47 631.789 1062.49 631.54C1062.32 628.043 1062.27 624.546 1062.21 621.039C1062.08 612.405 1062.6 603.771 1062.83 595.148C1063.03 589.43 1063.25 583.719 1063.49 578.016C1064.32 578.118 1063.96 576.454 1064.11 575.9C1064.35 571.52 1064.35 567.13 1064.11 562.751C1065.24 538.738 1065.48 514.274 1072.25 491.02C1076.19 479.195 1081.01 463.16 1093.63 458.204C1094.04 458.102 1094.88 457.74 1095 458.328C1095 458.6 1094.74 458.702 1094.51 458.656C1094.16 458.705 1093.81 458.8 1093.47 458.939C1089.75 460.595 1086.63 463.362 1084.55 466.86C1080.13 473.469 1077.76 481.118 1075.5 488.655C1069.97 506.76 1068.38 525.714 1067.8 544.521C1067.21 560.748 1066.5 576.975 1065.91 593.179V592.975C1065.12 612.914 1064.65 632.864 1065.41 652.813C1065.99 662.851 1064.97 672.854 1063.72 682.812C1063.34 685.528 1063.19 688.277 1062.59 690.959C1062.54 691.28 1062.36 691.565 1062.09 691.757C1061.83 691.949 1061.5 692.032 1061.18 691.989Z" fill="#E6EBF0"></path><path d="M1062.55 689.752C1062.39 689.623 1062.26 689.462 1062.17 689.28C1062.07 689.097 1062.02 688.897 1062 688.691C1061.99 688.485 1062.02 688.278 1062.08 688.083C1062.15 687.889 1062.26 687.71 1062.39 687.56L1062.31 687.719C1064.67 682.353 1066.56 676.725 1069.78 671.736L1069.69 671.873L1070.15 671.142L1070.24 670.993C1078.04 657.293 1091.01 646.355 1106.26 642.839C1107.14 642.77 1110.92 641.343 1111 642.371C1111 642.645 1110.7 642.69 1110.48 642.656H1110.31C1109.72 642.744 1109.14 642.866 1108.57 643.022C1090.16 647.931 1076.76 661.54 1069 678.985L1068.92 679.157C1067.88 681.52 1066.93 683.929 1065.99 686.349C1065.48 687.811 1064.59 690.893 1062.55 689.752Z" fill="#E6EBF0"></path><path d="M1064.63 694H1060.43C1059.9 692.807 1059.86 691.452 1060.31 690.228L1060.48 689.783C1060.72 688.729 1060.67 687.078 1061.54 686.375C1061.78 686.164 1062.08 686.04 1062.4 686.023C1062.43 685.809 1062.51 685.605 1062.64 685.433C1062.77 685.26 1062.94 685.125 1063.14 685.04C1063.36 684.987 1063.59 684.987 1063.81 685.04C1064.04 685.087 1064.26 685.192 1064.45 685.344C1064.64 685.498 1064.79 685.703 1064.88 685.937C1064.96 686.17 1064.98 686.423 1064.94 686.668C1064.9 687.335 1064.9 688.003 1064.94 688.671V688.987C1065.08 690.664 1064.98 692.353 1064.63 694Z" fill="#E6EBF0"></path><path d="M1065.66 694H1063.14C1063.04 693.84 1062.98 693.66 1062.96 693.474C1062.89 693.005 1062.84 692.513 1062.78 692.033C1062.72 691.552 1062.63 690.763 1062.54 690.134C1062.45 689.504 1062.38 688.875 1062.29 688.246L1062.05 686.542C1061.88 685.398 1061.73 684.334 1061.55 683.224C1061.55 683.11 1061.55 683.007 1061.55 682.904C1061.17 680.719 1060.74 678.546 1060.21 676.395C1059.18 672.029 1057.64 667.804 1055.6 663.812C1055.6 663.782 1055.6 663.751 1055.6 663.721C1055.59 663.668 1055.56 663.618 1055.53 663.572C1055.42 663.389 1055.32 663.206 1055.23 663.011C1052.78 658.462 1049.73 654.265 1046.18 650.531C1039.14 643.179 1030.44 637.661 1020.83 634.448C1013.83 632.121 1006.54 630.807 999.177 630.547C998.045 629.826 1002.7 630.021 1003.23 630.032C1019.37 630.822 1034.73 637.297 1046.64 648.335C1054.23 655.273 1059.78 664.184 1062.7 674.096C1062.91 674.874 1063.12 675.663 1063.3 676.384C1063.41 676.83 1063.5 677.265 1063.6 677.711C1064 679.518 1064.35 681.325 1064.65 683.144L1065.02 685.432C1065.18 686.576 1065.32 687.628 1065.48 688.738C1065.49 688.822 1065.49 688.906 1065.48 688.99C1065.66 690.305 1065.82 691.621 1065.99 692.936C1066.01 693.127 1065.99 693.32 1065.94 693.503C1065.88 693.686 1065.79 693.855 1065.66 694Z" fill="#E6EBF0"></path><path d="M1062.75 673C1062.53 672.974 1062.33 672.863 1062.19 672.691C1062.05 672.518 1061.98 672.298 1062 672.078C1062.11 670.155 1062.29 668.243 1062.48 666.387C1063.38 650.704 1068.47 636.329 1078.63 624.185C1088.32 612.712 1102.77 600.932 1118.54 601H1118.37C1119.14 601.059 1119.9 601.162 1120.66 601.308C1120.7 601.307 1120.75 601.317 1120.79 601.336C1120.84 601.356 1120.88 601.384 1120.91 601.419C1120.94 601.455 1120.97 601.497 1120.98 601.542C1121 601.587 1121 601.636 1121 601.683C1120.98 601.773 1120.94 601.854 1120.86 601.909C1120.79 601.964 1120.7 601.989 1120.61 601.979C1116.8 602.634 1113.06 603.59 1109.4 604.836H1109.56C1088.98 612.678 1073.61 631.013 1067.18 651.739C1065.21 658.441 1063.99 665.344 1063.57 672.317C1063.53 672.508 1063.43 672.68 1063.28 672.805C1063.13 672.929 1062.94 672.998 1062.75 673Z" fill="#E6EBF0"></path><path d="M1062.33 628.899C1060.56 607.586 1065.92 586.287 1077.6 568.235L1077.5 568.37C1077.84 567.864 1078.17 567.357 1078.49 566.85L1078.57 566.726L1078.48 566.861C1080.71 563.442 1083.14 560.158 1085.78 557.028L1085.89 556.882L1086 556.758L1086.47 556.206L1086.56 556.105L1086.68 555.958L1086.99 555.609C1093.74 548.052 1100.96 539.841 1110.64 536C1110.74 536 1110.83 536.037 1110.9 536.102C1110.96 536.168 1111 536.257 1111 536.349C1111 536.442 1110.96 536.531 1110.9 536.596C1110.83 536.662 1110.74 536.698 1110.64 536.698C1107.68 538.516 1104.91 540.63 1102.39 543.006V542.949C1074.62 568.325 1065.44 592.823 1062.33 629C1062.33 628.966 1062.33 628.932 1062.33 628.899Z" fill="#E6EBF0"></path><path d="M1066.15 594.399C1065.98 588.294 1065.6 582.205 1065 576.156C1065.1 573.108 1065.14 570.048 1065.13 567C1066.05 574.852 1066.63 582.781 1066.88 590.739C1066.93 591.894 1066.97 593.152 1067 594.353C1067 594.52 1066.96 594.681 1066.88 594.802C1066.8 594.923 1066.7 594.994 1066.58 595C1066.47 595.003 1066.36 594.942 1066.28 594.83C1066.2 594.717 1066.15 594.563 1066.15 594.399Z" fill="#E6EBF0"></path><path d="M1058.83 549.398C1058.56 548.506 1058.28 547.627 1058 546.747C1058.17 544.831 1058.35 542.916 1058.56 541C1058.56 541.241 1058.72 541.482 1058.79 541.723C1058.9 544.482 1058.96 547.241 1059 550L1058.83 549.398Z" fill="#E6EBF0"></path><path d="M1057.03 543.036C1056.58 541.377 1056.12 539.719 1055.65 538.06C1055.65 537.608 1055.49 534.098 1054.77 535.125C1054.52 534.302 1054.26 533.466 1054 532.643C1054.1 530.769 1054.2 528.907 1054.35 527C1055.69 531.176 1056.9 535.392 1058 539.651C1057.83 541.434 1057.7 543.217 1057.57 545C1057.4 544.379 1057.22 543.691 1057.03 543.036Z" fill="#E6EBF0"></path><path d="M1053.33 531.28C1050.31 522.055 1046.14 513.256 1040.93 505.095C1039.48 502.851 1037.88 500.717 1036.13 498.709C1035.7 498.271 1036.46 497.675 1036.77 498.215C1045.25 505.624 1050.49 515.922 1054 526.536C1053.81 528.357 1053.69 530.179 1053.58 532C1053.44 531.764 1053.33 531.528 1053.33 531.28Z" fill="#E6EBF0"></path><path d="M1065.21 596.414C1063.47 590.351 1061.15 584.473 1058.29 578.862V578.952C1053.93 570.735 1047.57 563.894 1040.94 557.506C1029.95 546.748 1016.53 538.881 1002.25 533.508C1002.19 533.504 1002.14 533.482 1002.09 533.443C1002.05 533.405 1002.02 533.354 1002.01 533.296C1001.99 533.239 1002 533.179 1002.02 533.126C1002.05 533.072 1002.09 533.028 1002.14 533C1007.96 533.928 1013.6 535.731 1018.89 538.35C1024.82 541.234 1030.37 544.859 1035.41 549.141L1035.28 549.04C1040.55 553.499 1045.52 558.303 1050.16 563.42L1050.05 563.307C1054.86 568.514 1058.81 574.476 1061.74 580.961C1063.77 585.821 1065.52 590.796 1066.98 595.861C1067.03 596.09 1066.99 596.331 1066.87 596.534C1066.76 596.737 1066.57 596.888 1066.35 596.958C1066.13 597.028 1065.89 597.01 1065.68 596.91C1065.47 596.809 1065.3 596.632 1065.21 596.414Z" fill="#E6EBF0"></path><path d="M1066 544.667C1066.9 541.569 1068.25 538.622 1070.01 535.92V535.84C1073.71 529.952 1078.79 525.073 1083.78 520.275H1083.71C1086.98 517.374 1090.39 514.642 1093.94 512.091L1094.04 512.022L1095.01 511.334C1100.75 507.064 1107.3 503.987 1113.81 501.003C1113.84 500.996 1113.88 501.001 1113.91 501.018C1113.95 501.035 1113.97 501.063 1113.99 501.096C1114 501.129 1114 501.167 1113.99 501.202C1113.99 501.237 1113.96 501.268 1113.93 501.29C1111.31 502.438 1108.7 503.746 1106.16 505.124C1091.55 513.302 1079.15 524.916 1070.04 538.962L1069.63 539.616C1068.59 541.258 1067.66 542.957 1066.69 544.644C1066.69 544.735 1066.66 544.824 1066.6 544.891C1066.53 544.958 1066.45 544.997 1066.36 545C1066.26 545.003 1066.18 544.97 1066.11 544.907C1066.04 544.845 1066 544.758 1066 544.667Z" fill="#E6EBF0"></path><path d="M1066.6 522.251C1066.6 521.804 1066.49 521.346 1066.42 520.899C1065.67 514.961 1063.66 509.264 1060.52 504.215C1057.93 500.124 1054.16 496.968 1049.73 495.192C1047.46 494.133 1044.94 493.769 1042.48 494.143C1040.02 494.517 1037.71 495.613 1035.85 497.299C1033.51 499.417 1031.91 502.254 1031.29 505.383C1030.27 510.754 1032.09 516.17 1034.28 520.991C1039.15 529.774 1048.6 551.325 1058.85 552.974H1059.03C1059.32 553.009 1059.61 553.009 1059.9 552.974H1060.03L1060.29 552.905C1062.6 552.218 1063.28 549.012 1063.75 546.744C1064.34 545.392 1064.83 543.999 1065.22 542.576C1065.63 541.076 1065.95 539.553 1066.21 537.996C1067.11 532.798 1067.24 527.489 1066.6 522.251Z" fill="#E6EBF0"></path><path d="M1056.89 626.994C1051.48 626.571 1048.6 621.454 1046.26 617.195C1044.63 614.31 1042.88 611.471 1041.16 608.678C1036.47 600.664 1023.48 582.21 1031.62 573.934C1035.84 567.981 1045.16 572.526 1050.3 575.01C1055.99 578.151 1060.6 582.941 1063.51 588.747L1063.66 589.033V588.93C1069.63 598.363 1074.13 627.464 1056.89 626.994Z" fill="#E6EBF0"></path><path d="M1064.34 651.666C1060.26 632.867 1055.41 613.943 1045.92 596.991V597.059L1045.85 596.924C1042.23 590.089 1037.6 583.822 1032.11 578.327C1032.07 578.312 1032.04 578.289 1032.02 578.26C1031.89 577.786 1032.54 578.068 1032.73 578.26C1038.58 582.574 1043.03 588.465 1046.96 594.457C1058.28 611.86 1063.61 632.281 1066 652.635L1064.85 655C1064.76 653.896 1064.57 652.781 1064.34 651.666Z" fill="#E6EBF0"></path><path d="M1065.12 588.709C1065.04 587.34 1064.93 585.959 1064.8 584.59C1063.74 575.18 1062.1 565.848 1059.88 556.65V556.559V556.411L1059.78 555.977C1059.78 556.008 1059.78 556.038 1059.78 556.069C1059.78 555.954 1059.78 555.829 1059.7 555.715C1055.11 535.179 1046.32 515.899 1036.29 497.645C1036.25 497.582 1036.2 497.525 1036.15 497.474C1036.12 497.458 1036.08 497.434 1036.06 497.404C1036.03 497.373 1036.01 497.337 1036.01 497.298C1036 497.259 1036 497.218 1036.01 497.179C1036.02 497.14 1036.04 497.104 1036.06 497.074C1036.33 496.846 1036.66 497.2 1036.87 497.371C1041.68 502.904 1044.51 509.921 1047.83 516.435C1053.15 527.006 1057.2 538.205 1059.87 549.782C1062.38 561.396 1064.73 573.113 1065.73 584.967C1065.83 586.108 1065.92 587.351 1066 588.549C1066 588.662 1065.96 588.772 1065.89 588.855C1065.81 588.938 1065.71 588.988 1065.6 588.994C1065.5 589.011 1065.4 588.992 1065.31 588.94C1065.22 588.888 1065.15 588.806 1065.12 588.709Z" fill="#E6EBF0"></path><path d="M1088 683L1074.33 773H1043.94L1031 683H1088Z" fill="#D7DCDC"></path><path d="M307.551 150.488C307.133 150.975 305 135.758 305 135.758L306.219 125.934L310.046 115L403.111 196.684L450.258 239.65L463.532 236.353L468.205 242.755L470 250.052L467.912 259.978L461.263 266.708L453.825 268H432.447L413.777 259.615L382.059 237.339L321.92 170.544L307.551 150.488Z" fill="#D7DCDC"></path><path d="M239.035 211.379C233.221 211.152 230.586 217.042 230.789 223.295C230.789 223.657 230.846 224.031 230.891 224.427C178.633 241.735 204.773 233.172 152.447 250.129C152.447 250.129 140.276 231.36 140.005 234.543C139.733 237.726 151.079 259.055 154.63 263.88H155.309C157.571 263.619 159.833 263.483 161.994 263.098C169.765 261.728 174.742 260.482 181.902 258.817C201.482 254.286 221.028 249.608 240.619 245.122C241.015 245.575 241.422 246.017 241.829 246.459V212.036C240.955 211.62 240.003 211.396 239.035 211.379ZM600.08 151.854V167.52C601.515 167.115 602.918 166.604 604.277 165.991C608.021 160.995 614.152 144.039 615 140.822C612.749 138.715 606.415 146.497 600.08 151.854ZM513.153 166.58L500.892 168.086L482.092 170.408L479.83 170.68C478.699 167.497 477.206 164.133 474.695 162.468C468.553 158.379 462.377 163.601 462.49 172.594L460.737 172.776C462.478 137.48 461.302 161.743 462.999 126.448C463.338 119.357 463.644 113.897 463.881 106.387C463.972 103.793 464.096 101.211 463.983 98.6394C464.026 97.7093 463.911 96.7786 463.644 95.8869L463.112 95.3545C458.893 91.0729 456.246 89.3398 451.801 89.0793L450.76 89C450.415 89.4623 450.094 89.9425 449.799 90.4386C448.851 92.6775 448.094 94.9927 447.536 97.3594C446.405 101.415 445.274 105.515 444.211 109.615C434.132 148.479 439.177 129.042 429.076 167.894C427.987 165.734 426.484 163.809 424.653 162.23C422.754 160.912 420.431 160.352 418.141 160.663C415.851 160.973 413.76 162.13 412.279 163.906C410.706 165.975 409.686 168.412 409.315 170.986C403.773 166.172 406.533 168.585 401.002 163.782C392.71 156.589 384.374 149.408 376.535 142.702L375.54 141.852C356.039 125.179 343.212 114.52 339.694 112.266C329.424 105.719 317.49 105.617 311.009 112.391C304.957 118.711 302.639 138.443 306.971 151.922C306.992 151.994 307.022 152.063 307.061 152.126C308.416 154.55 309.991 156.845 311.767 158.979C317.196 165.775 322.761 172.413 328.406 178.915C324.864 182.385 321.026 185.539 316.936 188.339C308.679 194.003 300.308 199.666 291.316 203.064C288.669 197.922 285.751 193.946 280.74 193.788C273.263 193.504 269.881 201.014 270.153 209.124L270.356 210.869C258.117 215.173 260.628 214.324 254.181 216.532V242.019C263.66 239.881 273.15 237.809 282.652 235.8C285.163 238.711 288.081 241.713 291.61 241.599C295.117 240.387 296.836 237.499 297.266 232.798C320.476 228.267 343.744 223.793 367.203 222.139L367.373 222.321C373.753 229.219 380.076 236.276 386.84 242.54C369.703 248.815 379.069 245.36 358.765 252.938C353.686 254.841 346.753 257.469 341.391 259.519C336.029 261.569 330.295 263.676 324.843 266.225C324.763 269.849 330.068 275.139 331.629 276L332.071 275.943C339.706 274.811 347.296 273.134 354.885 271.628C397.597 262.94 378.288 266.972 412.844 259.666C419.631 263.189 426.418 267.097 433.601 268.864C441.292 269.734 449.054 269.779 456.755 269C462.15 268.207 464.548 267.142 467.535 263.699C471.086 259.168 472.059 251.986 470.702 245.824C480.882 243.423 490.949 240.739 501.073 238.065C504.308 237.182 507.543 236.317 510.778 235.471L513.334 234.792C524.939 231.711 536.545 228.596 548.105 225.164C549.202 224.877 550.273 224.498 551.306 224.031C551.397 220.406 542.63 217.846 541.126 216.997C531.873 217.676 522.598 218.232 513.334 218.753L501.073 219.443C487.499 220.225 473.925 221.075 460.352 222.366L458.734 222.524L458.474 222.117L458.553 220.554L459.583 199.893L476.301 195.872C479.694 198.284 477.986 197.435 481.233 198.613C483.789 198.613 485.293 197.48 485.44 193.742L501.141 190.185L513.402 187.467C527.077 184.42 540.753 181.43 554.428 178.405C562.787 176.57 571.395 174.837 580.037 172.866V157.858C573.816 158.628 567.594 159.5 561.396 160.316C525.301 164.994 525.991 164.949 513.119 166.534L513.153 166.58ZM469.039 251.171C465.767 252.283 462.302 252.708 458.859 252.417C457.728 252.27 454.696 251.114 453.599 252.009C452.208 253.142 452.66 257.537 452.864 259.145C453.147 261.411 454.9 264.865 455.556 266.814C455.556 266.814 440.127 268.887 429.28 265.217C424.865 263.766 420.735 261.558 417.075 258.692L417.426 258.613C425.129 262.77 430.332 265.466 436.926 265.975C440.436 266.204 443.96 266.045 447.434 265.5C439.064 265.681 430.287 265.341 420.186 258.069L421.249 257.865C427.809 261.569 433.929 264.265 439.946 264.288C442.142 264.393 444.343 264.287 446.518 263.971C438.08 264.48 431.406 262.702 423.896 257.333L424.868 257.14C430.004 259.995 435.15 262.487 440.795 262.645C442.455 262.709 444.118 262.66 445.772 262.498C438.465 262.498 433.555 261.263 426.848 256.71L427.979 256.472C432.504 259.111 437.266 261.003 442.31 261.116H444.969C439.57 261.003 434.337 259.227 429.981 256.03L430.897 255.838C434.319 258.217 438.371 259.523 442.537 259.587C443.071 259.585 443.605 259.54 444.132 259.451C439.931 259.571 435.831 258.158 432.594 255.475L433.635 255.249C435.889 256.592 438.419 257.405 441.032 257.627L443.057 257.559C440.197 257.475 437.423 256.562 435.071 254.931L436.349 254.648C438.149 255.388 440.062 255.813 442.005 255.906L443.012 255.781C441.309 255.758 439.656 255.204 438.284 254.195C440.546 253.697 442.695 253.187 444.912 252.621C444.595 251.126 442.084 249.574 441.202 248.962C438.306 247.006 435.308 245.206 432.221 243.57C428.115 241.305 424.303 239.459 420.05 237.624C416.939 236.253 413.512 234.713 410.198 234.509C409.176 234.591 408.177 234.851 407.245 235.279C405.82 235.755 403.852 236.412 402.585 236.876C399.101 238.111 393.095 240.218 389.622 241.486C382.406 234.69 375.585 227.112 368.64 219.84C368.221 218.424 368.64 216.057 364.579 210.076C361.418 205.677 358.019 201.453 354.399 197.424C349.901 192.425 345.063 187.743 339.921 183.412C338.182 182.063 336.357 180.83 334.457 179.719C333.326 179.119 330.566 177.239 330.51 177.239C330.453 177.239 325.77 171.654 323.508 168.992C320.284 165.22 317.072 161.426 313.939 157.518C313.022 156.385 308.894 151.175 308.419 149.589C306.832 142.914 306.449 136.01 307.288 129.2L332.444 154.12L307.649 126.38V126.051L339.581 158.368L338.88 157.575L308.249 123.48L308.317 123.14C333.971 149.578 321.087 136.28 347.013 163.012L309.143 120.24V120.172C319.843 131.658 332.761 144.786 343.552 156.125C362.419 175.936 381.184 195.951 400.628 214.799C407.834 220.848 426.101 237.023 451.721 244.51C454.177 245.212 456.713 245.593 459.266 245.643C461.873 245.418 464.464 245.04 467.026 244.51C467.374 244.758 467.754 244.956 468.157 245.1C468.898 247.016 469.192 249.078 469.016 251.126L469.039 251.171ZM432.062 174.339C437.718 152.749 443.193 131.024 448.916 109.423C450.221 104.56 451.261 100.784 452.038 98.0957C452.332 97.1102 452.626 96.1248 452.943 95.1506C453.579 95.2936 454.206 95.4752 454.821 95.6944C456.563 96.5847 458.136 97.773 459.47 99.2058V99.5796C459.47 100.633 459.47 102.162 459.345 104.11C459.221 107.814 459.017 113.048 458.723 119.697C457.886 137.548 457.072 155.411 456.144 173.251C448.136 174.078 440.082 175.03 432.04 174.384L432.062 174.339ZM454.006 216.193L453.271 215.185L447.525 208.388L443.555 204.061L454.753 201.105L454.006 216.193Z" fill="#E6EBF0"></path><path d="M254 216.482V241.971L251.191 242.616C250.792 245.921 249.16 248.491 246.751 249C244.953 249 243.421 247.812 242 246.363V212C244.331 213.132 246.03 215.622 247.428 218.791L254 216.482Z" fill="#E6EBF0"></path><path d="M459.307 190.271C459.307 190.271 531.862 175.054 580 167V170.039C536.834 179.772 459 197 459 197L459.307 190.271Z" fill="#D7DCDC"></path><path d="M602 164.762L600 165V164.056L600.787 164C601.348 164.172 601.778 164.442 602 164.762Z" fill="#D7DCDC"></path><path d="M451.829 92C456.508 92.2821 459.327 95.013 461.951 97.6424C462.636 100.215 455.858 226.131 455.595 233.985C450.837 234.809 417.287 201.947 414 191.769C418.074 192.897 421.84 193.913 424.487 191.441C426.61 188.699 449.673 95.013 451.829 92Z" fill="#D7DCDC"></path><path d="M332 273C346.225 269.682 426.438 251.621 438.475 249C439.811 249.459 441.018 250.216 442 251.212C420.181 256.123 345.828 271.783 332 273Z" fill="#D7DCDC"></path><path d="M155 259.255C161.055 255.926 199.684 246.135 242 236V240.667C195.62 251.511 155.216 262 155.216 262C155.216 262 155.114 260.158 155 259.255Z" fill="#D7DCDC"></path><path d="M366 217.846H365.217C343.711 218.876 297.59 228.236 254 238V233.353C298.85 222.907 344.665 212.74 357.863 209.84L361.631 209C361.631 209 366 214.05 366 217.846Z" fill="#D7DCDC"></path><path d="M326.984 159L325 157.518V151L327 152.46L326.984 159Z" fill="#E6EBF0"></path><path d="M324 156L323 154.502V148L324 149.466V156Z" fill="#E6EBF0"></path><path d="M322 154L320 152.303V145L322 146.66V154Z" fill="#E6EBF0"></path><path d="M319 151L318 149.478V143L319 144.49V151Z" fill="#E6EBF0"></path><path d="M317 148L315 146.513V140L316.984 141.498L317 148Z" fill="#E6EBF0"></path><path d="M313.961 145L313 143.463V137L314 138.504L313.961 145Z" fill="#E6EBF0"></path><path d="M312 142L310 140.457V134L311.985 135.532L312 142Z" fill="#E6EBF0"></path><path d="M340 175L339 173.379V166L340 167.586V175Z" fill="#E6EBF0"></path><path d="M338 172L336 170.38V163L337.984 164.596L338 172Z" fill="#E6EBF0"></path><path d="M334.992 169L334 167.36V160L335 161.605L334.992 169Z" fill="#E6EBF0"></path><path d="M333 166L331 164.359V157L333 158.617V166Z" fill="#E6EBF0"></path><path d="M330 163L329 161.53V155L329.992 156.428L330 163Z" fill="#E6EBF0"></path><path d="M372 210L371 208.323V200L372 201.641V210Z" fill="#E6EBF0"></path><path d="M370 207L368 205.491V198L370 199.477V207Z" fill="#E6EBF0"></path><path d="M367 204L366 202.477V195L367 196.491V204Z" fill="#E6EBF0"></path><path d="M365 201L363 199.478V192L364.984 193.5L365 201Z" fill="#E6EBF0"></path><path d="M362 199L361 197.289V189L362 190.687V199Z" fill="#E6EBF0"></path><path d="M359.984 196L358 194.451V187L360 188.516L359.984 196Z" fill="#E6EBF0"></path><path d="M357 193L356 191.431V184L357 185.535V193Z" fill="#E6EBF0"></path><path d="M355 190L353 188.433V181L355 182.533V190Z" fill="#E6EBF0"></path><path d="M352 187L351 185.424V178L352 179.543V187Z" fill="#E6EBF0"></path><path d="M350 185L348 183.414V176L349.984 177.552L350 185Z" fill="#E6EBF0"></path><path d="M347 182L346 180.404V173L347 174.562V182Z" fill="#E6EBF0"></path><path d="M343.992 179L343 177.396V170L344 171.57L343.992 179Z" fill="#E6EBF0"></path><path d="M384.913 224L383 222.372V214L385 215.686L384.913 224Z" fill="#E6EBF0"></path><path d="M382 221L381 219.364V211L382 212.601V221Z" fill="#E6EBF0"></path><path d="M380 218L378 216.553V209L380 210.458V218Z" fill="#E6EBF0"></path><path d="M377 215L376 213.511V206L377 207.458V215Z" fill="#E6EBF0"></path><path d="M375 213L373 211.314V203L375 204.639V213Z" fill="#E6EBF0"></path><path d="M467.878 239.624C465.321 233.701 462.741 227.768 459.765 222.209L459.663 222.027C459.105 221.964 458.541 222.011 458 222.163L458.147 222.368C459.759 224.678 461.222 227.089 462.526 229.586C464.563 233.269 466.487 237.055 468.41 240.863L467.878 239.624ZM541.747 224.301C537.911 225.13 534.482 225.892 530.635 226.744C509.882 231.36 489.141 236.111 468.399 240.863C468.889 241.88 469.312 242.928 469.666 244L470.368 243.829C484.852 240.154 499.328 236.422 513.797 232.633C524.479 229.848 535.184 227.154 545.786 223.914C546.878 223.597 547.951 223.217 549 222.777C546.612 223.198 544.168 223.778 541.747 224.301Z" fill="#D7DCDC"></path><path d="M362.567 1006.39C362.567 1006.39 360.271 1022.21 357.305 1027.37C354.34 1032.53 373.95 1038 373.95 1038C376.654 1030.54 378.353 1022.74 379 1014.82C379 1014.82 372.021 997.877 362.567 1006.39Z" fill="#322D41"></path><path d="M368 1055C377.389 1055 385 1047.39 385 1038C385 1028.61 377.389 1021 368 1021C358.611 1021 351 1028.61 351 1038C351 1047.39 358.611 1055 368 1055Z" fill="#322D41"></path><path d="M577.961 1002.53C579.293 991.672 546.385 1008.27 555.646 1019.91C555.646 1019.91 563.255 1042.93 573.723 1046L577.961 1002.53Z" fill="#322D41"></path><path d="M573 1059C582.389 1059 590 1051.39 590 1042C590 1032.61 582.389 1025 573 1025C563.611 1025 556 1032.61 556 1042C556 1051.39 563.611 1059 573 1059Z" fill="#322D41"></path><path d="M490.805 664H468.195C399.604 664 344 719.514 344 787.994V911.006C344 979.486 399.604 1035 468.195 1035H490.805C559.396 1035 615 979.486 615 911.006V787.994C615 719.514 559.396 664 490.805 664Z" fill="#322D41"></path><path d="M475 451H450V455H475V451Z" fill="#322D41"></path><path d="M423 456H413V667H423V456Z" fill="#322D41"></path><path d="M513 456H502V672H513V456Z" fill="#322D41"></path><path d="M489.482 664H435.518C375.585 664 327 712.507 327 772.342V926.658C327 986.493 375.585 1035 435.518 1035H489.482C549.415 1035 598 986.493 598 926.658V772.342C598 712.507 549.415 664 489.482 664Z" fill="#BE282D"></path><path opacity="0.3" d="M495.043 1018H429.026C378.171 1018 342 979.307 342 928.727V770.273C342 719.67 378.171 681 429.026 681H495.065C545.932 681 583 719.704 583 770.273V928.693C582.977 979.308 545.909 1018 495.043 1018Z" fill="#322D41"></path><path d="M427 458V482H410V460.862C410.007 459.821 410.345 458.813 410.961 458H427Z" fill="#322D41"></path><path d="M516 459.978V482H499V457H515.026C515.658 457.854 516.001 458.901 516 459.978Z" fill="#322D41"></path><path d="M516 459.766V469H410V459.755C410.008 458.828 410.353 457.933 410.971 457.235C411.648 456.5 412.48 455.919 413.407 455.534C414.335 455.149 415.337 454.968 416.343 455.005H509.635C510.642 454.968 511.645 455.148 512.575 455.533C513.505 455.919 514.339 456.499 515.018 457.235C515.646 457.933 515.995 458.833 516 459.766Z" fill="#322D41"></path><path d="M741 208C758.673 208 773 193.897 773 176.5C773 159.103 758.673 145 741 145C723.327 145 709 159.103 709 176.5C709 193.897 723.327 208 741 208Z" fill="#7D501E"></path><path d="M653.425 206.938C663.468 213.649 680.719 187.687 689 153.672C668.27 136.748 655.673 139.377 647.37 154.186C637.688 171.446 641.936 199.208 653.425 206.938Z" fill="#7D501E"></path><path d="M514.378 461.67C510.212 467.461 504.46 471.982 497.786 474.711C497.456 474.845 497.126 474.99 496.807 475.157L492.688 477.331C489.497 478.976 485.803 479.424 482.299 478.59C478.795 477.755 475.723 475.696 473.66 472.8C471.597 469.903 470.686 466.368 471.096 462.859C471.507 459.35 473.212 456.109 475.891 453.745L479.737 450.401C481.373 448.983 483.451 448.15 485.632 448.038L505.866 447.012C507.791 446.917 509.701 447.386 511.351 448.361C512.465 449.02 513.43 449.893 514.19 450.928C514.949 451.963 515.487 453.138 515.77 454.381C516.053 455.625 516.075 456.913 515.836 458.165C515.597 459.418 515.101 460.61 514.378 461.67Z" fill="#FAC89B"></path><path d="M727 1072.24L697.154 1075L691 1007.76L720.846 1005L727 1072.24Z" fill="#FAC89B"></path><path d="M840 1086.1L810.658 1089L805 1019.89L834.331 1017L840 1086.1Z" fill="#FAC89B"></path><path d="M807.71 1067.49L840.611 1066C841.178 1065.97 841.737 1066.15 842.182 1066.5C842.628 1066.85 842.93 1067.35 843.03 1067.91L847.946 1093.87C848.046 1094.53 848.006 1095.2 847.829 1095.84C847.652 1096.48 847.342 1097.08 846.919 1097.59C846.497 1098.11 845.971 1098.52 845.376 1098.82C844.781 1099.12 844.13 1099.28 843.467 1099.31C831.989 1099.62 826.423 1099.19 811.966 1099.84C803.007 1100.24 783.432 1102.43 771.147 1102.98C759.12 1103.52 757.709 1091.36 762.726 1090.03C785.448 1084.05 795.437 1076.37 802.884 1069.51C804.205 1068.29 805.914 1067.57 807.71 1067.49Z" fill="#322D41"></path><path d="M693.415 1067H728.441C729.071 1067.01 729.681 1067.22 730.18 1067.6C730.68 1067.98 731.04 1068.51 731.209 1069.11L738.835 1096.48C739.021 1097.13 739.05 1097.81 738.921 1098.47C738.792 1099.13 738.508 1099.75 738.091 1100.28C737.675 1100.81 737.138 1101.24 736.524 1101.53C735.909 1101.82 735.234 1101.96 734.553 1101.95C722.193 1102.06 716.329 1101.95 700.906 1101.95H653.757C640.934 1101.95 638.256 1089.17 643.589 1088.01C667.316 1082.83 681.077 1075.67 688.421 1068.84C689.787 1067.62 691.574 1066.96 693.415 1067Z" fill="#322D41"></path><path d="M608.401 333.327C613.417 359.343 626.237 444.1 642.921 547L790 531.368C784.793 479.606 766.81 409.656 781.732 311.349C783.889 297.209 774.017 284.654 760.27 284.201C750.725 283.896 739.43 283.873 728.066 284.597C705.317 286.056 686.691 287.436 666.856 291.565C654.611 294.121 641.463 297.718 630.936 300.84C616.997 304.969 605.702 319.006 608.401 333.327Z" fill="#322D41"></path><path d="M713.627 221C711.715 238.857 710.731 273.924 723.98 284.531C723.98 284.531 725.949 295.638 690.852 301.753C689.4 302.016 687.918 302.069 686.45 301.912C662.69 299.371 667.375 291.077 667.375 291.077C686.496 284.702 672.783 247.524 668.212 234.183L713.627 221Z" fill="#FAC89B"></path><path d="M727.632 188.741C720.165 217.204 717.619 229.413 700.105 241.34C673.748 259.28 640.287 243.922 639.071 213.817C637.935 186.714 650.346 144.728 680.908 138.793C711.016 132.96 735.088 160.279 727.632 188.741Z" fill="#FAC89B"></path><path d="M665.024 137.133C652.956 149.272 678.167 179.937 720.015 207C752.407 187.354 741.312 161.026 726.495 146.113C711.962 131.483 678.834 123.239 665.024 137.133Z" fill="#7D501E"></path><path d="M729.717 214.917C727.111 220.023 722.665 223.851 717.35 225.562C710.291 227.772 706.612 221.247 708.485 214.249C710.147 207.943 715.81 199.196 722.957 200.059C730.105 200.922 732.853 208.622 729.717 214.917Z" fill="#FAC89B"></path><path d="M844 1032L790.128 531L643 544.711L682.384 1032H733.313L730.032 660.74L793.815 1032H844Z" fill="#BE282D"></path><path d="M841.767 536.938C839.18 537.197 836.575 536.644 834.318 535.357C832.06 534.07 830.262 532.113 829.173 529.758L827.879 526.95C827.035 525.132 826.791 523.094 827.181 521.129L830.822 502.696C831.111 501.232 831.741 499.857 832.662 498.681C833.583 497.505 834.769 496.562 836.123 495.927C837.274 495.377 838.525 495.065 839.8 495.009C841.076 494.953 842.349 495.154 843.545 495.601C844.74 496.048 845.833 496.73 846.757 497.608C847.681 498.486 848.418 499.541 848.923 500.71C850.793 505.657 851.653 510.927 851.454 516.21C851.418 517.412 851.616 518.61 852.037 519.737L852.232 520.262C852.89 522.043 853.13 523.952 852.934 525.84C852.737 527.729 852.11 529.547 851.1 531.157C850.09 532.767 848.724 534.124 847.106 535.126C845.489 536.128 843.662 536.748 841.767 536.938Z" fill="#FAC89B"></path><path d="M763.208 284C774.81 285.916 783.602 298.65 790.118 306.303C796.633 313.957 803.884 321.044 809.833 329.208C815.781 337.372 821.616 345.672 827.112 354.505C829.842 359.04 832.562 363.44 835.043 368.372L836.935 372L838.737 375.89L840.504 379.79C841.094 381.071 841.637 382.75 842.261 384.201C844.176 389.596 845.691 395.126 846.793 400.744C847.926 406.017 848.742 411.176 849.467 416.256C850.86 426.461 851.733 436.439 852.266 446.383C853.363 466.169 853.23 486.005 851.869 505.775L828.743 507C825.027 488.291 821.526 469.333 817.628 450.907C815.691 441.689 813.606 432.561 811.306 423.773C810.173 419.374 808.926 415.076 807.589 411.006C806.394 407.237 804.979 403.542 803.352 399.939C802.932 399.191 802.706 398.59 802.219 397.671L800.723 395.109L799.239 392.535L797.505 389.882C795.239 386.378 792.667 382.738 790.129 379.132C784.917 371.921 779.116 364.732 773.337 357.589C761.667 343.313 749.044 328.924 737 315.125L763.208 284Z" fill="#322D41"></path><path d="M663 317.106C660.816 326.756 658.361 335.509 655.578 344.579C652.794 353.65 649.762 362.471 646.356 371.348C642.951 380.226 639.251 389.069 634.895 397.856C630.525 407.075 625.389 415.908 619.541 424.261C618.772 425.397 617.968 426.454 617.097 427.568C616.226 428.682 615.536 429.648 614.167 431.217C613.01 432.595 611.77 433.901 610.455 435.127C609.271 436.293 608.025 437.394 606.722 438.424C602.152 442.045 597.223 445.183 592.013 447.79C582.957 452.328 573.484 455.971 563.727 458.668C554.581 461.249 545.3 463.321 535.927 464.874C526.592 466.409 520.2 467.534 510.526 468L506 445.266C522.168 439.003 536.244 432.57 551.258 425.204C558.465 421.828 565.403 417.899 572.009 413.451C574.672 411.64 577.148 409.565 579.397 407.256C579.816 406.842 580.195 406.389 580.529 405.903C580.836 405.559 581.098 405.177 581.309 404.767L582.441 402.993C582.905 402.277 583.369 401.516 583.81 400.72C587.657 393.824 591.058 386.686 593.993 379.35C597.059 371.666 600.001 363.687 602.694 355.548C605.387 347.41 607.31 329.098 609.788 320.777C612.266 312.457 619.937 308.297 624.463 304L663 317.106Z" fill="#322D41"></path></svg> 