<?xml version="1.0" encoding="UTF-8"?> <svg xmlns="http://www.w3.org/2000/svg" width="1920" height="1356" viewBox="0 0 1920 1356" fill="none"><g clip-path="url(#clip0_1_78)"><path d="M802.7 1102.8L811.5 1195.8L843.2 1194.1L846.5 1102.8H802.7Z" fill="#FAC89B"></path><path d="M811.4 1187.9C811.4 1187.9 807.6 1192.7 823.1 1194.2C839.6 1195.8 843 1189.6 843 1189.6C843 1189.6 849.7 1225.7 849.7 1229.5C849.7 1233.2 806.1 1232.9 787.2 1232.8C768.3 1232.7 753.9 1237.6 754.7 1229C755.4 1220.3 791.9 1195.5 811.4 1187.9Z" fill="#322D41"></path><path d="M754.6 1229C754.6 1229 754.2 1236.1 754.6 1238.5C755 1240.9 849 1241.3 849.4 1240.6C849.7 1239.9 849.5 1225.6 849.5 1225.6L754.6 1229Z" fill="#D7DCDC"></path><path d="M779.9 1201.6L785.3 1209.1" stroke="#D7DCE0" stroke-miterlimit="10" stroke-linecap="round"></path><path d="M774.3 1206.2L779.7 1213.7" stroke="#D7DCE0" stroke-miterlimit="10" stroke-linecap="round"></path><path d="M1799.4 1236.5H121V1243.7H1799.4V1236.5Z" fill="#D7DCDC"></path><path d="M1183.6 1061.2C1194.15 1061.2 1202.7 1052.65 1202.7 1042.1C1202.7 1031.55 1194.15 1023 1183.6 1023C1173.05 1023 1164.5 1031.55 1164.5 1042.1C1164.5 1052.65 1173.05 1061.2 1183.6 1061.2Z" fill="#ECECEC"></path><path d="M1174.1 1060.2C1184.65 1060.2 1193.2 1051.65 1193.2 1041.1C1193.2 1030.55 1184.65 1022 1174.1 1022C1163.55 1022 1155 1030.55 1155 1041.1C1155 1051.65 1163.55 1060.2 1174.1 1060.2Z" fill="#E6EBF0"></path><path d="M1249.2 1067.6C1259.75 1067.6 1268.3 1059.05 1268.3 1048.5C1268.3 1037.95 1259.75 1029.4 1249.2 1029.4C1238.65 1029.4 1230.1 1037.95 1230.1 1048.5C1230.1 1059.05 1238.65 1067.6 1249.2 1067.6Z" fill="#ECECEC"></path><path d="M1239.7 1066.5C1250.25 1066.5 1258.8 1057.95 1258.8 1047.4C1258.8 1036.85 1250.25 1028.3 1239.7 1028.3C1229.15 1028.3 1220.6 1036.85 1220.6 1047.4C1220.6 1057.95 1229.15 1066.5 1239.7 1066.5Z" fill="#E6EBF0"></path><path d="M1429.2 1067.6C1439.75 1067.6 1448.3 1059.05 1448.3 1048.5C1448.3 1037.95 1439.75 1029.4 1429.2 1029.4C1418.65 1029.4 1410.1 1037.95 1410.1 1048.5C1410.1 1059.05 1418.65 1067.6 1429.2 1067.6Z" fill="#ECECEC"></path><path d="M1419.7 1066.5C1430.25 1066.5 1438.8 1057.95 1438.8 1047.4C1438.8 1036.85 1430.25 1028.3 1419.7 1028.3C1409.15 1028.3 1400.6 1036.85 1400.6 1047.4C1400.6 1057.95 1409.15 1066.5 1419.7 1066.5Z" fill="#E6EBF0"></path><path d="M1499.1 1065.5C1509.65 1065.5 1518.2 1056.95 1518.2 1046.4C1518.2 1035.85 1509.65 1027.3 1499.1 1027.3C1488.55 1027.3 1480 1035.85 1480 1046.4C1480 1056.95 1488.55 1065.5 1499.1 1065.5Z" fill="#ECECEC"></path><path d="M1489.6 1064.4C1500.15 1064.4 1508.7 1055.85 1508.7 1045.3C1508.7 1034.75 1500.15 1026.2 1489.6 1026.2C1479.05 1026.2 1470.5 1034.75 1470.5 1045.3C1470.5 1055.85 1479.05 1064.4 1489.6 1064.4Z" fill="#E6EBF0"></path><path d="M847.9 270.3H363V280.9H847.9V270.3Z" fill="#F0F0F0"></path><path d="M417 112.5H599.1L618.7 270.3H435.6L417 112.5Z" stroke="#F0F0F0" stroke-miterlimit="10"></path><path d="M435.6 270.3L417 112.5H599.1L619.3 270.3H435.6Z" fill="#D7DCDC"></path><path d="M447.7 136.9H579L589.4 247L458.3 249.1L446.9 135.8" fill="#E7EDF2"></path><path d="M652.2 272.4L637.3 118.9H784.1L800.3 272.4H652.2Z" fill="#D7DCDC"></path><path d="M662 142.6H767.9L776.2 249.7L670.5 251.8L661.3 141.5" fill="#E7EDF2"></path><path d="M772.9 638.7H491.2L482.8 466.2L766.5 461.9L772.9 638.7Z" fill="#F0F0F0"></path><path d="M762.4 632.4H500.2L492.3 472.3L756.5 468.3L762.4 632.4Z" fill="#FAFAFA"></path><path d="M605.5 638.7L597 692.7L647.8 694.8L659.3 638.7H605.5Z" fill="#F0F0F0"></path><path d="M351.4 688.5L913.6 693.8V791.2L508.1 798.6H351.4V688.5Z" fill="#D7DCDC"></path><path d="M511.3 693.8V779.5H752.7V697.5L511.3 693.8Z" fill="#E6EBF0"></path><path d="M763.2 695.9V781.7H910.4V699.6L763.2 695.9Z" fill="#E6EBF0"></path><path d="M734.5 862L689.1 1070.7H701.8L745 862.1L733.7 862" fill="#D7DCDC"></path><path d="M774.7 862L729.4 1070.7H742.1L785.3 862.1L773.9 862" fill="#D7DCDC"></path><path d="M853.7 862.1L877.6 1070.7H892.4L867.8 861.5L853.7 862.1Z" fill="#D7DCDC"></path><path d="M966.5 861.2L1011 1070.7H998.3L953.2 860L966.5 861.2Z" fill="#D7DCDC"></path><path d="M719.8 860L716.6 804.8C716.6 782.1 735 763.7 757.7 763.7H870.2C873 763.7 875 766.4 874.3 769.1C858.7 824.6 818.4 851 732.4 860.1H726C723.7 860.3 719.8 862.5 719.8 860ZM757.8 772.1C739.8 772.1 725.1 786.7 725.1 804.8V831C725.1 845.2 738 855.9 751.9 853.2C810.5 841.8 846.8 817 862.4 778C863.5 775.2 861.4 772.2 858.5 772.2H757.8V772.1Z" fill="#D7DCDC"></path><path d="M371.4 798.6L339.7 1072.8H350.3L384.4 798.6H371.4Z" fill="#E6EBF0"></path><path d="M501.7 798.6L471 1072.8H485.8L514.2 798.6H501.7Z" fill="#E6EBF0"></path><path d="M981.4 861.1L1011 1070.7H1025.8L998.6 858.7L981.4 861.1Z" fill="#E6EBF0"></path><path d="M1519.2 600.6H1241.8V1041.1H1519.2V600.6Z" fill="#E6EBF0"></path><path d="M1155 598.5L1241.8 600.6V1041.1H1155V598.5Z" fill="#D7DCDC"></path><path d="M1306.2 600.4H1250.5V593.2C1250.5 587.9 1254.8 583.7 1260 583.7H1296.6C1301.9 583.7 1306.1 588 1306.1 593.2V600.4H1306.2Z" fill="#D7DCDC"></path><path d="M1282.6 587.5C1282.6 587.4 1282.8 587 1282.8 586.4H1276.8C1276.8 585.4 1276.8 585 1319.9 502.9L1233.9 424.4L1238 419.9L1327.4 501.5L1326.3 503.6C1309.3 536 1283.7 585 1282.6 587.5Z" fill="#D7DCDC"></path><path d="M1231.9 428.2C1236 425.9 1238.7 421.6 1238.7 416.6C1238.7 409.3 1232.8 403.4 1225.5 403.4C1218.7 403.4 1213.2 408.5 1212.4 415C1194 409 1173.2 416.3 1162.9 433.7L1188.7 449C1187.8 450.8 1187.3 452.8 1187.3 454.9C1187.3 462.2 1193.2 468.1 1200.5 468.1C1205 468.1 1208.9 465.9 1211.3 462.5L1235.9 477.1C1245.3 461.2 1243.2 441.7 1231.9 428.2Z" fill="#E7EDF2"></path><path d="M1319.5 514.8C1326.4 514.8 1332 509.204 1332 502.3C1332 495.396 1326.4 489.8 1319.5 489.8C1312.6 489.8 1307 495.396 1307 502.3C1307 509.204 1312.6 514.8 1319.5 514.8Z" fill="#E7EDF2"></path><path d="M1078.4 678.6L1029.6 826.9C1022.9 847.3 1004.9 861 984.7 861.1L903 861.4L720.9 862L696.5 862.1C696.5 862.1 698.7 849.4 720.9 842.9C731.1 839.9 745.5 838.3 765.8 839.9C830.4 844.8 832.4 781.4 832.4 781.4L836.3 767.9L875 632.1C883.4 602.7 909.4 583.2 938.1 584.8L1022.8 589.6C1064.4 592 1092.2 636.5 1078.4 678.6Z" fill="#D7DCDC"></path><path d="M1497 629.2H1261.9V733H1497V629.2Z" fill="#D7DCDC"></path><path d="M1344.5 659.9H1422.9" stroke="white" stroke-width="3" stroke-miterlimit="10"></path><path d="M1499.2 758.4H1264.1V862.2H1499.2V758.4Z" fill="#D7DCDC"></path><path d="M1346.6 789.1H1425" stroke="white" stroke-width="3" stroke-miterlimit="10"></path><path d="M1501.3 887.5H1266.2V991.3H1501.3V887.5Z" fill="#D7DCDC"></path><path d="M1348.8 918.2H1427.1" stroke="white" stroke-width="3" stroke-miterlimit="10"></path><path d="M1094.8 1148.4L1195.7 1134.4L1193.8 1164.2L1100.5 1187L1094.8 1148.4Z" fill="#FAC89B"></path><path d="M1183.4 1166.9C1183.4 1166.9 1188 1167 1185.4 1151.6C1182.6 1135.2 1178.1 1137 1178.1 1137C1178.1 1137 1208.9 1117.7 1212.6 1116.7C1216.2 1115.8 1227.3 1157.9 1232.1 1176.2C1236.9 1194.5 1245.4 1207.1 1236.9 1208.6C1228.4 1210.1 1195.8 1183.7 1183.4 1166.9Z" fill="#322D41"></path><path d="M1236.8 1208.6C1236.8 1208.6 1243.8 1207.1 1246 1206.1C1248.3 1205.1 1224.1 1114.2 1223.3 1114C1222.6 1113.8 1208.8 1117.8 1208.8 1117.8L1236.8 1208.6Z" fill="#D7DCDC"></path><path d="M1203.8 1191.3L1209.7 1184.2" stroke="#D7DCE0" stroke-miterlimit="10" stroke-linecap="round"></path><path d="M1209.7 1195.5L1215.6 1188.4" stroke="#D7DCE0" stroke-miterlimit="10" stroke-linecap="round"></path><path d="M968.4 757.1C968.4 757.1 978.9 758.9 993 750.1C1007 741.3 1026.3 730.8 1015.8 718.5C1005.3 706.2 1005.3 701 1000 671.1C994.7 641.3 993 630.7 975.4 629C957.9 627.2 957.9 620.2 957.9 620.2C957.9 620.2 936.8 604.4 917.5 609.7C898.2 615 878.9 630.8 870.1 641.3C861.3 651.8 857.8 664.1 859.6 674.6C861.4 685.1 871.9 707.9 871.9 715C871.9 722.1 868.4 750.1 875.4 758.9C882.4 767.7 896.5 776.4 907 774.7C917.5 772.9 968.4 757.1 968.4 757.1Z" fill="#7D501E"></path><path d="M973.7 760.6L964.9 736C964.9 736 963.1 729 971.9 720.2C980.7 711.4 987.7 697.4 978.9 692.1C970.1 686.8 963.1 697.4 963.1 697.4L950.8 676.3C950.8 676.3 926.2 672.8 924.5 662.3C922.7 651.8 921 651.8 921 651.8C921 651.8 901.7 653.6 891.2 665.8C880.7 678.1 878.9 686.9 884.2 709.7C889.5 732.5 893 739.5 905.3 751.8C917.6 764.1 935.1 757.1 935.1 757.1L938.6 771.1L973.7 760.6Z" fill="#FAC89B"></path><path d="M1095.7 1137C1115.4 1157.7 1119.9 1178.7 1104.5 1200.2L993.9 1232.2C965.7 1240.4 937.3 1219.1 937.7 1189.7C937.7 1188.6 937.7 1187.4 937.8 1186.2C939.6 1135.3 946.6 1094.9 946.6 1094.9L851 1011.5V1102.8C825.5 1123.3 807.8 1112.2 789.6 1102.8C789.6 1102.8 767.7 963.3 773.8 951.9C780.9 938.8 789.6 930.8 828.2 936.1C866.8 941.4 1042.3 990.5 1042.3 990.5L1061.6 983.5C1061.6 983.5 1075.6 1036.1 1070.4 1050.2C1065.2 1064.3 1019.5 1152 1019.5 1152L1095.7 1137Z" fill="#322D41"></path><path d="M948.7 1026.2C1009.8 1019.4 1070.1 1012.2 1084.8 976.2C1085.6 974.2 1085.7 972 1085.1 969.9L1034 803.1C1033.6 801.7 1032.8 800.4 1031.8 799.4L994.6 760.6C992.5 758.4 989.4 757.4 986.4 757.8L935.4 765.9C929.7 766.8 926.2 772.6 928 778.1C929 781.2 928.4 784.7 926.2 787.2C921.1 793 911.9 805.4 907 823.8C900 850.1 912.3 897.5 924.5 906.3C934.5 913.5 937.5 989.4 938.3 1017.3C938.5 1022.7 943.3 1026.8 948.7 1026.2Z" fill="#BE282D"></path><path d="M803.5 1016.8C803.5 1016.8 770.2 1027.3 780.7 1018.6C791.2 1009.8 817.6 1002.8 828.1 1004.6C838.6 1006.4 838.6 1006.4 838.6 1006.4L908.8 962.5L939.5 899.2L983.1 919.3C983.1 919.3 945.6 985.3 933.4 992.3C921.1 999.3 819.3 1044.9 807 1046.7C794.7 1048.5 768.4 1046.7 768.4 1046.7C768.4 1046.7 814 1027.4 812.3 1022.1C810.6 1016.8 803.5 1016.8 803.5 1016.8Z" fill="#FAC89B"></path><path d="M924.5 906.2C924.5 906.2 915.7 925.5 907 929C898.2 932.5 773.6 923.7 773.6 923.7L752.2 933C748.2 934.7 743.5 933.7 740.7 930.4L724.8 912.3C722.7 909.9 723.2 906.3 725.8 904.5L743.8 892.1C743.8 892.1 717.5 874.6 724.5 872.8C731.5 871 733.3 872.8 742 876.3C750.8 879.8 759.5 881.6 764.8 888.6C770.1 895.6 771.8 897.4 771.8 897.4L880.6 899.2L905.2 857.1L924.5 906.2Z" fill="#FAC89B"></path><path d="M612.2 774.6L794.7 971.2" stroke="#302E41" stroke-width="3" stroke-miterlimit="10"></path><path d="M613.9 776.4L610.4 950.1" stroke="#302E41" stroke-width="3" stroke-miterlimit="10"></path><path d="M610.4 962.4C615.26 962.4 619.2 958.46 619.2 953.6C619.2 948.74 615.26 944.8 610.4 944.8C605.54 944.8 601.6 948.74 601.6 953.6C601.6 958.46 605.54 962.4 610.4 962.4Z" fill="#322D41"></path><path d="M604.3 1046.6L571 1011.5L544.7 1009.7L504.3 1048.3L518.3 1071.1C518.3 1071.1 514.8 1095.7 493.7 1104.4C472.6 1113.1 437.5 1129 430.5 1148.3C423.5 1167.6 428.7 1202.7 428.7 1202.7C428.7 1202.7 398 1207.1 396.2 1191.3C394.4 1175.5 413.7 1154.4 420.8 1147.4C427.8 1140.4 445.4 1121.1 441.9 1105.3C438.4 1089.5 419.1 1064.9 405 1063.2C390.9 1061.5 380.4 1066.7 392.7 1084.3C405 1101.8 424.3 1103.6 412 1121.2C399.7 1138.7 381.3 1174.7 382.2 1182.6C383.2 1192 391 1208.9 412 1214.2C433 1219.5 438.3 1221.2 438.3 1221.2C438.3 1221.2 454.9 1233.7 461.1 1237C468.7 1241.1 502 1238.9 501.5 1235.2L485.7 1221.2L527.8 1184.3C527.8 1184.3 545.3 1186.1 545.3 1200.1C545.3 1214.1 547.1 1237 547.1 1237H584C584 1237 575.2 1226.5 570 1224.7C564.8 1222.9 554.2 1189.6 564.7 1163.3C575.2 1137 591 1144 587.5 1126.4C584 1108.8 580.5 1084.3 580.5 1084.3C580.5 1084.3 598 1072 601.6 1063.2C605.2 1054.5 604.3 1046.6 604.3 1046.6Z" fill="#D7DCDC"></path><path d="M506.9 1202L508.7 1210.8C508.7 1210.8 522.7 1210.8 522.7 1217.8C522.7 1224.8 491.1 1216 491.1 1216L506.9 1202Z" fill="#D7DCDC"></path><path d="M582.6 1098C582.6 1098 603.4 1089.7 605.1 1080.9C606.9 1072.1 608.6 1038.8 620.9 1031.8C633.2 1024.8 650.7 1030 643.7 1040.6C636.7 1051.2 631.4 1042.4 626.2 1052.9C620.9 1063.4 624.4 1095 613.9 1107.3C603.4 1119.6 587.9 1128.9 587.9 1128.9L582.6 1098Z" fill="#D7DCDC"></path><path d="M514.8 1038.3C514.8 1038.3 505.1 1035.2 503.4 1022.9C501.6 1010.6 503.4 993.1 503.4 993.1C503.4 993.1 526.2 996.6 533.2 1003.6C540.2 1010.6 540.5 1013.7 540.5 1013.7L514.8 1038.3Z" fill="#D7DCDC"></path><path d="M588.5 1030.8C588.5 1030.8 598.2 1022.9 598.2 1017.6C598.2 1012.3 596.4 987.8 596.4 987.8C596.4 987.8 575.3 1000.1 570.1 1005.3C564.8 1010.6 565.8 1011.1 565.8 1011.1L588.5 1030.8Z" fill="#D7DCDC"></path><path d="M924.5 892.2C937.3 929.6 959.8 941 992.9 923.8L1018.4 844.7C1023.8 827.9 1015.4 809.8 999.1 803C982 796 962.5 803.9 955.2 820.9L924.5 892.2Z" fill="#BE282D"></path></g><defs><clipPath id="clip0_1_78"><rect width="1678.4" height="1131.7" fill="white" transform="translate(121 112)"></rect></clipPath></defs></svg> 