<?xml version="1.0" encoding="UTF-8"?> <svg xmlns="http://www.w3.org/2000/svg" width="1920" height="1356" viewBox="0 0 1920 1356" fill="none"><g clip-path="url(#clip0_1_3)"><path d="M939.7 1078.2C1303.05 1078.2 1597.6 1077.39 1597.6 1076.4C1597.6 1075.41 1303.05 1074.6 939.7 1074.6C576.352 1074.6 281.8 1075.41 281.8 1076.4C281.8 1077.39 576.352 1078.2 939.7 1078.2Z" fill="#D7DCDC"></path><path d="M1701.2 1278.8H225.4L218 1282.5H1693.8L1701.2 1278.8Z" fill="#D7DCDC"></path><path d="M1184.6 1077.5C1195.65 1077.5 1204.6 1068.55 1204.6 1057.5C1204.6 1046.45 1195.65 1037.5 1184.6 1037.5C1173.55 1037.5 1164.6 1046.45 1164.6 1057.5C1164.6 1068.55 1173.55 1077.5 1184.6 1077.5Z" fill="#ECECEC"></path><path d="M1174.6 1076.4C1185.65 1076.4 1194.6 1067.45 1194.6 1056.4C1194.6 1045.35 1185.65 1036.4 1174.6 1036.4C1163.55 1036.4 1154.6 1045.35 1154.6 1056.4C1154.6 1067.45 1163.55 1076.4 1174.6 1076.4Z" fill="#E6EBF0"></path><path d="M1253.5 1074.9C1264.55 1074.9 1273.5 1065.95 1273.5 1054.9C1273.5 1043.85 1264.55 1034.9 1253.5 1034.9C1242.45 1034.9 1233.5 1043.85 1233.5 1054.9C1233.5 1065.95 1242.45 1074.9 1253.5 1074.9Z" fill="#ECECEC"></path><path d="M1243.5 1073.8C1254.55 1073.8 1263.5 1064.85 1263.5 1053.8C1263.5 1042.75 1254.55 1033.8 1243.5 1033.8C1232.45 1033.8 1223.5 1042.75 1223.5 1053.8C1223.5 1064.85 1232.45 1073.8 1243.5 1073.8Z" fill="#E6EBF0"></path><path d="M1442.2 1074.9C1453.25 1074.9 1462.2 1065.95 1462.2 1054.9C1462.2 1043.85 1453.25 1034.9 1442.2 1034.9C1431.15 1034.9 1422.2 1043.85 1422.2 1054.9C1422.2 1065.95 1431.15 1074.9 1442.2 1074.9Z" fill="#ECECEC"></path><path d="M1432.2 1073.8C1443.25 1073.8 1452.2 1064.85 1452.2 1053.8C1452.2 1042.75 1443.25 1033.8 1432.2 1033.8C1421.15 1033.8 1412.2 1042.75 1412.2 1053.8C1412.2 1064.85 1421.15 1073.8 1432.2 1073.8Z" fill="#E6EBF0"></path><path d="M1511.8 1076.4C1522.85 1076.4 1531.8 1067.45 1531.8 1056.4C1531.8 1045.35 1522.85 1036.4 1511.8 1036.4C1500.75 1036.4 1491.8 1045.35 1491.8 1056.4C1491.8 1067.45 1500.75 1076.4 1511.8 1076.4Z" fill="#ECECEC"></path><path d="M1501.8 1075.3C1512.85 1075.3 1521.8 1066.35 1521.8 1055.3C1521.8 1044.25 1512.85 1035.3 1501.8 1035.3C1490.75 1035.3 1481.8 1044.25 1481.8 1055.3C1481.8 1066.35 1490.75 1075.3 1501.8 1075.3Z" fill="#E6EBF0"></path><path d="M832.7 238.9H324.2V250H832.7V238.9Z" fill="#F0F0F0"></path><path d="M380.8 73.5H571.8L592.3 238.9H400.3L380.8 73.5Z" stroke="#F0F0F0" stroke-miterlimit="10"></path><path d="M400.3 238.9L380.8 73.5H571.8L592.9 238.9H400.3Z" fill="#D7DCDC"></path><path d="M413 99H550.7L561.6 214.5L424.1 216.7L412.1 97.9" fill="#E7EDF2"></path><path d="M627.5 241.1L611.8 80.2H765.7L782.7 241.1H627.5Z" fill="#D7DCDC"></path><path d="M637.7 105H748.7L757.5 217.4L646.7 219.5L637 103.9" fill="#E7EDF2"></path><path d="M754 625.3H458.6L449.8 444.4L747.3 439.9L754 625.3Z" fill="#F0F0F0"></path><path d="M743 618.6H468L459.8 450.7L736.8 446.5L743 618.6Z" fill="#FAFAFA"></path><path d="M578.5 625.3L569.6 681.9L622.9 684.1L634.9 625.3H578.5Z" fill="#F0F0F0"></path><path d="M312 677.5L901.5 683V785.2L476.3 792.9H312V677.5Z" fill="#D7DCDC"></path><path d="M479.6 683V772.9H732.8V686.9L479.6 683Z" fill="#E6EBF0"></path><path d="M743.9 685.2V775.2H898.2V689.1L743.9 685.2Z" fill="#E6EBF0"></path><path d="M713.7 859.4L666.2 1078.3H679.5L724.8 859.5L712.9 859.4" fill="#D7DCDC"></path><path d="M755.9 859.4L708.4 1078.3H721.7L767 859.5L755.1 859.4" fill="#D7DCDC"></path><path d="M838.7 859.5L863.8 1078.3H879.3L853.5 858.9L838.7 859.5Z" fill="#D7DCDC"></path><path d="M957 858.6L1003.7 1078.3H990.4L943 857.3L957 858.6Z" fill="#D7DCDC"></path><path d="M698.4 857.3L695.1 799.4C695.1 775.6 714.4 756.3 738.2 756.3H856.2C859.1 756.3 861.3 759.1 860.5 761.9C844.1 820.1 801.9 847.8 711.7 857.3H705C702.4 857.6 698.4 860 698.4 857.3ZM738.2 765.2C719.3 765.2 703.9 780.5 703.9 799.5V826.9C703.9 841.8 717.4 853.1 732 850.2C793.4 838.2 831.6 812.2 847.9 771.3C849.1 768.4 846.9 765.2 843.8 765.2H738.2Z" fill="#D7DCDC"></path><path d="M333 792.9L299.8 1076.4H310.9L346.6 792.9H333Z" fill="#E6EBF0"></path><path d="M469.7 792.9L437.5 1076.4H453L482.7 792.9H469.7Z" fill="#E6EBF0"></path><path d="M972.6 858.4L1003.7 1078.3H1019.2L990.7 856L972.6 858.4Z" fill="#E6EBF0"></path><path d="M1536.6 585.3H1245.7V1047.2H1536.6V585.3Z" fill="#E6EBF0"></path><path d="M1154.7 583.1L1245.7 585.3V1047.2H1154.7V583.1Z" fill="#D7DCDC"></path><path d="M1311.1 588.4H1247.7V579.7C1247.7 574 1252.3 569.4 1258 569.4H1300.7C1306.4 569.4 1311 574 1311 579.7V588.4H1311.1Z" fill="#D7DCDC"></path><path d="M1284.3 573.8C1284.3 573.7 1284.5 573.2 1284.5 572.6H1277.6C1277.6 571.5 1277.6 571 1326.7 477.5L1228.9 388.2L1233.5 383.1L1335.3 476L1334.1 478.3C1314.7 515.1 1285.5 570.9 1284.3 573.8Z" fill="#D7DCDC"></path><path d="M1226.6 392.5C1231.2 389.9 1234.3 385 1234.3 379.3C1234.3 371 1227.6 364.3 1219.3 364.3C1211.6 364.3 1205.3 370.1 1204.4 377.5C1183.4 370.7 1159.8 379 1148 398.8L1177.3 416.2C1176.3 418.2 1175.7 420.5 1175.7 422.9C1175.7 431.2 1182.4 437.9 1190.7 437.9C1195.8 437.9 1200.3 435.4 1203 431.5L1231 448.1C1241.8 430 1239.4 407.7 1226.6 392.5Z" fill="#E7EDF2"></path><path d="M1326.2 491C1334.1 491 1340.5 484.598 1340.5 476.7C1340.5 468.802 1334.1 462.4 1326.2 462.4C1318.3 462.4 1311.9 468.802 1311.9 476.7C1311.9 484.598 1318.3 491 1326.2 491Z" fill="#E7EDF2"></path><path d="M1074.3 667.1L1023.1 822.6C1016.1 844 997.2 858.3 976 858.4L890.4 858.7L699.4 859.4L673.9 859.5C673.9 859.5 676.2 846.1 699.4 839.4C710.1 836.3 725.2 834.6 746.5 836.2C814.2 841.4 816.4 774.9 816.4 774.9L820.4 760.7L861 618.3C869.8 587.5 897.1 567 927.2 568.7L1016 573.8C1059.6 576.3 1088.8 623 1074.3 667.1Z" fill="#D7DCDC"></path><path d="M1513.3 615.3H1266.8V724.1H1513.3V615.3Z" fill="#D7DCDC"></path><path d="M1353.4 647.5H1435.6" stroke="white" stroke-width="3" stroke-miterlimit="10"></path><path d="M1515.5 750.7H1269V859.5H1515.5V750.7Z" fill="#D7DCDC"></path><path d="M1355.6 782.9H1437.8" stroke="white" stroke-width="3" stroke-miterlimit="10"></path><path d="M1517.7 886.2H1271.2V995H1517.7V886.2Z" fill="#D7DCDC"></path><path d="M1357.8 918.4H1440" stroke="white" stroke-width="3" stroke-miterlimit="10"></path><path d="M1041.7 528C1041.7 528 1087 501.4 1085 461.8C1083 422.1 1083 404.3 1075.1 380.5C1067.2 356.7 1067.2 319 1069.2 305.1C1071.2 291.2 1069.2 259.5 1039.5 239.7C1009.8 219.9 980 227.8 980 227.8C980 227.8 946.3 231.8 940.3 257.5C934.3 283.2 936.3 299.1 936.3 299.1C936.3 299.1 933.3 436.9 931.3 442.9C929.3 448.8 969 466.7 969 466.7L1041.7 528Z" fill="#7D501E"></path><path d="M799.1 353.6L858.9 460.6L957.1 395.4V444.9L862.9 491.5L787.5 390.4L799.1 353.6Z" fill="#BE282D"></path><path d="M879.8 1254.1C879.8 1254.1 917.5 1242.2 919.5 1218.4C921.5 1194.6 895.7 1039.9 897.7 1008.2C899.7 976.5 903.6 915 903.6 915L1010.7 924.9C1010.7 924.9 972.5 967.9 972.5 975.9C972.5 983.8 954.2 1037 954.2 1048.9C954.2 1060.8 962.1 1092.5 958.2 1122.3C954.2 1152 948.3 1241.3 948.3 1241.3C948.3 1241.3 892.8 1275 886.8 1263.1C880.7 1251.2 879.8 1254.1 879.8 1254.1Z" fill="#FAC89B"></path><path d="M987.8 925.9L1033.4 923.9L1027.5 955.6C1027.5 955.6 1067.2 1001.2 1087 1050.8C1106.8 1100.4 1138.6 1144 1138.6 1144C1138.6 1144 1138.2 1173.5 1128.3 1179.4C1118.4 1185.3 1093 1195.6 1093 1195.6C1093 1195.6 1118.8 1169.8 1106.9 1150C1095 1130.2 964.1 995.3 962.1 977.5C960.1 959.6 987.8 925.9 987.8 925.9Z" fill="#FAC89B"></path><path d="M914.5 689.9L862.9 896.2C925.9 930.8 989.9 940.3 1055.3 918C1055.3 918 1071.2 747.4 1065.2 703.8C1059.3 660.2 1053.3 646.3 1053.3 646.3L914.5 689.9Z" fill="#322D41"></path><path d="M918.4 283.3L902.5 299.2C881.6 321 861.5 325.3 843 301.2L799.4 317L805.4 403.2L795.5 392.4L786.6 329.9C786.6 329.9 781.6 334.9 785.6 376.5C789.6 418.1 777.7 440 777.7 440C777.7 440 775.8 438.1 772.1 430.8C767.4 421.5 767.4 406.1 773.1 397.4C778.5 389.1 767.9 381.1 763.8 366.6C759.9 353 765.5 335.1 765.8 334.3C765 335.8 743.7 374.8 730.1 390.4C716.2 406.3 728.1 406.3 734.1 420.1C740 434 732.1 443.9 732.1 465.7C732.1 477.4 739.5 486.3 746.4 492C750.9 495.7 750 502.9 744.7 505.3C741.9 506.6 738.6 506 736.3 504C729.6 498 715.7 485.5 708.3 479.6C698.4 471.7 692.4 467.7 690.5 455.8C688.5 443.9 690.5 445.9 678.6 439.9C666.7 434 666.7 422.1 666.7 422.1L660.8 426.1C650.9 451.9 591.4 469.7 587.4 463.8C583.4 457.9 589.4 457.9 619.1 440C648.8 422.2 662.7 390.4 662.7 390.4C662.7 390.4 684.5 323 712.3 293.2C740.1 263.4 809.5 265.4 809.5 265.4C827.3 219.8 885.9 234.7 889.8 272.3L890.8 273.3L897.1 275.5L918.4 283.3Z" fill="#D7DCDC"></path><path d="M804.5 292C810 285.7 815 279 819 271.7C827.1 256.8 839.1 238.9 843 255.5C848.9 281.3 847 346.7 835.1 354.7C823.2 362.6 789.5 362.6 791.8 334.1C793.8 309.2 799.8 297.5 804.5 292Z" fill="#E7EDF2"></path><path d="M959.1 456.8C959.1 456.8 950.2 400.3 956.1 396.3C962 392.3 979.9 384.4 973.9 372.5C967.9 360.6 966 354.7 966 354.7C966 354.7 932.3 358.7 930.3 342.8C928.3 326.9 926.3 317 926.3 317L922.4 313.1C920.3 311 920.6 307.5 923 305.7L940.2 293.2C940.2 293.2 944.2 237.7 958 247.6C958 247.6 963.9 293.2 981.8 305.1L993.7 315C993.7 315 995.7 384.4 1005.6 402.3C1015.6 420.1 959.1 456.8 959.1 456.8Z" fill="#FAC89B"></path><path d="M1025.8 396.2C1025.8 396.2 1069.1 404.3 1063.2 443.9C1057.3 483.5 1029.5 551 1037.4 572.9C1045.3 594.7 1079 680 1079 680C1001.7 707.8 935.8 720.6 888.6 693.9C888.6 693.9 914.4 622.5 908.4 576.9C902.5 531.3 892.5 475.8 892.5 475.8L1025.8 396.2Z" fill="#BE282D"></path><path d="M918.4 283.3L904.2 297.5C899.1 294.4 895.6 288.7 895.6 282.3C895.6 279.9 896.1 277.7 896.9 275.6L918.4 283.3Z" fill="#E7EDF2"></path><path d="M859.9 264.5C864.4 270.8 869.5 272 875.8 264.5" stroke="#E7EDF2" stroke-miterlimit="10"></path><path d="M777.6 410.2C777.6 410.2 755.8 384.4 751.8 374.5C747.8 364.6 734 344.8 737.9 340.8C741.9 336.8 745.8 323 751.8 323C757.7 323 761.7 317.1 763.7 327C765.7 336.9 777.6 368.6 779.6 362.7C781.6 356.8 783.6 334.9 787.5 344.9C791.4 354.9 795.4 406.4 795.4 406.4L777.6 410.2Z" fill="#FAC89B"></path><path d="M1016.6 398.7C1031.7 391.8 1049.2 400.6 1053.4 417.4C1056.2 428.7 1052.1 440.6 1043.1 447.4C1008.6 473.4 909.3 535.4 864.9 523.3C808.5 508 765.7 396.4 765.7 396.4L794.9 385.5C794.9 385.5 841 473.8 884.7 465.8L1016.6 398.7Z" fill="#BE282D"></path><path d="M916.7 1231C916.7 1231 912.8 1236.1 929 1237.6C946.3 1239.3 949.9 1232.8 949.9 1232.8C949.9 1232.8 956.9 1270.7 956.9 1274.6C956.9 1278.5 856.5 1283.1 857.3 1274C858 1264.9 896.2 1238.9 916.7 1231Z" fill="#322D41"></path><path d="M1108.1 1148.2C1108.1 1148.2 1105.6 1156.6 1120.6 1150.3C1136.7 1143.6 1133.8 1137.1 1133.8 1137.1C1133.8 1137.1 1160.7 1166.4 1162.5 1169.9C1164.3 1173.4 1077.8 1224.5 1074.2 1216.1C1070.7 1207.7 1093.7 1164.8 1108.1 1148.2Z" fill="#322D41"></path></g><defs><clipPath id="clip0_1_3"><rect width="1483.2" height="1209.5" fill="white" transform="translate(218 73)"></rect></clipPath></defs></svg> 