<?xml version="1.0" encoding="UTF-8"?> <svg xmlns="http://www.w3.org/2000/svg" width="1920" height="1356" viewBox="0 0 1920 1356" fill="none"><g clip-path="url(#clip0_68_90)"><path d="M686.244 1047.4H677.091L685.336 984.107H707.187L686.244 1047.4Z" fill="#D7DCDC"></path><path d="M1243.21 1047.4H1252.36L1244.12 984.107H1222.28L1243.21 1047.4Z" fill="#D7DCDC"></path><path d="M1303.91 813.011H615.094V994.649H1303.91V813.011Z" fill="#E6EBF0"></path><path d="M1294.02 824.976H635.584V977.634H1294.02V824.976Z" fill="#D7DCDC"></path><path d="M848.604 829.402H642.283V973.209H848.604V829.402Z" fill="#E6EBF0"></path><path d="M1287.33 829.402H1081.01V973.209H1287.33V829.402Z" fill="#E6EBF0"></path><path d="M1074.71 903.824H855.008V973.209H1074.71V903.824Z" fill="#E6EBF0"></path><path d="M1074.71 829.402H855.008V898.786H1074.71V829.402Z" fill="#E6EBF0"></path><path d="M972.585 776.824H945.531V799.306H972.585V776.824Z" fill="#D7DCDC"></path><path d="M1047.23 813.477H871.781C871.415 813.478 871.055 813.381 870.739 813.197C870.423 813.013 870.162 812.749 869.982 812.431C869.802 812.112 869.711 811.752 869.716 811.387C869.722 811.021 869.824 810.664 870.014 810.351L879.584 794.415C879.765 794.108 880.024 793.854 880.334 793.678C880.643 793.502 880.994 793.409 881.351 793.41H1038.03C1038.4 793.408 1038.76 793.503 1039.07 793.686C1039.39 793.869 1039.65 794.134 1039.83 794.452L1048.97 810.388C1049.15 810.699 1049.24 811.049 1049.24 811.406C1049.24 811.762 1049.15 812.113 1048.97 812.424C1048.8 812.734 1048.55 812.995 1048.24 813.179C1047.94 813.364 1047.59 813.466 1047.23 813.477Z" fill="#E6EBF0"></path><path d="M1153.18 533.047H765.823C762.509 533.047 759.823 535.731 759.823 539.041V771.467C759.823 774.777 762.509 777.461 765.823 777.461H1153.18C1156.49 777.461 1159.18 774.777 1159.18 771.467V539.041C1159.18 535.731 1156.49 533.047 1153.18 533.047Z" fill="#E6EBF0"></path><path d="M1140.45 549.277H778.546C775.232 549.277 772.546 551.961 772.546 555.272V755.236C772.546 758.547 775.232 761.231 778.546 761.231H1140.45C1143.77 761.231 1146.45 758.547 1146.45 755.236V555.272C1146.45 551.961 1143.77 549.277 1140.45 549.277Z" fill="white"></path><path d="M1253.63 812.913C1253.63 812.913 1271.37 800.287 1271.37 786.3C1271.37 773.918 1255.56 763.314 1253.63 757.357C1251.69 751.399 1257.16 740.624 1257.16 740.624H1214.22C1216.69 745.608 1218.02 751.082 1218.11 756.646C1218.11 765.472 1202.89 770.939 1201.47 786.582C1200.05 802.224 1218.11 812.913 1218.11 812.913C1218.11 812.913 1233.55 813.122 1253.63 812.913Z" fill="#E6EBF0"></path><path d="M1235.71 744.595C1247.56 744.595 1257.16 742.817 1257.16 740.624C1257.16 738.43 1247.56 736.652 1235.71 736.652C1223.87 736.652 1214.27 738.43 1214.27 740.624C1214.27 742.817 1223.87 744.595 1235.71 744.595Z" fill="#E6EBF0"></path><g style="mix-blend-mode:multiply"><path d="M1215.68 742.046C1219.87 743.909 1227.34 744.596 1235.84 744.596C1244.33 744.596 1251.99 743.86 1256.04 741.886C1252.08 739.741 1244.35 738.797 1235.86 738.797C1227.37 738.797 1219.62 739.9 1215.68 742.046Z" fill="#DFE1E5"></path></g><path d="M1239.06 738.54C1244.97 732.825 1249.28 725.663 1251.56 717.768C1253.83 709.872 1254 701.518 1252.04 693.538C1249.71 701.96 1246.88 710.418 1243.76 718.779C1244.28 710.712 1242.44 694.041 1239.48 687.801C1238.78 698.012 1237.65 714.549 1235.99 727.887C1234.22 713.532 1233.2 694.788 1232.13 684.528C1229.39 690.89 1227.01 711.007 1227.69 719.416C1224.29 711.154 1221.14 702.769 1218.5 694.421C1216.71 703.103 1217.4 712.111 1220.49 720.421C1220.82 721.316 1221.19 722.199 1221.57 723.069C1219.42 720.09 1217.21 716.781 1215.05 713.164C1215.05 713.164 1223.55 737.792 1236.44 742.585C1236.44 742.585 1249.54 733.158 1253.86 723.118C1253.86 723.131 1245.76 733.71 1239.06 738.54Z" fill="#D7DCDC"></path><path d="M1236.26 741.433C1229.71 727.643 1224.01 713.466 1219.19 698.981C1219.19 698.981 1220.84 730.057 1236.26 741.433Z" fill="#E6EBF0"></path><path d="M1231.69 689.958L1235.92 740.71C1235.92 740.71 1227.25 725.337 1231.69 689.958Z" fill="#E6EBF0"></path><path d="M1235.3 741.433C1241.85 727.646 1247.56 713.468 1252.37 698.981C1252.37 698.981 1250.71 730.057 1235.3 741.433Z" fill="#E6EBF0"></path><path d="M1239.88 689.958L1235.65 740.71C1235.65 740.71 1244.33 725.337 1239.88 689.958Z" fill="#E6EBF0"></path><path d="M1236.34 742.426C1236.34 742.426 1246.25 734.053 1248.49 730.339C1248.49 730.339 1238.25 740.44 1235.59 740.709C1232.93 740.979 1220.44 723.167 1220.44 723.167C1220.44 723.167 1228.92 739.447 1236.34 742.426Z" fill="#E6EBF0"></path><path d="M1499 1044.58H420V1047.18H1499V1044.58Z" fill="#D7DCDC"></path><path d="M959.507 1302C1047.09 1302 1118.09 1278.24 1118.09 1248.93C1118.09 1219.62 1047.09 1195.86 959.507 1195.86C871.925 1195.86 800.926 1219.62 800.926 1248.93C800.926 1278.24 871.925 1302 959.507 1302Z" fill="#E6EBF0"></path><path d="M1117.87 243.468C1132.3 241.897 1142.72 228.936 1141.15 214.519C1139.57 200.103 1126.6 189.689 1112.17 191.261C1097.74 192.832 1087.32 205.793 1088.89 220.209C1090.47 234.626 1103.44 245.039 1117.87 243.468Z" fill="#BE282D"></path><path opacity="0.7" d="M1117.87 243.468C1132.3 241.897 1142.72 228.936 1141.15 214.519C1139.57 200.103 1126.6 189.689 1112.17 191.261C1097.74 192.832 1087.32 205.793 1088.89 220.209C1090.47 234.626 1103.44 245.039 1117.87 243.468Z" fill="#BE282D"></path><path d="M1069.44 248.84C1076.12 248.84 1081.54 243.429 1081.54 236.753C1081.54 230.078 1076.12 224.666 1069.44 224.666C1062.76 224.666 1057.34 230.078 1057.34 236.753C1057.34 243.429 1062.76 248.84 1069.44 248.84Z" fill="#BE282D"></path><path opacity="0.6" d="M1069.44 248.84C1076.12 248.84 1081.54 243.429 1081.54 236.753C1081.54 230.078 1076.12 224.666 1069.44 224.666C1062.76 224.666 1057.34 230.078 1057.34 236.753C1057.34 243.429 1062.76 248.84 1069.44 248.84Z" fill="#BE282D"></path><path d="M1039.26 250.029C1039.37 251.09 1039.8 252.093 1040.49 252.911C1041.17 253.728 1042.09 254.324 1043.11 254.623C1044.14 254.922 1045.23 254.91 1046.25 254.589C1047.27 254.268 1048.17 253.652 1048.83 252.82C1049.5 251.987 1049.91 250.975 1050 249.912C1050.09 248.849 1049.87 247.782 1049.35 246.847C1048.84 245.912 1048.06 245.15 1047.11 244.658C1046.16 244.166 1045.09 243.966 1044.03 244.084C1043.32 244.16 1042.64 244.375 1042.02 244.715C1041.4 245.055 1040.85 245.515 1040.41 246.067C1039.96 246.619 1039.63 247.254 1039.44 247.933C1039.24 248.613 1039.18 249.326 1039.26 250.029Z" fill="#BE282D"></path><path opacity="0.5" d="M1039.26 250.029C1039.37 251.09 1039.8 252.093 1040.49 252.911C1041.17 253.728 1042.09 254.324 1043.11 254.623C1044.14 254.922 1045.23 254.91 1046.25 254.589C1047.27 254.268 1048.17 253.652 1048.83 252.82C1049.5 251.987 1049.91 250.975 1050 249.912C1050.09 248.849 1049.87 247.782 1049.35 246.847C1048.84 245.912 1048.06 245.15 1047.11 244.658C1046.16 244.166 1045.09 243.966 1044.03 244.084C1043.32 244.16 1042.64 244.375 1042.02 244.715C1041.4 245.055 1040.85 245.515 1040.41 246.067C1039.96 246.619 1039.63 247.254 1039.44 247.933C1039.24 248.613 1039.18 249.326 1039.26 250.029Z" fill="#BE282D"></path><path d="M1138.31 177.948C1137.33 169.041 1138.69 160.034 1142.24 151.809C1145.8 143.583 1151.43 136.42 1158.59 131.022C1157.39 119.77 1159.48 108.414 1164.6 98.3233C1169.73 88.2331 1177.67 79.8411 1187.46 74.1613C1197.25 68.4815 1208.48 65.757 1219.8 66.3168C1231.11 66.8766 1242.01 70.6969 1251.2 77.316C1255.87 70.1927 1262.24 64.3332 1269.73 60.2574C1277.22 56.1816 1285.6 54.0154 1294.12 53.9512C1302.65 53.8869 1311.06 55.9265 1318.61 59.889C1326.16 63.8514 1332.62 69.6143 1337.4 76.6663C1343.42 72.7782 1350.34 70.4939 1357.49 70.0306C1364.65 69.5673 1371.8 70.9404 1378.27 74.0193C1384.75 77.0982 1390.32 81.7806 1394.47 87.621C1398.62 93.4615 1401.21 100.266 1401.99 107.387C1402.38 111.06 1402.29 114.769 1401.72 118.42C1407.54 121.45 1412.47 125.935 1416.03 131.438C1419.6 136.941 1421.68 143.273 1422.07 149.818C1422.45 156.362 1421.14 162.895 1418.24 168.779C1415.35 174.663 1410.98 179.697 1405.56 183.391C1404.9 192.233 1401.17 200.567 1395.01 206.945C1388.84 213.323 1380.64 217.342 1371.82 218.304C1369.45 218.56 1367.06 218.597 1364.69 218.414C1363.14 223.501 1360.54 228.206 1357.06 232.225C1353.58 236.244 1349.29 239.488 1344.48 241.745C1339.66 244.002 1334.42 245.223 1329.1 245.328C1323.78 245.433 1318.5 244.42 1313.6 242.355C1310.02 246.442 1305.6 249.712 1300.64 251.944C1295.68 254.176 1290.31 255.318 1284.87 255.292C1279.43 255.267 1274.06 254.074 1269.13 251.796C1264.19 249.517 1259.81 246.206 1256.26 242.086C1251.53 249.325 1244.66 254.926 1236.62 258.122C1228.57 261.318 1219.74 261.954 1211.32 259.941C1202.9 257.929 1195.3 253.367 1189.58 246.88C1183.85 240.392 1180.27 232.296 1179.32 223.698C1179.32 223.452 1179.32 223.219 1179.26 222.974C1168.55 220.744 1158.83 215.188 1151.47 207.101C1144.12 199.014 1139.51 188.81 1138.31 177.948Z" fill="#BE282D"></path><path d="M1203.42 204.415C1231.07 208.166 1256.96 221.577 1266.8 227.191C1267.01 227.301 1267.23 227.376 1267.45 227.412C1267.81 227.459 1268.17 227.399 1268.48 227.24C1268.75 227.114 1268.98 226.923 1269.15 226.685C1269.32 226.447 1269.43 226.17 1269.47 225.88L1287.1 96.2437C1287.13 95.985 1287.11 95.7212 1287.04 95.4711C1286.96 95.2211 1286.83 94.991 1286.65 94.7972C1279.24 86.6933 1270.44 79.98 1260.66 74.9748C1250.48 69.7196 1239.47 66.2529 1228.12 64.7265C1215.51 63.0358 1202.72 63.3171 1190.21 65.5601C1189.84 65.6324 1189.5 65.8175 1189.24 66.0898C1188.98 66.3621 1188.81 66.7082 1188.76 67.0802L1170.19 203.581C1170.16 203.814 1170.18 204.051 1170.24 204.278C1170.29 204.506 1170.4 204.719 1170.54 204.906C1170.68 205.093 1170.86 205.25 1171.07 205.368C1171.27 205.485 1171.49 205.561 1171.73 205.592C1171.95 205.64 1172.19 205.64 1172.42 205.592C1181.58 203.226 1191.95 202.846 1203.42 204.415Z" fill="#E6EBF0"></path><path d="M1354.93 81.962C1343.59 80.4162 1332.06 80.8309 1320.85 83.1879C1310.08 85.3988 1299.8 89.5218 1290.49 95.3608C1290.28 95.4944 1290.09 95.673 1289.95 95.8845C1289.81 96.096 1289.71 96.3354 1289.67 96.5867L1272.03 226.21C1271.99 226.501 1272.02 226.797 1272.12 227.073C1272.22 227.348 1272.39 227.595 1272.61 227.792C1272.87 228.033 1273.21 228.187 1273.56 228.233C1273.79 228.27 1274.01 228.27 1274.24 228.233C1285.28 225.463 1313.77 219.431 1341.41 223.183C1352.88 224.739 1362.85 227.89 1371.01 232.524C1371.2 232.644 1371.42 232.719 1371.64 232.744C1372.12 232.807 1372.59 232.682 1372.97 232.395C1373.35 232.108 1373.6 231.683 1373.67 231.212L1392.23 94.7479C1392.29 94.3752 1392.22 93.9952 1392.04 93.6625C1391.87 93.3298 1391.59 93.0617 1391.25 92.8968C1379.79 87.3865 1367.53 83.6971 1354.93 81.962Z" fill="#E6EBF0"></path><path d="M1403.35 112.094C1401.36 109.342 1398.61 107.242 1395.42 106.063C1395.02 105.934 1394.68 105.668 1394.45 105.311C1394.23 104.955 1394.14 104.531 1394.2 104.114L1395.57 94.0247C1395.65 93.344 1395.52 92.6541 1395.2 92.0502C1394.87 91.4463 1394.37 90.9582 1393.75 90.6535C1381.63 84.7904 1368.68 80.7859 1355.36 78.7748C1331.06 75.4772 1309.11 80.0007 1290.11 92.2594C1289.75 92.4893 1289.32 92.5847 1288.89 92.5291C1288.47 92.4661 1288.08 92.258 1287.8 91.9407C1272.78 75.0481 1252.84 64.8121 1228.54 61.5023C1215.16 59.897 1201.62 60.3103 1188.37 62.7281C1187.69 62.8565 1187.07 63.1925 1186.6 63.6892C1186.12 64.1859 1185.81 64.8185 1185.72 65.4986L1184.34 75.5875C1184.28 76.0012 1184.08 76.3815 1183.77 76.6632C1183.46 76.945 1183.07 77.1108 1182.65 77.1321C1179.27 77.4106 1176.05 78.6911 1173.4 80.8098C1172.44 81.5366 1171.82 82.6125 1171.65 83.8009L1152.58 224.016C1152.54 224.276 1152.55 224.541 1152.62 224.795C1152.69 225.049 1152.8 225.288 1152.96 225.497C1153.12 225.707 1153.32 225.883 1153.54 226.016C1153.77 226.149 1154.02 226.236 1154.28 226.272C1154.54 226.326 1154.8 226.326 1155.05 226.272C1166.27 223.44 1187.42 219.015 1203.11 221.148C1219.06 223.317 1243.04 232.181 1254.94 237.869C1255.34 238.06 1255.65 238.39 1255.82 238.796C1255.99 239.202 1256.01 239.657 1255.87 240.075C1256.04 240.602 1257.56 243.593 1268.14 244.979C1278.72 246.364 1280.99 243.937 1281.29 243.483C1281.27 243.042 1281.4 242.606 1281.68 242.259C1281.95 241.911 1282.34 241.675 1282.78 241.595C1295.76 239.34 1321.22 237.145 1337.19 239.315C1352.87 241.448 1372.09 251.365 1382.15 257.078C1382.37 257.209 1382.62 257.296 1382.87 257.335C1383.39 257.396 1383.91 257.261 1384.33 256.955C1384.54 256.795 1384.72 256.595 1384.86 256.365C1384.99 256.136 1385.08 255.883 1385.12 255.619L1404.19 115.392C1404.36 114.224 1404.05 113.039 1403.35 112.094ZM1269.47 225.88C1269.43 226.17 1269.32 226.447 1269.15 226.685C1268.98 226.923 1268.75 227.113 1268.48 227.24C1268.17 227.399 1267.81 227.459 1267.45 227.412C1267.23 227.374 1267.01 227.299 1266.8 227.191C1256.99 221.589 1231.08 208.166 1203.43 204.415C1191.95 202.845 1181.52 203.189 1172.42 205.518C1172.19 205.567 1171.95 205.567 1171.73 205.518C1171.49 205.488 1171.27 205.412 1171.07 205.294C1170.86 205.176 1170.68 205.019 1170.54 204.832C1170.4 204.645 1170.29 204.432 1170.24 204.205C1170.18 203.977 1170.16 203.74 1170.19 203.507L1188.77 67.0432C1188.82 66.6712 1188.99 66.3251 1189.25 66.0528C1189.51 65.7805 1189.85 65.5954 1190.22 65.5231C1202.74 63.2801 1215.53 62.9989 1228.13 64.6895C1239.48 66.2159 1250.49 69.6826 1260.67 74.9378C1270.45 79.9431 1279.25 86.6563 1286.67 94.7602C1286.84 94.954 1286.97 95.1841 1287.05 95.4342C1287.13 95.6842 1287.15 95.948 1287.11 96.2067L1269.47 225.88ZM1373.67 231.188C1373.6 231.658 1373.35 232.083 1372.97 232.37C1372.59 232.657 1372.12 232.783 1371.64 232.72C1371.42 232.695 1371.2 232.62 1371.01 232.499C1362.85 227.865 1352.88 224.715 1341.41 223.158C1313.77 219.407 1285.23 225.438 1274.24 228.209C1274.01 228.245 1273.79 228.245 1273.56 228.209C1273.33 228.177 1273.1 228.1 1272.9 227.981C1272.7 227.862 1272.52 227.704 1272.38 227.516C1272.23 227.328 1272.13 227.114 1272.07 226.885C1272.01 226.657 1272 226.42 1272.03 226.186L1289.67 96.5622C1289.71 96.311 1289.81 96.0715 1289.95 95.86C1290.09 95.6485 1290.28 95.4699 1290.5 95.3363C1299.8 89.4973 1310.08 85.3744 1320.85 83.1634C1332.06 80.8062 1343.59 80.3916 1354.95 81.9376C1367.54 83.6664 1379.79 87.3474 1391.25 92.8478C1391.59 93.0127 1391.87 93.2809 1392.04 93.6135C1392.22 93.9462 1392.29 94.3262 1392.23 94.6989L1373.67 231.188Z" fill="#322D41"></path><path d="M1271.34 116.262C1270.93 116.262 1270.51 116.175 1270.13 116.006C1269.75 115.837 1269.41 115.59 1269.13 115.281C1247.22 91.0336 1207.48 96.0352 1207.09 96.0842C1206.7 96.1366 1206.31 96.1123 1205.93 96.0127C1205.55 95.9132 1205.2 95.7404 1204.89 95.5042C1204.58 95.268 1204.32 94.9731 1204.12 94.6361C1203.93 94.2992 1203.8 93.9269 1203.75 93.5406C1203.69 93.1542 1203.72 92.7613 1203.82 92.3843C1203.92 92.0074 1204.09 91.6537 1204.33 91.3435C1204.56 91.0333 1204.86 90.7727 1205.19 90.5765C1205.53 90.3803 1205.9 90.2524 1206.29 90.2C1208.05 89.9549 1249.5 84.6959 1273.55 111.297C1273.93 111.725 1274.19 112.254 1274.27 112.821C1274.36 113.388 1274.29 113.969 1274.05 114.493C1273.82 115.018 1273.44 115.463 1272.96 115.777C1272.48 116.091 1271.92 116.259 1271.34 116.262Z" fill="#322D41"></path><path d="M1269.42 133.093C1269 133.094 1268.59 133.007 1268.21 132.838C1267.83 132.669 1267.49 132.422 1267.21 132.113C1245.25 107.816 1205.57 112.867 1205.16 112.928C1204.4 112.992 1203.64 112.76 1203.05 112.282C1202.45 111.804 1202.06 111.115 1201.96 110.358C1201.86 109.601 1202.05 108.834 1202.5 108.215C1202.94 107.596 1203.61 107.172 1204.36 107.031C1206.12 106.798 1247.58 101.539 1271.63 128.129C1272.01 128.556 1272.26 129.086 1272.35 129.652C1272.44 130.219 1272.36 130.8 1272.13 131.324C1271.89 131.849 1271.51 132.295 1271.03 132.609C1270.55 132.922 1269.99 133.091 1269.42 133.093Z" fill="#322D41"></path><path d="M1267.47 149.925C1267.05 149.927 1266.64 149.842 1266.26 149.676C1265.88 149.509 1265.54 149.264 1265.26 148.956C1243.34 124.708 1203.6 129.71 1203.21 129.759C1202.43 129.865 1201.64 129.656 1201.01 129.179C1200.39 128.702 1199.97 127.996 1199.87 127.215C1199.76 126.435 1199.97 125.645 1200.45 125.018C1200.93 124.392 1201.63 123.98 1202.41 123.875C1204.17 123.63 1245.63 118.371 1269.67 144.972C1269.94 145.261 1270.14 145.599 1270.27 145.967C1270.4 146.334 1270.46 146.724 1270.44 147.114C1270.42 147.504 1270.32 147.886 1270.15 148.238C1269.98 148.59 1269.74 148.905 1269.45 149.164C1268.91 149.658 1268.2 149.929 1267.47 149.925Z" fill="#322D41"></path><path d="M1265.56 166.805C1265.15 166.805 1264.74 166.718 1264.36 166.549C1263.98 166.38 1263.63 166.133 1263.36 165.824C1241.44 141.576 1201.71 146.59 1201.31 146.639C1200.55 146.703 1199.79 146.472 1199.19 145.994C1198.6 145.515 1198.21 144.827 1198.11 144.07C1198 143.313 1198.2 142.545 1198.64 141.926C1199.09 141.307 1199.76 140.883 1200.51 140.743C1202.27 140.51 1243.72 135.251 1267.77 161.84C1268.16 162.268 1268.41 162.797 1268.5 163.364C1268.58 163.931 1268.51 164.511 1268.27 165.036C1268.04 165.56 1267.66 166.006 1267.18 166.32C1266.7 166.634 1266.14 166.802 1265.56 166.805Z" fill="#322D41"></path><path d="M1242.57 172.162C1242.01 172.161 1241.46 172.004 1240.99 171.708C1228.66 164.047 1213.98 161.091 1199.64 163.385C1198.87 163.559 1198.06 163.42 1197.4 162.999C1196.73 162.578 1196.26 161.91 1196.08 161.141C1195.91 160.372 1196.05 159.566 1196.47 158.899C1196.89 158.232 1197.56 157.76 1198.33 157.586C1214.2 154.851 1230.53 158.087 1244.15 166.67C1244.71 167.01 1245.13 167.521 1245.37 168.125C1245.6 168.73 1245.63 169.394 1245.45 170.016C1245.27 170.639 1244.89 171.186 1244.37 171.573C1243.85 171.96 1243.22 172.167 1242.57 172.162Z" fill="#322D41"></path><path d="M1296.97 157.378C1296.31 157.374 1295.66 157.149 1295.14 156.738C1294.62 156.326 1294.25 155.752 1294.09 155.107C1293.93 154.461 1294 153.782 1294.27 153.176C1294.54 152.57 1295.01 152.073 1295.6 151.763C1325.86 136.072 1363.85 147.828 1365.45 148.331C1366.2 148.568 1366.83 149.094 1367.19 149.793C1367.55 150.492 1367.62 151.307 1367.39 152.058C1367.15 152.809 1366.62 153.435 1365.92 153.798C1365.22 154.161 1364.41 154.232 1363.66 153.994C1363.29 153.884 1326.37 142.496 1298.34 157.047C1297.91 157.261 1297.45 157.374 1296.97 157.378Z" fill="#322D41"></path><path d="M1294.84 174.16C1294.17 174.157 1293.53 173.931 1293.01 173.52C1292.48 173.108 1292.12 172.534 1291.96 171.889C1291.8 171.244 1291.86 170.564 1292.14 169.958C1292.41 169.352 1292.88 168.855 1293.46 168.546C1324.14 152.609 1361.83 165.567 1363.4 166.094C1364.14 166.356 1364.75 166.902 1365.09 167.612C1365.43 168.322 1365.48 169.139 1365.22 169.882C1364.95 170.625 1364.41 171.233 1363.7 171.574C1362.98 171.914 1362.17 171.958 1361.42 171.696C1361.06 171.574 1324.62 159.07 1296.19 173.78C1295.78 174.017 1295.31 174.148 1294.84 174.16Z" fill="#322D41"></path><path d="M1292.7 191.003C1292.04 190.997 1291.4 190.77 1290.88 190.358C1290.36 189.945 1289.99 189.371 1289.83 188.726C1289.68 188.082 1289.74 187.403 1290.01 186.799C1290.29 186.194 1290.75 185.698 1291.34 185.389C1306.81 177.409 1325.03 177.458 1337.58 178.904C1345.63 179.796 1353.57 181.492 1361.28 183.967C1361.98 184.26 1362.54 184.809 1362.85 185.502C1363.16 186.196 1363.19 186.981 1362.94 187.698C1362.69 188.415 1362.18 189.009 1361.5 189.36C1360.83 189.71 1360.04 189.789 1359.31 189.581C1351.98 187.247 1344.43 185.646 1336.78 184.801C1325.08 183.464 1308.18 183.403 1294.07 190.672C1293.64 190.89 1293.18 191.003 1292.7 191.003Z" fill="#322D41"></path><path d="M1291.8 208.779C1291.11 208.782 1290.45 208.55 1289.91 208.122C1289.38 207.693 1289.01 207.095 1288.87 206.426C1288.72 205.758 1288.81 205.06 1289.12 204.45C1289.43 203.841 1289.94 203.356 1290.57 203.078C1313.36 193.038 1335.79 199.916 1336.74 200.21C1337.46 200.474 1338.05 201.005 1338.39 201.692C1338.72 202.38 1338.78 203.171 1338.55 203.902C1338.32 204.632 1337.82 205.246 1337.15 205.616C1336.48 205.985 1335.69 206.082 1334.95 205.886C1334.73 205.812 1313.66 199.401 1292.96 208.521C1292.59 208.687 1292.2 208.775 1291.8 208.779Z" fill="#322D41"></path><path d="M1297.17 139.603C1296.45 139.603 1295.76 139.342 1295.22 138.867C1294.83 138.524 1294.53 138.085 1294.36 137.592C1294.19 137.1 1294.15 136.572 1294.25 136.06L1299.53 108.895C1299.62 108.439 1299.81 108.011 1300.1 107.645C1300.38 107.279 1300.75 106.985 1301.17 106.786C1332.16 91.9775 1367.42 104.2 1368.87 104.727C1369.49 104.946 1370.02 105.365 1370.38 105.917C1370.74 106.469 1370.9 107.124 1370.85 107.779L1368.55 134.932C1368.51 135.41 1368.36 135.872 1368.11 136.278C1367.85 136.684 1367.5 137.022 1367.08 137.263C1366.67 137.504 1366.2 137.641 1365.72 137.662C1365.24 137.683 1364.77 137.587 1364.33 137.384C1339.44 125.836 1298.53 139.308 1298.08 139.443C1297.79 139.546 1297.48 139.6 1297.17 139.603ZM1305.08 111.518L1301.03 132.358C1307.63 130.533 1314.33 129.12 1321.09 128.129C1337.95 125.677 1352.01 126.437 1362.97 130.396L1364.71 109.642C1356.9 107.362 1329.32 100.669 1305.08 111.518Z" fill="#322D41"></path><path d="M925.152 340.756C925.152 340.756 926.944 373.34 913.423 384.446L954.108 451.869L1008.68 385.219C1008.68 385.219 992.032 366.622 994.032 340.756H925.152Z" fill="#FAB4A5"></path><path d="M914.11 382.987C914.11 382.987 960.942 451.894 1006.78 382.987L1065.06 422.816L1053.35 718.632H868.088L853.99 416.576C853.99 416.576 883.032 396.656 914.11 382.987Z" fill="#BE282D"></path><path d="M881.682 1194.77C881.682 1194.77 926.931 1187.06 921.336 1197.58C920.649 1198.87 907.545 1211.03 881.682 1194.77Z" fill="#322D41"></path><path d="M1036.59 1192.86C1036.59 1192.86 991.64 1184.81 997.198 1195.8C997.872 1197.19 1010.89 1209.89 1036.59 1192.86Z" fill="#322D41"></path><path d="M918.931 1159.87H888.393V1210.65H918.931V1159.87Z" fill="#FAB4A5"></path><path d="M1029.99 1159.87H999.455V1210.65H1029.99V1159.87Z" fill="#FAB4A5"></path><path d="M911.263 267.13C910.183 301.847 907.803 322.037 923.532 342.142C947.236 372.372 991.099 362.552 1002.45 329.331C1012.69 299.444 1012.73 247.676 980.364 229.263C948.463 211.12 912.33 232.414 911.263 267.13Z" fill="#FAB4A5"></path><path d="M903.386 294.994C902.788 300.586 904.331 306.197 907.705 310.698C912.183 316.508 918.502 313.321 920.686 306.591C922.637 300.535 922.661 290.213 916.526 286.83C910.392 283.446 904.159 288.166 903.386 294.994Z" fill="#FAB4A5"></path><path d="M999.467 292.224C998.622 297.464 999.679 302.834 1002.45 307.363C1006.01 312.818 1011.61 309.337 1013.82 302.619C1015.81 296.576 1016.35 286.462 1011.23 283.483C1006.12 280.504 1000.47 285.432 999.467 292.224Z" fill="#FAB4A5"></path><path d="M911.545 313.726C911.545 313.726 910.858 304.973 917.017 291.733C917.017 291.733 923.397 291.733 925.029 265.917C926.465 243.14 957.985 258.426 957.985 258.426C957.985 258.426 976.977 262.006 986.425 254.639C989.823 251.978 993.602 252.689 996.67 255.484C999.038 257.63 1002.72 261.516 1003.01 265.034C1003.21 267.388 1001.22 269.852 1000.8 272.193C1000.52 273.811 1000.49 275.871 1001.76 276.998C1002.21 277.315 1002.62 277.676 1002.99 278.077C1003.85 279.303 1003.71 281.755 1003.88 283.165L1004.66 289.294C1005.16 293.254 1006.02 297.336 1006.18 301.308C1006.18 301.308 1007.29 327.86 1007.99 292.163C1007.99 292.163 1020.42 266.946 1013.02 248.031C1012.94 247.798 1013.47 246.683 1013.54 246.437C1013.92 245.067 1014.19 243.67 1014.35 242.257C1014.92 238.255 1014.14 234.176 1012.12 230.673C1009.69 227.092 1006.02 224.541 1001.81 223.514C998.584 222.57 995.173 222.472 991.995 221.332C988.817 220.192 985.578 218.095 982.253 216.82C975.217 214.094 967.8 212.473 960.267 212.015C951.573 211.496 942.88 213.051 934.906 216.551C931.016 218.291 927.373 220.538 924.072 223.232C919.704 226.738 916.06 231.163 911.803 234.755C910.534 236.046 909.541 237.58 908.883 239.266C906.739 244.289 905.374 249.609 904.834 255.043C904.159 260.293 903.778 265.577 903.693 270.869C903.067 296.747 908.674 295.595 911.545 313.726Z" fill="#7D501E"></path><path d="M866.614 708.91L874.123 1182.33H932.93L959.505 801.807C959.505 801.807 984.768 1006.2 986.498 1182.33H1040.81L1054.72 708.91H866.614Z" fill="#322D41"></path><path d="M922.992 1220.44C923.102 1222.39 923.164 1224.35 923.139 1226.31C923.123 1227.74 923.033 1229.17 922.869 1230.59C922.754 1231.58 922.57 1232.56 922.317 1233.52C922.153 1234.15 921.927 1234.76 921.642 1235.35C921.271 1236.03 920.751 1236.62 920.121 1237.08C919.568 1237.54 919.055 1238.06 918.587 1238.61C918.097 1239.16 917.581 1239.69 917.078 1240.23C916.146 1241.21 915.226 1242.21 914.342 1243.26C914.084 1243.57 913.827 1243.88 913.581 1244.21C913.422 1244.41 913.29 1244.62 913.189 1244.85C912.759 1246.08 911.876 1252.78 910.637 1260.09C909.398 1267.39 895.558 1279.36 877.399 1279.58C875.344 1279.62 873.29 1279.46 871.265 1279.11C869.552 1278.82 867.871 1278.37 866.246 1277.75C864.839 1277.21 863.484 1276.55 862.198 1275.77C861.082 1275.09 860.027 1274.32 859.044 1273.46C857.548 1272.16 856.228 1270.66 855.118 1269.01C854.467 1268.21 854.009 1267.27 853.781 1266.27C853.723 1265.55 853.703 1264.84 853.72 1264.12C853.72 1263.36 853.719 1262.6 853.634 1261.84C853.56 1260.32 853.486 1258.8 853.486 1257.27V1257.13C853.475 1256.94 853.475 1256.74 853.486 1256.54L922.992 1220.44Z" fill="#322D41"></path><path d="M880.136 1195.41C880.136 1195.41 876.958 1194.75 874.835 1206.7C872.713 1218.65 863.376 1237.94 859.315 1241.7C855.254 1245.46 853.499 1256.61 853.499 1256.61C853.499 1256.61 858.787 1268.35 880.136 1266.57C887.657 1265.88 894.823 1263.05 900.785 1258.42C905.142 1255.11 908.909 1251.09 911.925 1246.53C912.082 1246.31 912.214 1246.07 912.318 1245.82C912.541 1244.8 912.627 1243.76 912.576 1242.72L912.797 1239.04L912.981 1235.93C912.909 1235.04 913.009 1234.14 913.275 1233.29C913.5 1232.91 913.817 1232.6 914.195 1232.37C915.675 1231.24 917.029 1229.95 918.232 1228.53C920.438 1226.3 922.071 1223.57 922.992 1220.57C922.992 1220.57 924.219 1202.18 921.765 1195.52C921.765 1195.52 912.306 1204.1 903.889 1197.89C903.889 1197.89 904.306 1190.53 891.436 1190.95C878.565 1191.37 880.136 1195.41 880.136 1195.41Z" fill="#BE282D"></path><path d="M995.418 1218.95C995.295 1220.9 995.234 1222.86 995.258 1224.82C995.278 1226.25 995.372 1227.68 995.54 1229.1C995.646 1230.09 995.826 1231.07 996.08 1232.03C996.244 1232.66 996.47 1233.27 996.755 1233.85C997.127 1234.54 997.647 1235.13 998.276 1235.58C998.833 1236.05 999.346 1236.56 999.81 1237.11C1000.3 1237.67 1000.82 1238.19 1001.32 1238.73C1002.25 1239.73 1003.17 1240.72 1004.06 1241.76C1004.31 1242.08 1004.57 1242.39 1004.82 1242.72C1004.98 1242.91 1005.11 1243.12 1005.21 1243.35C1005.65 1244.58 1006.52 1251.29 1007.76 1258.59C1009 1265.9 1022.84 1277.86 1041 1278.08C1043.05 1278.12 1045.11 1277.96 1047.13 1277.62C1048.85 1277.33 1050.53 1276.87 1052.16 1276.26C1053.57 1275.71 1054.92 1275.05 1056.21 1274.27C1057.32 1273.59 1058.37 1272.82 1059.35 1271.97C1060.85 1270.66 1062.17 1269.16 1063.28 1267.52C1063.93 1266.72 1064.39 1265.78 1064.62 1264.77C1064.65 1264.06 1064.65 1263.34 1064.62 1262.63C1064.62 1261.86 1064.62 1261.1 1064.7 1260.34C1064.78 1258.82 1064.85 1257.3 1064.85 1255.77V1255.64C1064.87 1255.44 1064.87 1255.24 1064.85 1255.05L995.418 1218.95Z" fill="#322D41"></path><path d="M1038.28 1193.91C1038.28 1193.91 1041.44 1193.25 1043.56 1205.2C1045.69 1217.16 1055.02 1236.44 1059.08 1240.2C1063.15 1243.97 1064.9 1255.05 1064.9 1255.05C1064.9 1255.05 1059.61 1266.79 1038.28 1265.02C1030.75 1264.33 1023.58 1261.5 1017.61 1256.86C1013.26 1253.55 1009.49 1249.53 1006.47 1244.97C1006.32 1244.75 1006.18 1244.51 1006.08 1244.26C1005.86 1243.24 1005.77 1242.2 1005.82 1241.16L1005.6 1237.42L1005.42 1234.31C1005.49 1233.42 1005.39 1232.53 1005.14 1231.67C1004.9 1231.3 1004.58 1230.98 1004.2 1230.75C1002.72 1229.62 1001.37 1228.34 1000.17 1226.92C997.964 1224.68 996.335 1221.95 995.419 1218.95C995.419 1218.95 994.192 1200.56 996.645 1193.9C996.645 1193.9 1006.12 1202.56 1014.52 1196.28C1014.52 1196.28 1014.1 1188.93 1026.99 1189.33C1039.87 1189.73 1038.28 1193.91 1038.28 1193.91Z" fill="#BE282D"></path><path d="M927.9 632.698C927.9 632.698 1021.31 651.184 1063.72 643.951L1054.53 581.248L923.716 605.263L927.9 632.698Z" fill="#FAB4A5"></path><path d="M868.492 580.635C868.492 580.635 851.597 620.574 878.111 661.543C878.111 661.543 971.112 623.97 1008.58 600.666C1046.05 577.362 1087.11 585.477 1087.11 585.477L1080.38 539.017C1080.38 539.017 1028.77 544.496 1013.56 556.179C1013.49 556.167 898.539 582.927 868.492 580.635Z" fill="#FAB4A5"></path><path d="M855.302 416.221C855.302 416.221 824.543 433.015 822.96 473.898C821.378 514.781 818.715 579.949 828.788 620.218C838.862 660.488 843.634 658.895 878.111 661.555C878.111 661.555 884.479 611.208 868.565 581.542L855.302 416.221Z" fill="#BE282D"></path><path d="M920.416 586.691L910.282 575.388C910.005 574.821 909.807 574.219 909.693 573.598C909.104 571.919 908.466 570.276 907.693 568.695C905.104 563.018 901.894 557.644 898.123 552.673C888.455 540.137 875.882 530.137 861.487 523.534C856.898 521.376 853.279 520.763 848.935 523.767C846.661 525.317 844.644 527.216 842.96 529.393C840.631 532.44 839.341 536.152 839.279 539.985C839.279 545.673 841.733 551.018 844.567 555.602C849.868 563.926 857.131 570.718 864.456 576.81C868.652 580.304 873.044 583.589 877.388 586.727C946.771 636.13 920.416 586.691 920.416 586.691Z" fill="#FAB4A5"></path><path d="M1044.3 407.652C1044.3 407.652 1078.35 422.252 1084.29 448.437C1090.22 474.622 1101.59 585.404 1096.17 602.014C1096.17 602.014 1099.99 647.678 1044.35 645.925C1044.35 645.925 1027.06 619.14 1030.25 586.409L1036.61 565.765L1029.86 532.777L1044.3 407.652Z" fill="#BE282D"></path><path d="M1217.41 437.686H1216.49V474.278H1217.41V437.686Z" fill="#E6EBF0"></path><path d="M1247.83 402.932H1246.91V436.485H1247.83V402.932Z" fill="#E6EBF0"></path><path d="M1314.19 401.731H1197.32V402.932H1314.19V401.731Z" fill="#E6EBF0"></path><path d="M1280.66 436.485H1199.14V437.686H1280.66V436.485Z" fill="#E6EBF0"></path><path d="M1262.91 474.278H1183.53V475.479H1262.91V474.278Z" fill="#E6EBF0"></path><path d="M1463.37 739.484H1462.45V776.076H1463.37V739.484Z" fill="#E6EBF0"></path><path d="M1432.94 777.277H1432.02V810.829H1432.94V777.277Z" fill="#E6EBF0"></path><path d="M1482.53 810.829H1365.67V812.031H1482.53V810.829Z" fill="#E6EBF0"></path><path d="M1480.72 776.064H1399.2V777.265H1480.72V776.064Z" fill="#E6EBF0"></path><path d="M1496.31 738.27H1416.93V739.471H1496.31V738.27Z" fill="#E6EBF0"></path><path d="M644.638 225.267H643.718V261.859H644.638V225.267Z" fill="#E6EBF0"></path><path d="M675.067 263.06H674.146V296.613H675.067V263.06Z" fill="#E6EBF0"></path><path d="M741.406 296.612H624.541V297.814H741.406V296.612Z" fill="#E6EBF0"></path><path d="M707.887 261.859H626.37V263.06H707.887V261.859Z" fill="#E6EBF0"></path><path d="M690.145 224.065H610.763V225.267H690.145V224.065Z" fill="#E6EBF0"></path><path d="M456.55 697.105H455.63V733.697H456.55V697.105Z" fill="#E6EBF0"></path><path d="M486.978 662.352H486.058V695.904H486.978V662.352Z" fill="#E6EBF0"></path><path d="M553.33 661.15H436.465V662.352H553.33V661.15Z" fill="#E6EBF0"></path><path d="M519.811 695.904H438.294V697.105H519.811V695.904Z" fill="#E6EBF0"></path><path d="M502.069 733.698H422.687V734.899H502.069V733.698Z" fill="#E6EBF0"></path></g><defs><clipPath id="clip0_68_90"><rect width="1079" height="1248" fill="white" transform="translate(420 54)"></rect></clipPath></defs></svg> 